<svg width="27" height="27" viewBox="0 0 27 27" fill="none" xmlns="http://www.w3.org/2000/svg">
<path d="M8.0549 0.0682325C7.78057 0.158249 7.31028 0.642087 7.2263 0.929014C7.17592 1.09779 7.15912 1.87419 7.15912 3.72515V6.28499L5.21639 6.30749L3.26805 6.32437L2.77537 6.49878C2.09234 6.74632 1.71723 6.98824 1.19655 7.50583C0.681476 8.02905 0.440734 8.406 0.194393 9.09237L0.0208346 9.58746L0.00403864 16.3668C-0.00715867 21.3121 0.00403864 23.2587 0.0488279 23.5681C0.306366 25.2447 1.61085 26.6006 3.27365 26.9212C3.62637 26.9887 4.66212 27 9.39858 27C15.5795 27 15.5235 27 16.3017 26.6906C16.9232 26.4374 17.0407 26.173 16.7104 25.751C15.9994 24.8621 15.6579 24.2489 15.3947 23.4275C15.154 22.6736 15.0924 22.2685 15.0924 21.4584C15.098 20.8283 15.1204 20.637 15.266 20.08C15.4787 19.2642 15.7139 18.6454 16.117 17.8577C16.7216 16.6763 17.455 15.6017 18.2948 14.6509C18.5132 14.4033 18.7203 14.1108 18.7539 14.0039C18.7931 13.8745 18.8043 13.07 18.7931 11.7254C18.7707 9.73374 18.7651 9.62684 18.642 9.2499C18.1829 7.85465 17.2591 6.92635 15.865 6.45939C15.4899 6.33562 15.3835 6.33 13.5584 6.30749L11.638 6.29061V3.72515C11.638 1.87419 11.6212 1.09779 11.5709 0.929014C11.4813 0.619583 11.0166 0.152623 10.7087 0.0626065C10.4119 -0.0217838 8.33484 -0.0217838 8.0549 0.0682325ZM10.7423 6.29624H8.0549V2.97689H10.7423V6.29624ZM14.1966 10.06C14.5605 10.2232 14.9468 10.6283 15.0868 10.994C15.1876 11.2584 15.1932 11.4497 15.1932 13.9758V16.6763L15.0588 16.9688C14.8965 17.3345 14.4934 17.7227 14.1294 17.8633C13.8607 17.9646 13.6536 17.9702 9.39858 17.9702C5.1436 17.9702 4.93645 17.9646 4.66772 17.8633C4.30381 17.7227 3.9007 17.3345 3.73834 16.9688L3.60397 16.6763V13.9758C3.60397 11.4553 3.60957 11.2584 3.71035 10.9996C3.82792 10.6845 4.18064 10.2738 4.43817 10.1388C4.88607 9.90252 4.88047 9.90252 9.48256 9.91377L13.9055 9.92502L14.1966 10.06ZM6.77281 20.5019C7.12553 20.7326 7.17032 20.9408 7.14792 22.2573C7.13113 23.2981 7.11993 23.405 7.01355 23.5456C6.80081 23.8382 6.61605 23.9338 6.27453 23.9338C5.9778 23.9338 5.89942 23.9001 5.1436 23.4612C4.15824 22.8874 3.99588 22.7692 3.87831 22.5442C3.75514 22.3079 3.79433 21.8409 3.95109 21.6215C4.06306 21.464 5.81544 20.4063 6.06738 20.3444C6.25774 20.2938 6.56006 20.3613 6.77281 20.5019ZM13.4912 20.7382L14.135 21.1096L14.2022 21.9028C14.2414 22.3417 14.2862 22.7749 14.303 22.8705C14.3366 23.0505 14.331 23.0505 13.5752 23.4837C13.1329 23.7369 12.7298 23.9282 12.6066 23.9451C12.3043 23.9788 11.9292 23.7763 11.7668 23.4837C11.6492 23.2699 11.638 23.1912 11.638 22.1447C11.638 21.1546 11.6492 21.0083 11.7444 20.817C11.918 20.4794 12.2819 20.2882 12.6458 20.3388C12.7522 20.3557 13.1329 20.5357 13.4912 20.7382Z" fill="#0B83A5"/>
<path d="M21.0886 13.5763C19.3698 14.1952 16.7328 17.7733 16.1114 20.3388C15.9658 20.9183 15.9434 21.8691 16.0554 22.4148C16.4529 24.3389 17.6902 25.8354 19.4986 26.578C20.12 26.8312 20.6015 26.91 21.4917 26.91C22.2251 26.9156 22.4323 26.8931 22.8354 26.7862C23.7703 26.5274 24.5373 26.1111 25.2036 25.481C26.049 24.6877 26.5641 23.8213 26.844 22.7467C27.0119 22.0997 27.0511 21.1208 26.928 20.5582C26.4129 18.1953 24.3638 15.0728 22.561 13.9026C21.9844 13.5313 21.5141 13.4244 21.0886 13.5763ZM25.1028 21.1546C25.198 21.2446 25.2148 21.329 25.2036 21.6497C25.1868 22.3754 24.8901 23.1687 24.403 23.7819C24.1342 24.1307 23.9495 24.2207 23.7199 24.1251C23.356 23.9732 23.3616 23.6638 23.7311 23.1799C24.0503 22.7524 24.2126 22.3585 24.2966 21.8016C24.3862 21.1771 24.3974 21.1546 24.5597 21.0645C24.7389 20.9689 24.946 21.0027 25.1028 21.1546ZM22.6954 24.4402C22.9753 24.7158 22.7794 25.1997 22.3875 25.1997C22.1579 25.1997 21.9396 24.9803 21.9396 24.7496C21.9396 24.5189 22.1579 24.2995 22.3875 24.2995C22.4938 24.2995 22.6114 24.3501 22.6954 24.4402Z" fill="#0B83A5"/>
</svg>
