<svg width="29" height="29" viewBox="0 0 29 29" fill="none" xmlns="http://www.w3.org/2000/svg">
<path d="M23.6569 4.68555L23.7434 4.63541C23.734 4.61916 23.7187 4.6032 23.7108 4.59503L23.7107 4.59494C23.6995 4.58324 23.685 4.56898 23.668 4.55284C23.634 4.52043 23.5876 4.478 23.5325 4.4288C23.4221 4.33031 23.2749 4.20303 23.1172 4.07116C21.2371 2.4837 19.0884 1.4881 16.6611 1.06609L16.6607 1.06602C16.3038 1.0055 15.6431 0.953729 15.0025 0.924789C14.363 0.895901 13.7305 0.889146 13.4318 0.921354L13.4316 0.921378C10.9157 1.19822 8.955 1.90391 6.9836 3.23941L6.98307 3.23978C6.66594 3.45762 6.23325 3.78934 5.88016 4.07725C5.70357 4.22124 5.5457 4.35523 5.43147 4.45928C5.37459 4.5111 5.32704 4.55683 5.29311 4.59337C5.27634 4.61141 5.26101 4.62923 5.24924 4.64569C5.2434 4.65386 5.23692 4.6638 5.23152 4.67481C5.22715 4.68374 5.21817 4.70374 5.21817 4.72933C5.21817 4.74895 5.22379 4.76405 5.22604 4.76975C5.22897 4.77721 5.23229 4.78352 5.23482 4.788C5.23992 4.79702 5.24601 4.80594 5.25169 4.81379C5.26333 4.82987 5.2791 4.84945 5.29737 4.87112C5.33426 4.91488 5.38616 4.97283 5.44756 5.03944C5.57061 5.17294 5.73483 5.34453 5.9006 5.5138C6.06637 5.68307 6.23437 5.85074 6.36502 5.97636C6.4302 6.03904 6.48689 6.09202 6.52967 6.12967C6.55085 6.14832 6.57 6.16443 6.58571 6.17633C6.59338 6.18213 6.60214 6.1884 6.61106 6.19368C6.61547 6.19629 6.62178 6.19979 6.62932 6.2029C6.63494 6.20522 6.65064 6.21143 6.67122 6.21143C6.69171 6.21143 6.70781 6.20538 6.7137 6.20308C6.72176 6.19994 6.72898 6.19626 6.73464 6.19316C6.74608 6.18688 6.75829 6.17896 6.77021 6.17071C6.79443 6.15396 6.82451 6.13094 6.85784 6.10406C6.92484 6.05002 7.0096 5.97658 7.09549 5.89719L7.09581 5.89689C7.87665 5.16869 9.48364 4.19995 10.5469 3.81652L10.5471 3.81642C13.0694 2.8984 15.7036 2.86163 18.1517 3.70444L18.152 3.70451C19.3843 4.12568 21.0208 5.0819 21.8735 5.86587M23.6569 4.68555L23.7398 4.62954C23.7672 4.67007 23.7561 4.71205 23.7539 4.72038L23.7538 4.72062C23.7499 4.73552 23.7437 4.74871 23.7388 4.75807C23.7286 4.77771 23.7139 4.80003 23.6976 4.8228C23.6645 4.8693 23.616 4.93006 23.5583 4.99896C23.4423 5.13735 23.2835 5.31499 23.1209 5.49001C22.9582 5.66506 22.7907 5.83868 22.6574 5.96897C22.5909 6.03393 22.5317 6.08925 22.4853 6.12882C22.4623 6.14841 22.4407 6.16568 22.4219 6.17859C22.4126 6.18496 22.4019 6.19169 22.3907 6.1972C22.3828 6.20113 22.3612 6.21143 22.3341 6.21143C22.3149 6.21143 22.2995 6.2063 22.2923 6.20366C22.2836 6.20045 22.2757 6.19661 22.2693 6.19322C22.2565 6.18641 22.2429 6.17773 22.2297 6.16863C22.2028 6.15019 22.1699 6.1248 22.1335 6.09514C22.0604 6.03557 21.9682 5.95438 21.8735 5.86587M23.6569 4.68555C23.6992 4.74809 22.4307 6.11143 22.3341 6.11143C22.3039 6.11143 22.1287 5.96759 21.9414 5.79249M23.6569 4.68555C23.6388 4.65428 23.367 4.41038 23.0529 4.14772C21.1864 2.57174 19.0541 1.58363 16.644 1.16462L7.02761 5.82376C7.81891 5.0858 9.43774 4.11019 10.5129 3.72245C13.056 2.79688 15.7138 2.75936 18.1843 3.60988C19.4286 4.03515 21.0777 4.99824 21.9414 5.79249M21.8735 5.86587C21.8734 5.86576 21.8733 5.86564 21.8731 5.86553L21.9414 5.79249M21.8735 5.86587C21.8736 5.86595 21.8737 5.86602 21.8738 5.8661L21.9414 5.79249M25.4811 11.1521C25.0825 9.90754 24.116 8.13769 23.3549 7.26215L25.4811 11.1521ZM25.4811 11.1521L25.3859 11.1825M25.4811 11.1521L25.3859 11.1826C25.3859 11.1826 25.3859 11.1826 25.3859 11.1825M25.3859 11.1825C26.0931 13.3916 26.1769 15.7305 25.6317 17.9386C25.2243 19.5886 24.3911 21.2948 23.3741 22.5522C23.2708 22.678 23.1763 22.7979 23.1073 22.89C23.0728 22.9359 23.0441 22.9759 23.0235 23.0066C23.0134 23.0218 23.0043 23.0362 22.9973 23.0487C22.9939 23.0548 22.99 23.0623 22.9867 23.0702L22.9866 23.0705C22.9846 23.0753 22.977 23.0933 22.977 23.1157C22.977 23.1415 22.9873 23.1608 22.9881 23.1624C22.9912 23.1687 22.9944 23.1739 22.9966 23.1772C23.0012 23.1843 23.0066 23.1915 23.0117 23.1981C23.0222 23.2118 23.0368 23.2292 23.0542 23.2495C23.0893 23.2902 23.1394 23.3461 23.2005 23.4125C23.3228 23.5454 23.491 23.7227 23.6758 23.9108C23.6759 23.911 23.676 23.9111 23.6762 23.9112L24.3401 24.5986L24.4163 24.6775L24.4879 24.5942L24.7295 24.3128L24.7298 24.3124C25.3995 23.5245 26.2379 22.2478 26.6887 21.3143C27.2793 20.0912 27.7653 18.4805 27.9901 17.0083L27.9902 17.0076C28.1366 16.0037 28.1366 13.9802 27.9902 12.9763L27.9901 12.9757C27.668 10.8551 26.9868 9.00955 25.8859 7.27135C25.6663 6.9209 25.3383 6.45881 25.055 6.08468C24.9132 5.8975 24.7817 5.73113 24.6798 5.61102C24.6291 5.5512 24.5844 5.50134 24.5487 5.46578C24.5312 5.44824 24.5138 5.43216 24.4977 5.41979C24.4897 5.41367 24.4799 5.40675 24.4689 5.40093C24.4603 5.39637 24.4393 5.38605 24.412 5.38605C24.3853 5.38605 24.3656 5.39701 24.364 5.39783C24.3577 5.40106 24.3524 5.40446 24.3491 5.4067C24.3422 5.41138 24.3351 5.41688 24.3288 5.42202C24.3157 5.43266 24.299 5.44725 24.2797 5.46468C24.2409 5.49982 24.1879 5.54999 24.1248 5.61137C23.9985 5.73424 23.8301 5.90393 23.6511 6.09234C23.4724 6.27739 23.31 6.4518 23.1919 6.5843C23.133 6.65045 23.0843 6.70698 23.05 6.74952C23.0331 6.77059 23.0185 6.78965 23.0077 6.80543C23.0024 6.81316 22.9967 6.82198 22.9919 6.831C22.9896 6.8355 22.9865 6.84172 22.9839 6.84905C22.9817 6.85498 22.977 6.86896 22.977 6.88691C22.977 6.9062 22.9824 6.92152 22.9845 6.92745C22.9874 6.93536 22.9908 6.94255 22.9937 6.94828C22.9997 6.95986 23.0072 6.97234 23.0151 6.98465C23.0311 7.00962 23.0533 7.04082 23.0791 7.07558C23.1311 7.14547 23.2018 7.2345 23.2781 7.32613L23.278 7.32615L23.2794 7.32775C24.0305 8.19179 24.9908 9.94925 25.3859 11.1825ZM7.15111 13.0929L7.16106 13.0723L7.94631 11.4463L7.97361 11.3898H8.03636H9.18405H9.28405V11.4898V12.1777V12.2385L9.23002 12.2665L8.80754 12.4852C8.80744 12.4853 8.80735 12.4853 8.80725 12.4854C8.6482 12.5685 8.54201 12.6241 8.46878 12.6825C8.40173 12.736 8.36848 12.7871 8.35436 12.8622C8.33872 12.9454 8.34552 13.0636 8.37969 13.253C8.41337 13.4396 8.47105 13.6831 8.54923 14.0131L8.55046 14.0183L8.55047 14.0183C8.62276 14.324 8.69646 14.6151 8.75797 14.8388C8.78875 14.9507 8.81627 15.045 8.83887 15.1154C8.8502 15.1506 8.86 15.179 8.86812 15.2002C8.87713 15.2237 8.88166 15.2319 8.88154 15.2317L8.88347 15.2347L8.88342 15.2348C8.89388 15.2524 8.92784 15.2856 8.99732 15.3245C9.0634 15.3615 9.15116 15.3978 9.25397 15.4274L9.2555 15.4279C10.2679 15.7365 11.1771 16.5254 11.6659 17.5246L11.6661 17.525C11.7743 17.749 11.8291 17.82 11.9249 17.8488C11.9787 17.8649 12.0537 17.8698 12.1711 17.8602C12.2876 17.8507 12.4363 17.828 12.6343 17.7952C12.6345 17.7951 12.6347 17.7951 12.6349 17.7951L12.6513 17.8937C13.5815 17.7311 15.4178 17.7311 16.348 17.8937C17.1393 18.0251 17.2118 18.0063 17.4232 17.5685L7.15111 13.0929ZM7.15111 13.0929V13.1158V14.0851C7.15111 14.8385 7.19342 15.3923 7.31954 15.889C7.44602 16.3871 7.65535 16.8221 7.98196 17.3404L7.982 17.3405C8.38727 17.9826 9.26594 18.9179 9.85101 19.3324M7.15111 13.0929L16.5182 23.464M16.5182 23.464L16.8742 24.9752L16.9032 25.0981H16.7769H12.2224H12.0961L12.125 24.9752L12.4811 23.464L11.9521 21.8396L11.9521 21.8395L11.4272 20.2213L10.8596 19.9275L10.8589 19.9272C10.5256 19.7515 10.0679 19.4864 9.85101 19.3324M16.5182 23.464L17.5722 20.2272L18.1995 19.8965C18.1997 19.8964 18.1999 19.8963 18.2001 19.8962C18.5725 19.7065 19.0728 19.3972 19.3081 19.2178L19.3081 19.2177C20.1963 18.5391 21.1571 17.3118 21.509 16.4169L21.5091 16.4167C21.7571 15.7812 21.8482 15.1481 21.8482 14.0851V13.1158V13.0929L21.8382 13.0723L21.0529 11.4463L21.0257 11.3898H20.9629H19.8152H19.7152V11.4898V12.1777V12.2385L19.7692 12.2665L20.1917 12.4852C20.1918 12.4853 20.1919 12.4853 20.192 12.4854C20.3511 12.5685 20.4572 12.6241 20.5305 12.6825C20.5975 12.736 20.6308 12.7871 20.6449 12.8622C20.6605 12.9454 20.6537 13.0636 20.6196 13.253C20.5859 13.4396 20.5282 13.6831 20.45 14.0131L20.4488 14.0183L20.4488 14.0183C20.3766 14.3236 20.3014 14.6147 20.2391 14.8385C20.2079 14.9504 20.1802 15.045 20.1577 15.1157C20.1465 15.1511 20.1368 15.1799 20.1289 15.2017C20.1276 15.2052 20.1264 15.2085 20.1252 15.2115C20.1228 15.2179 20.1207 15.2232 20.1188 15.2275C20.1168 15.2324 20.1155 15.2351 20.115 15.2362C20.1022 15.2566 20.0701 15.2878 20.0161 15.3213C19.9636 15.3539 19.8996 15.383 19.8357 15.4025C18.7925 15.6921 17.8283 16.5061 17.3333 17.5248L17.3331 17.525C17.225 17.749 17.1702 17.82 17.0743 17.8488C17.0205 17.8649 16.9455 17.8698 16.8282 17.8602C16.7117 17.8507 16.5629 17.828 16.3649 17.7952L16.5182 23.464ZM9.85101 19.3324L9.90859 19.2513L9.85109 19.3324C9.85106 19.3324 9.85104 19.3324 9.85101 19.3324ZM12.9958 13.5726L12.9966 13.5717C13.0894 13.4578 13.2708 13.3224 13.4578 13.2086C13.6459 13.0941 13.8564 12.9914 14.0153 12.9502M12.9958 13.5726L13.6842 16.8056L13.6387 16.8946C13.6388 16.8947 13.6389 16.8947 13.639 16.8948C13.8721 17.0136 14.1865 17.0697 14.4951 17.0697C14.804 17.0697 15.121 17.0135 15.3596 16.8951L15.3599 16.895C15.7671 16.6908 16.1454 16.2987 16.3419 15.8786L16.3421 15.8782C16.4558 15.6326 16.5099 15.3059 16.5099 14.9872C16.5099 14.6688 16.4559 14.3446 16.3416 14.1047L16.3414 14.1042C16.1391 13.6853 15.7613 13.2932 15.3595 13.095C15.1817 13.0064 14.9331 12.9482 14.6906 12.9225C14.4484 12.8969 14.1979 12.9022 14.0153 12.9502M12.9958 13.5726C12.9057 13.6859 12.7634 13.9173 12.6712 14.0955L12.6712 14.0954L12.6703 14.0971C12.6018 14.2357 12.5583 14.3451 12.5333 14.4805C12.5088 14.613 12.5029 14.7663 12.5029 14.9913M12.9958 13.5726L12.5029 14.9913M14.0153 12.9502C14.0153 12.9502 14.0152 12.9503 14.0151 12.9503L14.0406 13.047L14.0155 12.9502C14.0154 12.9502 14.0154 12.9502 14.0153 12.9502ZM12.5029 14.9913C12.5029 14.991 12.5029 14.9908 12.5029 14.9906L12.6029 14.9919H12.5029C12.5029 14.9917 12.5029 14.9915 12.5029 14.9913ZM4.08138 5.90382L4.08137 5.90382L4.08052 5.90487C2.43213 7.95158 1.43461 10.2382 1.01522 12.944C0.938503 13.4302 0.900768 14.1962 0.900012 14.9621C0.899255 15.7284 0.935505 16.5033 1.00903 17.0076L1.00909 17.008C1.42244 19.7645 2.55935 22.3151 4.2697 24.3127L4.26978 24.3128L4.5114 24.5942L4.58292 24.6775L4.6592 24.5986L5.32307 23.9112C5.32317 23.9111 5.32327 23.911 5.32337 23.9109C5.50815 23.7228 5.67641 23.5454 5.79873 23.4125C5.85984 23.3461 5.90994 23.2902 5.94505 23.2495C5.96246 23.2292 5.97701 23.2118 5.98757 23.1981C5.99269 23.1915 5.99809 23.1843 6.00263 23.1772C6.00481 23.1739 6.00806 23.1687 6.01113 23.1624L6.01127 23.1621C6.01275 23.1592 6.02221 23.1405 6.02221 23.1157C6.02221 23.0933 6.01468 23.0753 6.01267 23.0705L6.01253 23.0702C6.00923 23.0623 6.00535 23.0548 6.00194 23.0487C5.99498 23.0362 5.98586 23.0218 5.97572 23.0066C5.9552 22.9759 5.92641 22.9359 5.892 22.89C5.82298 22.7979 5.72848 22.678 5.62521 22.5522C3.32623 19.7132 2.46271 15.7057 3.36754 12.0453L3.36759 12.0451C3.7751 10.3823 4.74101 8.4462 5.7196 7.328L5.71962 7.32802L5.7212 7.32613C5.79746 7.23455 5.86828 7.14533 5.92047 7.07436C5.94642 7.03908 5.96879 7.00691 5.9851 6.98053C5.99316 6.96749 6.00085 6.95406 6.00688 6.94132L6.00702 6.94103C6.01086 6.9329 6.02221 6.90889 6.02221 6.88066C6.02221 6.85983 6.01578 6.84395 6.01375 6.83902C6.01079 6.83183 6.00749 6.82577 6.00505 6.82156C6.0001 6.81301 5.99419 6.80445 5.98864 6.79684C5.97728 6.78124 5.96182 6.76197 5.94378 6.74041C5.90738 6.6969 5.8561 6.63886 5.79536 6.57185C5.67365 6.43757 5.51121 6.2643 5.34737 6.0931C5.18354 5.92192 5.0177 5.75216 4.88913 5.62495C4.82497 5.56148 4.76937 5.50787 4.72765 5.4698C4.70699 5.45094 4.68846 5.43472 4.6734 5.42277C4.66607 5.41695 4.6577 5.41065 4.64924 5.40531C4.64508 5.40269 4.63894 5.39904 4.63154 5.39573C4.62663 5.39353 4.60973 5.38605 4.58727 5.38605C4.56476 5.38605 4.5481 5.39358 4.54275 5.39608C4.53532 5.39954 4.52946 5.40329 4.52582 5.40574C4.51843 5.41074 4.5118 5.41627 4.5068 5.42063C4.49638 5.42972 4.48434 5.44151 4.47168 5.45445C4.44596 5.48077 4.41208 5.51772 4.37282 5.56191C4.29405 5.6506 4.19057 5.77193 4.08138 5.90382ZM7.15111 28V28.1H7.25111H21.7481H21.8482V28V25.9988V25.8988H21.7481H7.25111H7.15111V25.9988V28Z" fill="#0B83A5" stroke="#0B83A5" stroke-width="0.2"/>
</svg>
