<svg width="27" height="25" viewBox="0 0 27 25" fill="none" xmlns="http://www.w3.org/2000/svg">
<path d="M4.72702 0.0466384C1.20245 0.530302 -0.853115 4.21035 0.341118 7.8904C0.837835 9.41499 1.752 10.7819 3.3267 12.3485C4.31485 13.3369 4.88555 13.8258 6.03222 14.6827C7.80772 16.0128 10.9835 17.9685 11.3534 17.9685C11.5807 17.9685 12.9915 17.1536 14.1276 16.365L14.4711 16.1232L14.1118 15.65C13.4724 14.8141 12.944 13.647 12.7062 12.5535C12.5688 11.9279 12.5424 10.5926 12.6481 9.90917C13.2082 6.36055 16.0194 3.7372 19.6179 3.40074C20.3313 3.33765 21.2138 3.39023 21.8637 3.53743C22.2653 3.63206 22.297 3.63206 22.297 3.55846C22.297 3.52691 22.2072 3.30611 22.091 3.06428C21.2666 1.30837 19.5862 0.162297 17.6205 0.0150952C15.6284 -0.132107 13.3509 0.808934 12.0351 2.32827C11.6493 2.77513 11.4697 2.89079 11.253 2.84348C11.1843 2.82245 10.825 2.50701 10.4604 2.13901C9.56736 1.23477 8.78002 0.730076 7.67033 0.362071C6.78258 0.0676673 5.54079 -0.063763 4.72702 0.0466384ZM5.70988 1.05602C5.93711 1.22951 5.9741 1.54494 5.79443 1.75523C5.68875 1.87615 5.62005 1.89718 5.21845 1.93398C4.28315 2.01809 3.72302 2.2757 3.08891 2.90656C2.77186 3.21674 2.60276 3.43754 2.43895 3.76349C2.18003 4.25241 1.9528 5.06728 1.9528 5.49311C1.9528 5.82432 1.84712 6.1082 1.69916 6.18706C1.41381 6.33952 1.03335 6.16603 0.975224 5.86112C0.954088 5.76649 0.96994 5.47734 1.00165 5.21974C1.26057 3.07479 2.59748 1.47134 4.46281 1.06654C4.86969 0.977165 5.59892 0.971908 5.70988 1.05602Z" fill="#0B83A5"/>
<path d="M19.1318 4.43641C17.0657 4.78339 15.2109 6.16078 14.2545 8.05863C13.9004 8.7631 13.5834 9.84608 13.5781 10.356V10.5558H14.0272C14.7195 10.5558 14.952 10.6925 14.952 11.0973C14.952 11.2182 14.9097 11.3128 14.8146 11.4022C14.6931 11.5179 14.6244 11.5284 14.1276 11.5442L13.5781 11.5652V11.7387C13.5781 12.0173 13.726 12.7165 13.8899 13.1897C14.5715 15.1927 16.1304 16.7488 18.1278 17.4112C18.6192 17.5794 19.4541 17.7582 19.7131 17.7582C19.8029 17.7582 19.8135 17.7109 19.8135 17.2114C19.8135 16.7067 19.824 16.6489 19.9403 16.5122C20.1199 16.3072 20.4581 16.3072 20.6378 16.5122C20.7541 16.6489 20.7646 16.7067 20.7646 17.2167V17.7687L21.0711 17.7372C21.5044 17.6846 22.3869 17.4638 22.7779 17.3061C24.6274 16.5595 26.0541 15.0507 26.6882 13.1897C26.852 12.7113 27 12.0173 27 11.7387V11.5652L26.4504 11.5442C25.9537 11.5284 25.885 11.5179 25.7635 11.4022C25.5785 11.2287 25.5733 10.9343 25.7529 10.7293C25.8745 10.5926 25.9009 10.5821 26.4399 10.5663L27 10.5453V10.3613C27 10.0932 26.852 9.43076 26.6777 8.90504C25.9009 6.58135 23.8242 4.82544 21.3829 4.43115C21.1134 4.3891 20.865 4.3523 20.8333 4.3523C20.7805 4.3523 20.7646 4.4995 20.7646 4.90956C20.7646 5.45105 20.7593 5.46682 20.6114 5.61928C20.5057 5.72443 20.4053 5.77174 20.289 5.77174C20.1728 5.77174 20.0724 5.72443 19.9667 5.61928C19.8187 5.46682 19.8135 5.45105 19.8135 4.90956C19.8135 4.26292 19.8822 4.31024 19.1318 4.43641ZM24.5058 6.9073C24.5798 6.99142 24.6221 7.10707 24.6221 7.23325C24.6221 7.41199 24.5428 7.50137 23.2958 8.74733L21.9694 10.0721L22.0857 10.3771C22.2442 10.7976 22.2442 11.3654 22.0857 11.7807C21.9272 12.2013 21.4991 12.6482 21.0711 12.848C20.7805 12.9794 20.6748 13.0004 20.2626 13.0004C19.6391 13.0004 19.2533 12.8374 18.8412 12.3906C18.4713 11.9963 18.3233 11.6178 18.3233 11.0815C18.3233 10.314 18.7249 9.68311 19.433 9.33613C19.7501 9.17842 19.8293 9.16265 20.2626 9.16265C20.6484 9.16265 20.791 9.18367 21.0024 9.28356L21.2613 9.40448L22.5613 8.12172C23.2746 7.41199 23.9034 6.80741 23.9616 6.77587C24.1148 6.69176 24.3685 6.74958 24.5058 6.9073Z" fill="#0B83A5"/>
<path d="M20.0143 10.13C19.2533 10.3718 19.0948 11.4127 19.7553 11.8543C20.6114 12.4274 21.6418 11.418 21.087 10.5505C20.865 10.1983 20.3894 10.0143 20.0143 10.13Z" fill="#0B83A5"/>
<path d="M18.8623 19.5299C18.8623 20.3342 18.8729 20.4657 18.968 20.6497C19.1688 21.0387 19.507 21.1754 20.289 21.1754C21.0711 21.1754 21.4093 21.0387 21.6101 20.6497C21.7052 20.4657 21.7158 20.3342 21.7158 19.5299V18.6151L21.4146 18.6677C21.0183 18.736 19.5598 18.736 19.1688 18.6677L18.8623 18.6151V19.5299Z" fill="#0B83A5"/>
<path d="M19.8135 23.3992C19.8135 24.7976 19.8187 24.8344 20.1305 24.9606C20.2573 25.0131 20.3207 25.0131 20.4476 24.9606C20.7593 24.8344 20.7646 24.7976 20.7646 23.3992V22.1217H19.8135V23.3992Z" fill="#0B83A5"/>
</svg>
