<svg width="21" height="27" viewBox="0 0 21 27" fill="none" xmlns="http://www.w3.org/2000/svg">
<path d="M15.75 6.75H18.0833C18.238 6.75 18.3864 6.69073 18.4958 6.58524C18.6052 6.47975 18.6667 6.33668 18.6667 6.1875C18.6667 6.03831 18.6052 5.89524 18.4958 5.78975C18.3864 5.68426 18.238 5.625 18.0833 5.625H15.75C15.5953 5.625 15.4469 5.68426 15.3375 5.78975C15.2281 5.89524 15.1667 6.03831 15.1667 6.1875C15.1667 6.33668 15.2281 6.47975 15.3375 6.58524C15.4469 6.69073 15.5953 6.75 15.75 6.75ZM3.5 5.0625C3.5 4.72874 3.39736 4.40248 3.20507 4.12497C3.01278 3.84747 2.73947 3.63117 2.4197 3.50345C2.09993 3.37573 1.74806 3.34231 1.40859 3.40742C1.06913 3.47254 0.757306 3.63325 0.512564 3.86926C0.267822 4.10526 0.101151 4.40594 0.0336265 4.73328C-0.0338976 5.06063 0.000758246 5.39993 0.133212 5.70828C0.265665 6.01663 0.489967 6.28018 0.777753 6.4656C1.06554 6.65103 1.40388 6.75 1.75 6.75C2.21413 6.75 2.65925 6.57221 2.98744 6.25574C3.31563 5.93927 3.5 5.51005 3.5 5.0625ZM1.75 5.625C1.63463 5.625 1.52185 5.59201 1.42592 5.5302C1.32999 5.46839 1.25522 5.38054 1.21107 5.27776C1.16692 5.17497 1.15537 5.06187 1.17788 4.95276C1.20038 4.84365 1.25594 4.74342 1.33752 4.66475C1.4191 4.58608 1.52304 4.53251 1.6362 4.51081C1.74935 4.4891 1.86664 4.50024 1.97323 4.54282C2.07982 4.58539 2.17093 4.65749 2.23502 4.74999C2.29912 4.84249 2.33333 4.95125 2.33333 5.0625C2.33333 5.21168 2.27188 5.35476 2.16248 5.46024C2.05308 5.56573 1.90471 5.625 1.75 5.625ZM15.75 4.5H20.4167C20.5714 4.5 20.7198 4.44073 20.8291 4.33525C20.9385 4.22976 21 4.08668 21 3.9375C21 3.78831 20.9385 3.64524 20.8291 3.53975C20.7198 3.43426 20.5714 3.375 20.4167 3.375H15.75C15.5953 3.375 15.4469 3.43426 15.3375 3.53975C15.2281 3.64524 15.1667 3.78831 15.1667 3.9375C15.1667 4.08668 15.2281 4.22976 15.3375 4.33525C15.4469 4.44073 15.5953 4.5 15.75 4.5ZM7 12.9375C7 12.7883 6.93854 12.6452 6.82915 12.5397C6.71975 12.4343 6.57138 12.375 6.41667 12.375H5.25C4.78587 12.375 4.34075 12.1972 4.01256 11.8807C3.68438 11.5643 3.5 11.135 3.5 10.6875V9.5625C3.5 9.11494 3.68438 8.68572 4.01256 8.36925C4.34075 8.05279 4.78587 7.875 5.25 7.875H6.41667C6.57138 7.875 6.71975 7.81573 6.82915 7.71024C6.93854 7.60475 7 7.46168 7 7.3125C7 7.16331 6.93854 7.02024 6.82915 6.91475C6.71975 6.80926 6.57138 6.75 6.41667 6.75H5.25C4.47645 6.75 3.73459 7.04631 3.18761 7.57376C2.64062 8.1012 2.33333 8.81657 2.33333 9.5625V10.6875C2.33333 11.0568 2.40878 11.4226 2.55535 11.7638C2.70193 12.105 2.91677 12.4151 3.18761 12.6762C3.73459 13.2037 4.47645 13.5 5.25 13.5H6.41667C6.57138 13.5 6.71975 13.4407 6.82915 13.3352C6.93854 13.2298 7 13.0867 7 12.9375ZM20.4167 7.875H15.75C15.5953 7.875 15.4469 7.93426 15.3375 8.03975C15.2281 8.14524 15.1667 8.28831 15.1667 8.4375C15.1667 8.58668 15.2281 8.72975 15.3375 8.83524C15.4469 8.94073 15.5953 9 15.75 9H20.4167C20.5714 9 20.7198 8.94073 20.8291 8.83524C20.9385 8.72975 21 8.58668 21 8.4375C21 8.28831 20.9385 8.14524 20.8291 8.03975C20.7198 7.93426 20.5714 7.875 20.4167 7.875ZM20.4167 12.375H15.75C15.5953 12.375 15.4469 12.4343 15.3375 12.5397C15.2281 12.6452 15.1667 12.7883 15.1667 12.9375C15.1667 13.0867 15.2281 13.2298 15.3375 13.3352C15.4469 13.4407 15.5953 13.5 15.75 13.5H20.4167C20.5714 13.5 20.7198 13.4407 20.8291 13.3352C20.9385 13.2298 21 13.0867 21 12.9375C21 12.7883 20.9385 12.6452 20.8291 12.5397C20.7198 12.4343 20.5714 12.375 20.4167 12.375ZM15.75 11.25H18.0833C18.238 11.25 18.3864 11.1907 18.4958 11.0852C18.6052 10.9798 18.6667 10.8367 18.6667 10.6875C18.6667 10.5383 18.6052 10.3952 18.4958 10.2897C18.3864 10.1843 18.238 10.125 18.0833 10.125H15.75C15.5953 10.125 15.4469 10.1843 15.3375 10.2897C15.2281 10.3952 15.1667 10.5383 15.1667 10.6875C15.1667 10.8367 15.2281 10.9798 15.3375 11.0852C15.4469 11.1907 15.5953 11.25 15.75 11.25ZM14 17.7525V2.8125C14 2.06658 13.6927 1.35121 13.1457 0.823762C12.5987 0.296316 11.8569 0 11.0833 0C10.3098 0 9.56792 0.296316 9.02094 0.823762C8.47396 1.35121 8.16667 2.06658 8.16667 2.8125V17.7525C7.26673 18.3334 6.57513 19.1685 6.18664 20.1433C5.79816 21.1181 5.7318 22.1849 5.99667 23.1975C6.22757 24.0876 6.7077 24.8994 7.38461 25.5442C8.06152 26.189 8.90919 26.642 9.835 26.8537C10.2439 26.9484 10.6628 26.9975 11.0833 27C12.2076 27.0025 13.3029 26.6562 14.2073 26.0123C15.1117 25.3683 15.7773 24.4608 16.1056 23.4239C16.434 22.3871 16.4077 21.2759 16.0306 20.2545C15.6535 19.2332 14.9456 18.356 14.0117 17.7525H14Z" fill="#0B83A5"/>
<path d="M10.111 23.3406C10.3988 23.526 10.7372 23.625 11.0833 23.625C11.5474 23.625 11.9925 23.4472 12.3207 23.1307C12.6489 22.8143 12.8333 22.385 12.8333 21.9375C12.8333 21.6037 12.7307 21.2775 12.5384 21C12.3461 20.7225 12.0728 20.5062 11.753 20.3784C11.4332 20.2507 11.0814 20.2173 10.7419 20.2824C10.4024 20.3475 10.0906 20.5082 9.84586 20.7442C9.60112 20.9803 9.43444 21.2809 9.36692 21.6083C9.2994 21.9356 9.33405 22.2749 9.46651 22.5833C9.59896 22.8916 9.82326 23.1552 10.111 23.3406Z" fill="white"/>
</svg>
