<svg width="166" height="163" viewBox="0 0 166 163" fill="none" xmlns="http://www.w3.org/2000/svg">
<path d="M114.891 105.961C113.739 105.839 111.766 106.367 111.354 107.421C110.984 108.476 112.341 109.896 112.341 109.896C112.835 110.464 112.999 110.626 113.986 110.22C114.973 109.774 116.001 109.287 116.206 108.476C116.371 107.624 116.042 106.083 114.891 105.961Z" fill="#1C1C1D"/>
<path d="M114.356 107.665C114.849 108.801 114.479 110.018 113.534 110.423C112.629 110.788 111.478 110.18 110.984 109.044C110.491 107.908 110.861 106.691 111.807 106.286C112.752 105.88 113.904 106.529 114.356 107.665Z" fill="#42423F"/>
<path d="M113.082 108.232C113.205 108.557 113.123 108.922 112.835 109.044C112.547 109.165 112.218 108.963 112.095 108.638C111.972 108.314 112.054 107.948 112.342 107.827C112.63 107.705 112.959 107.908 113.082 108.232Z" fill="#1C1C1D"/>
<path d="M110.82 106.691C110.82 106.691 114.398 108.517 114.685 108.557C114.973 108.638 115.508 108.395 116.536 107.746C116.536 107.746 116.782 105.231 114.521 104.784C112.301 104.338 111.149 105.677 110.82 106.691Z" fill="#7F98B9"/>
<path d="M114.727 108.557C114.809 107.584 114.562 106.569 113.699 106.002C112.753 105.393 111.56 105.555 110.944 106.367C110.903 106.448 110.861 106.569 110.82 106.651C110.82 106.691 114.439 108.476 114.727 108.557Z" fill="#9CA9B2"/>
<path opacity="0.4" d="M114.521 104.784C112.918 104.46 111.89 105.068 111.314 105.799C111.972 105.393 112.835 105.312 113.575 105.717C114.645 106.285 115.015 107.462 114.932 108.557C115.261 108.516 115.755 108.233 116.536 107.746C116.536 107.746 116.783 105.231 114.521 104.784Z" fill="#1D1C1A"/>
<path d="M112.958 103.486L112.999 105.312C112.999 105.312 113.616 105.961 114.685 105.19L114.562 103.202L112.958 103.486Z" fill="#7F98B9"/>
<path opacity="0.3" d="M114.562 103.202L112.958 103.486V104.46C113.04 104.257 113.04 104.176 113.205 104.217C113.821 104.338 113.986 104.135 113.986 104.46C113.986 104.582 113.986 105.19 113.986 105.352C113.945 105.555 113.78 105.515 113.575 105.596C113.863 105.596 114.192 105.515 114.644 105.231L114.562 103.202Z" fill="#1D1C1A"/>
<path opacity="0.4" d="M114.644 104.379L114.562 103.202L112.958 103.486V104.379C113.493 104.663 114.068 104.622 114.644 104.379Z" fill="#32394B"/>
<path d="M112.135 99.7542L112.423 103.649C112.423 103.649 113.698 104.784 115.055 103.446L114.973 99.6731L112.135 99.7542Z" fill="#4A5B6A"/>
<path opacity="0.6" d="M113.657 99.7136L112.588 99.7542C112.67 101.133 112.793 102.513 112.835 103.892C113.081 104.014 113.41 104.135 113.821 104.095C113.78 102.634 113.739 101.174 113.657 99.7136Z" fill="#9CA9B2"/>
<path opacity="0.4" d="M115.014 101.661L114.973 99.6731L112.135 99.7948L112.259 101.58C113.081 101.985 114.068 101.945 115.014 101.661Z" fill="#32394B"/>
<path d="M94.208 107.827C93.0567 107.705 91.083 108.232 90.6719 109.287C90.3018 110.342 91.6587 111.762 91.6587 111.762C92.1521 112.33 92.3166 112.492 93.3034 112.086C94.2902 111.64 95.3182 111.153 95.5238 110.342C95.6882 109.449 95.4004 107.908 94.208 107.827Z" fill="#1C1C1D"/>
<path d="M93.7149 109.49C94.2083 110.626 93.8382 111.843 92.8925 112.248C91.9879 112.613 90.8366 112.005 90.3432 110.869C89.8498 109.733 90.2199 108.516 91.1656 108.111C92.0702 107.746 93.2215 108.354 93.7149 109.49Z" fill="#42423F"/>
<path d="M92.4398 110.058C92.5632 110.382 92.4809 110.748 92.1931 110.869C91.9053 110.991 91.5763 110.788 91.453 110.464C91.3296 110.139 91.4118 109.774 91.6997 109.652C91.9464 109.571 92.2753 109.733 92.4398 110.058Z" fill="#1C1C1D"/>
<path d="M90.1787 108.516C90.1787 108.516 93.756 110.342 94.0438 110.382C94.3316 110.464 94.8662 110.22 95.8941 109.571C95.8941 109.571 96.1408 107.056 93.8793 106.61C91.6178 106.164 90.4665 107.543 90.1787 108.516Z" fill="#7F98B9"/>
<path d="M94.0849 110.382C94.1671 109.409 93.9204 108.395 93.057 107.827C92.1113 107.218 90.9188 107.381 90.3021 108.192C90.2609 108.273 90.2198 108.395 90.1787 108.476C90.1787 108.516 93.756 110.301 94.0849 110.382C94.0438 110.382 94.0438 110.382 94.0849 110.382Z" fill="#9CA9B2"/>
<path opacity="0.4" d="M93.8796 106.61C92.276 106.285 91.248 106.894 90.6724 107.624C91.3302 107.218 92.1937 107.137 92.9338 107.543C94.0029 108.111 94.373 109.287 94.2907 110.382C94.6197 110.342 95.1131 110.058 95.8943 109.571C95.8532 109.571 96.0999 107.056 93.8796 106.61Z" fill="#1D1C1A"/>
<path d="M92.2759 105.312L92.317 107.137C92.317 107.137 92.9338 107.786 94.0028 107.015L93.8795 105.028L92.2759 105.312Z" fill="#7F98B9"/>
<path opacity="0.3" d="M93.8795 105.028L92.2759 105.312V106.285C92.3581 106.082 92.3581 106.001 92.5226 106.042C93.1394 106.163 93.3038 105.961 93.3038 106.285C93.3038 106.407 93.3038 107.015 93.3038 107.178C93.2627 107.38 93.0982 107.34 92.8926 107.421C93.1805 107.421 93.5094 107.34 93.9617 107.056L93.8795 105.028Z" fill="#1D1C1A"/>
<path opacity="0.4" d="M93.9617 106.204L93.8795 105.028L92.2759 105.312V106.204C92.8104 106.488 93.3861 106.447 93.9617 106.204Z" fill="#32394B"/>
<path d="M91.4944 101.58L91.7822 105.474C91.7822 105.474 93.0569 106.61 94.4138 105.271L94.3315 101.499L91.4944 101.58Z" fill="#4A5B6A"/>
<path opacity="0.6" d="M92.9748 101.539L91.9058 101.58C91.988 102.959 92.1114 104.338 92.1525 105.717C92.3992 105.839 92.7281 105.961 93.1393 105.92C93.0982 104.46 93.0571 102.999 92.9748 101.539Z" fill="#9CA9B2"/>
<path opacity="0.4" d="M94.3314 103.486L94.2903 101.499L91.4531 101.62L91.5765 103.405C92.3988 103.811 93.3857 103.77 94.3314 103.486Z" fill="#32394B"/>
<path d="M100.828 111.032C99.6768 110.91 97.7032 111.437 97.292 112.492C96.9219 113.547 98.2788 114.967 98.2788 114.967C98.7722 115.535 98.9367 115.697 99.9235 115.291C100.91 114.845 101.938 114.358 102.144 113.547C102.308 112.695 101.979 111.153 100.828 111.032Z" fill="#1C1C1D"/>
<path d="M100.293 112.736C100.787 113.872 100.417 115.088 99.4711 115.494C98.5665 115.859 97.4152 115.251 96.9218 114.115C96.4284 112.979 96.7985 111.762 97.7442 111.356C98.6899 110.991 99.8412 111.6 100.293 112.736Z" fill="#42423F"/>
<path d="M99.0189 113.303C99.1423 113.628 99.06 113.993 98.7722 114.115C98.4844 114.236 98.1554 114.034 98.0321 113.709C97.9087 113.385 97.991 113.019 98.2788 112.898C98.5666 112.776 98.8955 112.979 99.0189 113.303Z" fill="#1C1C1D"/>
<path d="M96.7573 111.762C96.7573 111.762 100.335 113.587 100.622 113.628C100.91 113.709 101.445 113.466 102.473 112.817C102.473 112.817 102.719 110.302 100.458 109.855C98.2376 109.409 97.0863 110.748 96.7573 111.762Z" fill="#7F98B9"/>
<path d="M100.664 113.628C100.746 112.654 100.499 111.64 99.6356 111.072C98.6899 110.464 97.4974 110.626 96.8807 111.437C96.8396 111.518 96.7984 111.64 96.7573 111.721C96.7573 111.762 100.376 113.547 100.664 113.628Z" fill="#9CA9B2"/>
<path opacity="0.4" d="M100.458 109.855C98.8546 109.531 97.8266 110.139 97.251 110.87C97.9089 110.464 98.7723 110.383 99.5125 110.788C100.582 111.356 100.952 112.533 100.869 113.628C101.198 113.588 101.692 113.304 102.473 112.817C102.473 112.817 102.72 110.302 100.458 109.855Z" fill="#1D1C1A"/>
<path d="M98.8955 108.557L98.9366 110.383C98.9366 110.383 99.5534 111.032 100.622 110.261L100.499 108.273L98.8955 108.557Z" fill="#7F98B9"/>
<path opacity="0.3" d="M100.499 108.273L98.8955 108.557V109.531C98.9777 109.328 98.9777 109.247 99.1422 109.288C99.759 109.409 99.9235 109.206 99.9235 109.531C99.9235 109.653 99.9235 110.261 99.9235 110.423C99.8823 110.626 99.7179 110.586 99.5123 110.667C99.8001 110.667 100.129 110.586 100.581 110.302L100.499 108.273Z" fill="#1D1C1A"/>
<path opacity="0.4" d="M100.581 109.45L100.499 108.273L98.8955 108.557V109.45C99.43 109.734 100.006 109.693 100.581 109.45Z" fill="#32394B"/>
<path d="M98.0732 104.825L98.3611 108.719C98.3611 108.719 99.6357 109.855 100.993 108.517L100.91 104.744L98.0732 104.825Z" fill="#4A5B6A"/>
<path opacity="0.6" d="M99.5949 104.785L98.5259 104.825C98.6081 106.204 98.7315 107.584 98.7726 108.963C99.0193 109.085 99.3482 109.206 99.7594 109.166C99.7183 107.705 99.6772 106.245 99.5949 104.785Z" fill="#9CA9B2"/>
<path opacity="0.4" d="M100.951 106.732L100.91 104.744L98.0732 104.866L98.1966 106.651C99.019 107.056 100.006 107.016 100.951 106.732Z" fill="#32394B"/>
<path d="M108.27 102.716C107.119 102.594 105.146 103.121 104.734 104.176C104.364 105.231 105.721 106.65 105.721 106.65C106.215 107.218 106.379 107.381 107.366 106.975C108.353 106.529 109.381 106.042 109.586 105.231C109.751 104.379 109.463 102.837 108.27 102.716Z" fill="#1C1C1D"/>
<path d="M107.777 104.42C108.271 105.555 107.901 106.772 106.955 107.178C106.05 107.543 104.899 106.935 104.406 105.799C103.912 104.663 104.282 103.446 105.228 103.04C106.133 102.675 107.284 103.284 107.777 104.42Z" fill="#42423F"/>
<path d="M106.502 104.987C106.626 105.312 106.543 105.677 106.256 105.799C105.968 105.921 105.639 105.718 105.515 105.393C105.392 105.069 105.474 104.704 105.762 104.582C106.009 104.46 106.338 104.663 106.502 104.987Z" fill="#1C1C1D"/>
<path d="M104.241 103.446C104.241 103.446 107.818 105.271 108.106 105.312C108.394 105.393 108.928 105.15 109.956 104.5C109.956 104.5 110.203 101.985 107.941 101.539C105.68 101.093 104.529 102.472 104.241 103.446Z" fill="#7F98B9"/>
<path d="M108.147 105.312C108.229 104.338 107.982 103.324 107.119 102.756C106.173 102.148 104.981 102.31 104.364 103.121C104.323 103.203 104.282 103.324 104.241 103.405C104.241 103.446 107.818 105.231 108.147 105.312C108.106 105.312 108.106 105.312 108.147 105.312Z" fill="#9CA9B2"/>
<path opacity="0.4" d="M107.942 101.539C106.338 101.215 105.31 101.823 104.734 102.553C105.392 102.148 106.256 102.067 106.996 102.472C108.065 103.04 108.435 104.217 108.353 105.312C108.682 105.271 109.175 104.987 109.956 104.501C109.915 104.501 110.162 101.986 107.942 101.539Z" fill="#1D1C1A"/>
<path d="M106.338 100.241L106.379 102.067C106.379 102.067 106.996 102.716 108.065 101.945L107.942 99.9573L106.338 100.241Z" fill="#7F98B9"/>
<path opacity="0.3" d="M107.942 99.9573L106.338 100.241V101.215C106.421 101.012 106.421 100.931 106.585 100.971C107.202 101.093 107.366 100.89 107.366 101.215C107.366 101.337 107.366 101.945 107.366 102.107C107.325 102.31 107.161 102.27 106.955 102.351C107.243 102.351 107.572 102.27 108.024 101.986L107.942 99.9573Z" fill="#1D1C1A"/>
<path opacity="0.4" d="M108.024 101.134L107.942 99.9573L106.338 100.241V101.134C106.873 101.418 107.449 101.377 108.024 101.134Z" fill="#32394B"/>
<path d="M105.557 96.5092L105.845 100.404C105.845 100.404 107.12 101.539 108.477 100.201L108.394 96.4281L105.557 96.5092Z" fill="#4A5B6A"/>
<path opacity="0.6" d="M107.037 96.4688L105.968 96.5093C106.05 97.8886 106.174 99.2678 106.215 100.647C106.462 100.769 106.791 100.89 107.202 100.85C107.161 99.3895 107.12 97.9291 107.037 96.4688Z" fill="#9CA9B2"/>
<path opacity="0.4" d="M108.394 98.4158L108.353 96.4281L105.516 96.5498L105.639 98.3347C106.462 98.7404 107.448 98.6998 108.394 98.4158Z" fill="#32394B"/>
<path d="M115.178 101.134V97.1987H108.558C107.777 96.8336 107.202 96.5497 107.202 96.5497C107.202 96.5497 105.433 95.6572 104.2 96.3468L101.692 97.1581H91.5356L91.5768 101.174C91.4945 101.539 91.659 101.945 92.3991 102.472L98.8546 105.92C98.8546 105.92 100.047 106.813 101.568 106.407L113.575 102.553C113.534 102.553 115.631 102.148 115.178 101.134Z" fill="#9CA9B2"/>
<path d="M102.267 96.9958L101.774 97.1581H98.772V105.839L98.8542 105.88C98.8542 105.88 100.047 106.772 101.568 106.367L102.267 106.123V96.9958Z" fill="#9CA9B2"/>
<path d="M104.2 92.047L92.8514 95.7791C92.8514 95.7791 90.1787 96.7121 92.3169 98.1319L98.7724 101.58C98.7724 101.58 99.9648 102.472 101.486 102.067L113.493 98.213C113.493 98.213 115.877 97.7262 114.973 96.5498C114.068 95.3734 107.16 92.2093 107.16 92.2093C107.16 92.2093 105.433 91.3574 104.2 92.047Z" fill="#C8D4DB"/>
<path opacity="0.4" d="M114.973 96.59C114.068 95.4136 107.16 92.2495 107.16 92.2495C107.16 92.2495 105.392 91.357 104.159 92.0467L92.8103 95.7787C92.8103 95.7787 92.6869 95.8193 92.5225 95.9004C94.0438 95.657 95.5652 95.1297 97.0454 94.724C98.3201 94.3995 99.9648 93.8315 101.239 94.3995C101.322 94.44 101.322 94.5212 101.281 94.6023C100.787 95.0891 99.9237 95.7787 99.9648 96.5495C100.006 97.4825 101.034 97.8476 101.815 97.8881C103.254 98.0504 104.734 97.7259 106.132 97.4419C108.805 96.874 111.683 96.6712 113.986 98.1315C114.603 97.9287 115.631 97.4419 114.973 96.59Z" fill="#9CA9B2"/>
<path d="M101.321 69.127V96.1032C101.938 97.0363 103.665 96.9957 104.652 96.2655V69.0864H101.321V69.127Z" fill="#9CA9B2"/>
<path opacity="0.4" d="M101.321 69.1272V96.1034C101.527 96.428 101.897 96.6308 102.308 96.7525V69.1272H101.321Z" fill="#32394B"/>
<path opacity="0.4" d="M103.542 69.127V96.7523C103.953 96.6712 104.323 96.5089 104.611 96.2655V69.0864H103.542V69.127Z" fill="#32394B"/>
<path d="M111.724 67.9101C111.724 69.2082 110.655 70.2629 109.339 70.2629H96.0582C94.7424 70.2629 93.6733 69.2082 93.6733 67.9101V58.1744C93.6733 56.8762 94.7424 55.8215 96.0582 55.8215H109.339C110.655 55.8215 111.724 56.8762 111.724 58.1744V67.9101Z" fill="#7E7F80"/>
<path d="M111.724 61.3385V58.1744C111.724 56.8762 110.655 55.8215 109.339 55.8215H96.0582C94.7424 55.8215 93.6733 56.8762 93.6733 58.1744V61.3385H111.724Z" fill="#7E7F80"/>
<path d="M103.964 1.91551L96.0762 11.4291L96.9355 12.1225L104.823 2.60893L103.964 1.91551Z" fill="#C7C5C4"/>
<path d="M103.048 3.12644C103.172 3.49153 103.336 3.81605 103.583 4.05945L104.817 2.55851L103.953 1.8689L103.007 3.00474C103.048 3.0453 103.048 3.08587 103.048 3.12644Z" fill="#C7C5C4"/>
<path d="M99.718 7.02112L96.0996 11.4022L96.9631 12.0918L101.157 7.02112C100.664 7.02112 100.17 7.02112 99.718 7.02112Z" fill="#C7C5C4"/>
<path d="M106.507 2.50245L104.863 2.55908L106.418 46.506L108.062 46.4494L106.507 2.50245Z" fill="#C7C5C4"/>
<path d="M108.023 46.4507H107.119L105.762 2.07178L106.461 2.518L108.023 46.4507Z" fill="#919192"/>
<path d="M106.544 4.22183L106.503 2.51807L104.858 2.55863L104.94 4.34353C105.434 4.46522 106.009 4.38409 106.544 4.22183Z" fill="#C7C5C4"/>
<path d="M107.243 2.07191C107.201 1.34172 107.078 0.814368 106.544 0.287012C106.338 0.0841834 106.009 0.00305176 105.721 0.00305176C104.858 0.00305176 103.912 0.0841832 103.419 0.895499C102.884 1.74738 103.254 3.77567 104.488 3.77567C105.146 3.77567 105.803 3.8568 106.42 3.57284C107.037 3.28888 107.284 2.68039 107.243 2.07191Z" fill="#ECECEC"/>
<path opacity="0.3" d="M107.242 2.07191C107.201 1.34173 107.078 0.814374 106.543 0.287018C106.379 0.124755 106.173 0.0436236 105.927 0.00305782C105.063 -0.037508 104.57 0.327584 104.282 0.976637C104.076 1.46343 104.117 1.90965 103.912 2.39644C103.871 2.51814 103.665 2.59927 103.542 2.47757C103.131 2.07191 103.172 1.34173 103.418 0.85494C102.884 1.70682 103.254 3.73511 104.487 3.73511C105.145 3.73511 105.803 3.81624 106.42 3.53228C107.037 3.28889 107.283 2.6804 107.242 2.07191Z" fill="#C7C5C4"/>
<path d="M107.243 2.07191C107.201 1.42286 107.037 0.449278 106.338 0.205883C106.091 0.124752 105.721 0.0841858 105.475 0.165317C104.734 0.368146 104.282 1.22003 104.241 1.95021C104.241 2.39644 104.364 2.84266 104.611 3.20775C105.022 3.8568 105.762 3.8568 106.461 3.57284C107.037 3.28888 107.284 2.6804 107.243 2.07191Z" fill="#C7C5C4"/>
<path d="M106.461 2.55869C106.338 2.88321 105.927 3.00491 105.68 2.68038C105.475 2.43699 105.516 1.99077 105.598 1.7068C105.639 1.54454 105.721 1.38228 105.886 1.30115C106.174 1.17945 106.379 1.38228 106.461 1.62567C106.544 1.9502 106.585 2.27473 106.461 2.55869Z" fill="#B3B2B3"/>
<path d="M106.461 1.66613C106.379 1.42273 106.173 1.17934 105.886 1.3416C105.844 1.3416 105.844 1.38217 105.803 1.42273C105.886 1.42273 106.009 1.4633 106.091 1.50386C106.338 1.74726 106.338 2.19348 106.256 2.51801C106.173 2.7614 105.844 2.8831 105.68 2.68027C105.68 2.72084 105.721 2.72084 105.721 2.7614C105.927 3.04536 106.379 2.92367 106.502 2.63971C106.585 2.27461 106.543 1.95009 106.461 1.66613Z" fill="#9A9A99"/>
<path d="M103.378 7.58904C103.378 7.58904 104.57 7.46734 104.57 8.64375C104.611 9.82016 103.995 27.7502 103.995 27.7502C103.995 27.7502 104.2 29.6163 103.09 29.6568L78.9537 29.2106C78.9537 29.2106 76.8978 29.3729 76.7333 27.7097C76.61 26.6144 76.6511 8.07583 76.6511 8.07583C76.6511 8.07583 76.7333 7.22395 78.1314 7.02112L103.378 7.58904Z" fill="#939291"/>
<path d="M104.282 19.7183C104.159 23.9371 104.035 27.7503 104.035 27.7503C104.035 27.7503 104.241 29.6163 103.131 29.6569L78.9945 29.2107C78.9945 29.2107 76.9386 29.3729 76.7741 27.7097C76.733 27.2635 76.6919 23.6937 76.6919 19.7588H104.282V19.7183Z" fill="#575857"/>
<path d="M101.856 9.17103L104.282 7.87292C104.447 8.03519 104.57 8.27858 104.57 8.64367C104.611 9.82008 103.994 27.7502 103.994 27.7502C103.994 27.7502 104.118 29.0077 103.583 29.4539L101.116 27.7907L101.856 9.17103Z" fill="#ADACAA"/>
<path d="M76.6511 8.03515C76.6511 8.03515 76.6922 7.58893 77.2679 7.2644L77.6791 8.48138L77.9669 27.7907C77.9669 27.7907 77.5146 28.2369 77.1445 28.6426C76.9389 28.4397 76.7745 28.1152 76.7333 27.7096C76.61 26.5737 76.6511 8.03515 76.6511 8.03515Z" fill="#6B6C6B"/>
<path d="M101.609 9.37391C101.609 9.37391 102.678 9.29278 102.678 10.3475C102.72 11.4022 102.185 27.4663 102.185 27.4663C102.185 27.4663 102.349 29.1295 101.363 29.17L79.7346 28.7644C79.7346 28.7644 77.8843 28.8861 77.7609 27.3851C77.6787 26.4115 77.6787 9.77957 77.6787 9.77957C77.6787 9.77957 77.7198 9.00882 78.9945 8.84656L101.609 9.37391Z" fill="#7E7E7E"/>
<path opacity="0.4" d="M77.8021 21.5032C78.7478 22.2334 79.8168 22.8013 80.8859 23.3287C83.3119 24.4239 85.9845 25.0324 88.6983 25.1136C90.7131 25.1947 92.769 25.073 94.7838 24.7485C97.3331 24.3834 100.129 23.6938 102.349 22.274C102.267 25.1541 102.185 27.4258 102.185 27.4258C102.185 27.4258 102.349 29.089 101.363 29.1296L79.7346 28.7239C79.7346 28.7239 77.8843 28.8456 77.7609 27.3447C77.7198 26.9796 77.7198 24.4239 77.6787 21.3409C77.7198 21.4221 77.7609 21.4626 77.8021 21.5032Z" fill="#7E7E7E"/>
<path d="M103.459 7.91346C104.035 8.03515 104.241 8.48138 104.282 8.8059C104.323 8.96817 104.364 9.21156 104.364 9.53609C104.364 10.6719 103.829 27.8718 103.829 27.8718C103.829 27.8718 103.829 29.0482 103.459 29.0482C103.459 29.0482 103.665 28.6831 103.665 27.4662C103.665 26.2898 104.035 9.82005 104.035 9.82005C104.035 9.82005 103.994 9.21156 103.871 8.84647C103.829 8.76534 103.788 8.68421 103.706 8.64364C103.706 8.64364 103.706 8.64364 103.665 8.64364C103.583 8.60308 103.583 8.60307 103.583 8.56251C103.213 8.23798 102.637 8.23798 102.637 8.23798L77.9663 7.2644C77.9663 7.2644 102.555 7.71063 103.459 7.91346Z" fill="white"/>
<path d="M77.9663 26.0057C77.9663 26.0057 77.9663 12.4973 77.9663 10.8747C77.9663 9.25206 79.1176 9.45489 79.1176 9.45489L100.458 9.94168C100.458 9.94168 102.349 9.53602 102.061 11.5237L101.774 26.4925C101.774 26.4925 101.732 28.5614 100.417 28.4802L79.1998 28.1152C79.1587 28.1557 77.9663 27.9935 77.9663 26.0057Z" fill="#221F1F"/>
<path d="M77.9663 26.0057C77.9663 26.0057 77.9663 12.4973 77.9663 10.8747C77.9663 9.25206 79.1176 9.45489 79.1176 9.45489L100.458 9.94168C100.458 9.94168 102.349 9.53602 102.061 11.5237L101.774 26.4925C101.774 26.4925 101.732 28.5614 100.417 28.4802L79.1998 28.1152C79.1587 28.1557 77.9663 27.9935 77.9663 26.0057Z" fill="black"/>
<path d="M78.6245 25.1132C78.6245 25.1132 78.6245 12.3755 78.6245 10.834C78.6245 9.29255 79.6936 9.49538 79.6936 9.49538L99.8414 9.98216C99.8414 9.98216 101.609 9.57651 101.322 11.4831L101.034 25.6406C101.034 25.6406 100.993 27.6283 99.7591 27.5471L79.6936 27.1821C79.7758 27.1415 78.6245 26.9792 78.6245 25.1132Z" fill="#2D282A"/>
<path opacity="0.9" d="M101.116 15.2559C100.869 14.7285 100.581 14.2012 100.252 13.7144C99.9645 13.3087 99.6767 13.0248 99.2244 12.7814C98.3609 12.3352 97.3741 12.0918 96.3873 11.9295C95.3182 11.7672 94.2491 11.6861 93.1801 11.6455C92.111 11.605 91.0419 11.605 90.014 11.5644C88.5749 11.5238 87.1357 11.4427 85.7377 11.4427C84.3808 11.4427 82.9828 11.5238 81.7082 11.8484C80.8447 12.0918 80.1046 12.538 79.6112 13.2276C79.0355 13.9984 78.7066 14.8908 78.501 15.7832C78.501 12.9842 78.501 10.7531 78.501 10.7531C78.501 10.7531 78.5421 10.0635 79.7345 9.94177L100.499 10.4286C100.499 10.4286 101.486 10.3474 101.486 11.2804C101.486 11.605 101.445 13.4304 101.363 15.7021C101.239 15.5399 101.198 15.4182 101.116 15.2559Z" fill="url(#paint0_linear_44_5469)"/>
<path d="M112.259 57.7281C112.259 59.2695 110.984 60.5271 109.422 60.5271H93.6736C92.1111 60.5271 90.8364 59.2695 90.8364 57.7281V46.2074C90.8364 44.6659 92.1111 43.4083 93.6736 43.4083H109.422C110.984 43.4083 112.259 44.6659 112.259 46.2074V57.7281Z" fill="#C7C5C4"/>
<path d="M92.1933 43.8545C91.371 44.3413 90.8364 45.2337 90.8364 46.2073V57.728C90.8364 58.7421 91.371 59.594 92.1933 60.0808V43.8545Z" fill="#C7C5C4"/>
<path d="M99.3479 43.4083H96.0996V60.5271H99.3479V43.4083Z" fill="#C7C5C4"/>
<path d="M109.463 43.4083H107.982V60.5271H109.422C110.984 60.5271 112.259 59.2695 112.259 57.7281V46.2074C112.259 44.6659 111.025 43.4083 109.463 43.4083Z" fill="#C7C5C4"/>
<path d="M113.205 44.9905C113.205 45.8829 111.93 46.5725 110.368 46.5725H92.4402C90.8777 46.5725 89.603 45.8424 89.603 44.9905V44.4226C89.603 43.5301 90.8777 42.7999 92.4402 42.7999H110.368C111.93 42.7999 113.205 43.5301 113.205 44.4226V44.9905Z" fill="#7E7F80"/>
<path d="M113.205 44.1386C113.205 45.0311 111.93 45.7207 110.368 45.7207H92.4402C90.8777 45.7207 89.603 44.9905 89.603 44.1386V43.5707C89.603 42.6783 90.8777 41.9886 92.4402 41.9886H110.368C111.93 41.9886 113.205 42.7188 113.205 43.5707V44.1386Z" fill="#C7C5C4"/>
<path d="M112.259 44.1791C112.259 44.9093 111.067 45.4772 109.627 45.4772H92.8513C91.371 45.4772 90.2197 44.9093 90.2197 44.1791V43.7329C90.2197 43.0027 91.4121 42.4348 92.8513 42.4348H109.627C111.108 42.4348 112.259 43.0027 112.259 43.7329V44.1791Z" fill="#4C7A8F"/>
<path d="M112.259 44.0574C112.259 44.7471 111.067 45.2744 109.627 45.2744H92.8513C91.371 45.2744 90.2197 44.7471 90.2197 44.0574V43.6518C90.2197 42.9622 91.4121 42.4348 92.8513 42.4348H109.627C111.108 42.4348 112.259 42.9622 112.259 43.6518V44.0574Z" fill="#6EACCB"/>
<path d="M94.0437 43.165C93.9203 43.1244 93.7559 43.0839 93.5503 43.0839C93.3447 43.0839 93.1802 43.1244 93.0569 43.165H92.769V43.4084C92.769 43.5706 93.1391 43.7329 93.5503 43.7329C93.9615 43.7329 94.3315 43.5706 94.3315 43.4084V43.165H94.0437Z" fill="#E4E0CF"/>
<path d="M94.3315 43.165C94.3315 43.3272 93.9615 43.4895 93.5503 43.4895C93.1391 43.4895 92.769 43.3272 92.769 43.165C92.769 43.0027 93.1391 42.8405 93.5503 42.8405C93.9615 42.8405 94.3315 43.0027 94.3315 43.165Z" fill="#FFF2E7"/>
<path d="M94.0437 44.2605C93.9203 44.2199 93.7559 44.1793 93.5503 44.1793C93.3447 44.1793 93.1802 44.2199 93.0569 44.2605H92.769V44.5038C92.769 44.6661 93.1391 44.8284 93.5503 44.8284C93.9615 44.8284 94.3315 44.6661 94.3315 44.5038V44.2605H94.0437Z" fill="#E4E0CF"/>
<path d="M94.3315 44.2603C94.3315 44.4226 93.9615 44.5848 93.5503 44.5848C93.1391 44.5848 92.769 44.4226 92.769 44.2603C92.769 44.0981 93.1391 43.9358 93.5503 43.9358C93.9615 43.9358 94.3315 44.0981 94.3315 44.2603Z" fill="#FFF2E7"/>
<path d="M95.8533 43.165C95.7299 43.1244 95.5654 43.0839 95.3599 43.0839C95.1543 43.0839 94.9898 43.1244 94.8664 43.165H94.5786V43.4084C94.5786 43.5706 94.9076 43.7329 95.3599 43.7329C95.771 43.7329 96.1411 43.5706 96.1411 43.4084V43.165H95.8533Z" fill="#E4E0CF"/>
<path d="M96.1819 43.165C96.1819 43.3272 95.8118 43.4895 95.4006 43.4895C94.9894 43.4895 94.6194 43.3272 94.6194 43.165C94.6194 43.0027 94.9483 42.8405 95.4006 42.8405C95.8118 42.8405 96.1819 43.0027 96.1819 43.165Z" fill="#FFF2E7"/>
<path d="M95.8533 44.2605C95.7299 44.2199 95.5654 44.1793 95.3599 44.1793C95.1543 44.1793 94.9898 44.2199 94.8664 44.2605H94.5786V44.5038C94.5786 44.6661 94.9076 44.8284 95.3599 44.8284C95.771 44.8284 96.1411 44.6661 96.1411 44.5038V44.2605H95.8533Z" fill="#E4E0CF"/>
<path d="M96.1819 44.2603C96.1819 44.4226 95.8118 44.5848 95.4006 44.5848C94.9894 44.5848 94.6194 44.4226 94.6194 44.2603C94.6194 44.0981 94.9483 43.9358 95.4006 43.9358C95.8118 43.9358 96.1819 44.0981 96.1819 44.2603Z" fill="#FFF2E7"/>
<path d="M97.7854 43.165C97.662 43.1244 97.4976 43.0839 97.292 43.0839C97.1275 43.0839 96.9219 43.1244 96.7986 43.165H96.5107V43.4084C96.5107 43.5706 96.8808 43.7329 97.292 43.7329C97.7032 43.7329 98.0732 43.5706 98.0732 43.4084V43.165H97.7854Z" fill="#E4E0CF"/>
<path d="M98.0732 43.165C98.0732 43.3272 97.7032 43.4895 97.292 43.4895C96.8808 43.4895 96.5107 43.3272 96.5107 43.165C96.5107 43.0027 96.8808 42.8405 97.292 42.8405C97.7032 42.8405 98.0732 43.0027 98.0732 43.165Z" fill="#FFF2E7"/>
<path d="M97.7854 44.2605C97.662 44.2199 97.4976 44.1793 97.292 44.1793C97.1275 44.1793 96.9219 44.2199 96.7986 44.2605H96.5107V44.5038C96.5107 44.6661 96.8808 44.8284 97.292 44.8284C97.7032 44.8284 98.0732 44.6661 98.0732 44.5038V44.2605H97.7854Z" fill="#E4E0CF"/>
<path d="M98.0732 44.2603C98.0732 44.4226 97.7032 44.5848 97.292 44.5848C96.8808 44.5848 96.5107 44.4226 96.5107 44.2603C96.5107 44.0981 96.8808 43.9358 97.292 43.9358C97.7032 43.9358 98.0732 44.0981 98.0732 44.2603Z" fill="#FFF2E7"/>
<path d="M98.6899 44.2601V44.5441C98.6899 44.7064 98.9367 44.8281 99.2245 44.8281H109.915C110.203 44.8281 110.45 44.7064 110.45 44.5441V44.2601H98.6899Z" fill="#BBB9AC"/>
<path d="M110.45 44.2603C110.45 44.4225 110.203 44.5442 109.915 44.5442H99.2245C98.9367 44.5442 98.6899 44.4225 98.6899 44.2603C98.6899 44.098 98.9367 43.9763 99.2245 43.9763H109.915C110.203 43.9763 110.45 44.098 110.45 44.2603Z" fill="#FFF2E7"/>
<path d="M98.6899 43.165V43.449C98.6899 43.6113 98.9367 43.733 99.2245 43.733H109.915C110.203 43.733 110.45 43.6113 110.45 43.449V43.165H98.6899Z" fill="#BBB9AC"/>
<path d="M110.45 43.165C110.45 43.3273 110.203 43.449 109.915 43.449H99.2245C98.9367 43.449 98.6899 43.3273 98.6899 43.165C98.6899 43.0028 98.9367 42.8811 99.2245 42.8811H109.915C110.203 42.8405 110.45 43.0028 110.45 43.165Z" fill="#FFF2E7"/>
<path d="M100.293 25.7218C100.252 25.7218 100.252 25.7218 100.293 25.7218L94.249 25.4379C94.1257 25.4379 94.0435 25.3568 94.0435 25.2351C94.0435 25.1134 94.1257 25.0322 94.249 25.0322L100.293 25.3162C100.417 25.3162 100.499 25.3973 100.499 25.519C100.458 25.6407 100.376 25.7218 100.293 25.7218Z" fill="#C6E3EE"/>
<path d="M100.293 25.7218C100.252 25.7218 100.252 25.7218 100.293 25.7218L94.249 25.4379C94.1257 25.4379 94.0435 25.3568 94.0435 25.2351C94.0435 25.1134 94.1257 25.0322 94.249 25.0322L100.293 25.3162C100.417 25.3162 100.499 25.3973 100.499 25.519C100.458 25.6407 100.376 25.7218 100.293 25.7218Z" fill="#C6E3EE"/>
<path d="M100.293 26.7359C100.252 26.7359 100.252 26.7359 100.293 26.7359L94.249 26.4519C94.1257 26.4519 94.0435 26.3708 94.0435 26.2491C94.0435 26.1274 94.1257 26.0463 94.249 26.0463L100.293 26.3302C100.417 26.3302 100.499 26.4114 100.499 26.5331C100.458 26.6548 100.376 26.7359 100.293 26.7359Z" fill="#C6E3EE"/>
<path d="M107.86 42.1105V41.2992H106.215L106.256 42.1105H107.86Z" fill="#A3A3A3"/>
<path d="M92.1111 43.165C91.9877 43.1244 91.8233 43.0839 91.6177 43.0839C91.4532 43.0839 91.2476 43.1244 91.1242 43.165H90.8364V43.4084C90.8364 43.5706 91.2065 43.7329 91.6177 43.7329C92.0288 43.7329 92.3989 43.5706 92.3989 43.4084V43.165H92.1111Z" fill="#E4E0CF"/>
<path d="M92.4402 43.165C92.4402 43.3272 92.0701 43.4895 91.6589 43.4895C91.2478 43.4895 90.8777 43.3272 90.8777 43.165C90.8777 43.0027 91.2478 42.8405 91.6589 42.8405C92.0701 42.8405 92.4402 43.0027 92.4402 43.165Z" fill="#FFF2E7"/>
<path d="M92.1111 44.2605C91.9877 44.2199 91.8233 44.1793 91.6177 44.1793C91.4532 44.1793 91.2476 44.2199 91.1242 44.2605H90.8364V44.5038C90.8364 44.6661 91.2065 44.8284 91.6177 44.8284C92.0288 44.8284 92.3989 44.6661 92.3989 44.5038V44.2605H92.1111Z" fill="#E4E0CF"/>
<path d="M92.4402 44.2603C92.4402 44.4226 92.0701 44.5848 91.6589 44.5848C91.2478 44.5848 90.8777 44.4226 90.8777 44.2603C90.8777 44.0981 91.2478 43.9358 91.6589 43.9358C92.0701 43.9358 92.4402 44.0981 92.4402 44.2603Z" fill="#FFF2E7"/>
<path d="M60.574 56.5923C56.5444 57.7282 14.8508 66.0847 11.6848 67.2611C8.51869 68.4375 7.77857 69.7762 7.69633 71.8856C7.6141 74.0356 6.75062 92.3714 6.58615 95.9817C6.4628 99.5921 7.12068 99.9572 8.06639 100.566C10.5746 102.269 11.9315 101.377 14.0285 100.89C16.1255 100.363 57.1612 87.8686 60.944 86.7327C64.7269 85.5969 65.9193 83.8525 66.0015 81.7026C66.0838 79.5526 66.0015 62.5961 66.1249 59.797C66.166 57.8499 64.6035 55.4565 60.574 56.5923Z" fill="#505768"/>
<path d="M11.2321 72.4129C11.3143 70.2629 12.0544 68.9243 15.2205 67.7884C18.3866 66.612 57.3664 59.3102 61.3959 58.1743C63.6163 57.5253 65.0965 58.0121 65.96 58.8639C65.5488 57.2007 63.9041 55.7404 60.5325 56.6734C56.5029 57.8092 14.8093 66.1658 11.6433 67.3422C8.47719 68.5186 7.73706 69.8573 7.65483 71.9667C7.57259 74.1167 6.70912 92.4524 6.54465 96.0628C6.42129 99.6731 7.07918 100.038 8.02489 100.647C8.92948 101.255 9.66961 101.539 10.3275 101.62C10.0808 101.012 9.99855 100.038 10.0397 98.375C10.2041 94.7241 11.1499 74.5223 11.2321 72.4129Z" fill="#9CA9B2"/>
<path opacity="0.4" d="M11.2321 72.413C11.2732 71.8045 11.3554 71.2771 11.5199 70.7903C11.1499 70.6281 10.7798 70.5064 10.3686 70.3441C9.66961 70.1007 8.9706 69.8979 8.18936 69.6951C7.8193 70.3441 7.69595 71.0743 7.65483 71.9262C7.57259 74.0762 6.70912 92.4119 6.54465 96.0223C6.42129 99.6326 7.07918 99.9977 8.02489 100.606C8.92948 101.215 9.66961 101.499 10.3275 101.58C10.0808 100.971 9.99855 99.9977 10.0397 98.3345C10.2041 94.7242 11.1499 74.5224 11.2321 72.413Z" fill="#4A5B6A"/>
<path opacity="0.4" d="M16.8246 89.0451L16.29 100.282C26.8162 97.2394 52.2271 89.3696 59.9161 87.0573C60.0395 85.0291 60.574 77.6866 60.574 77.6866L16.8246 89.0451Z" fill="#32394B"/>
<path d="M12.5478 98.2128C12.5478 98.5779 12.3422 98.8213 12.1366 98.8213C11.931 98.8213 11.7254 98.5373 11.7665 98.1722C11.7665 97.8071 11.9721 97.5637 12.1777 97.5637C12.3833 97.5637 12.5478 97.8477 12.5478 98.2128Z" fill="#505156"/>
<path d="M64.4389 82.4326C64.4389 82.7977 64.2333 83.0411 64.0277 83.0411C63.8221 83.0411 63.6165 82.7571 63.6576 82.3921C63.6576 82.027 63.8632 81.7836 64.0688 81.7836C64.2744 81.7836 64.4389 82.0675 64.4389 82.4326Z" fill="#505156"/>
<path d="M102.267 154.924C100.17 154.762 96.6748 155.654 95.9758 157.52C95.2768 159.386 97.7439 161.942 97.7439 161.942C98.6073 162.956 98.8952 163.28 100.663 162.51C102.431 161.739 104.282 160.846 104.611 159.345C104.898 157.845 104.364 155.086 102.267 154.924Z" fill="#1C1C1D"/>
<path d="M101.321 157.885C102.185 159.913 101.527 162.104 99.8823 162.794C98.2376 163.483 96.1817 162.388 95.3593 160.36C94.4958 158.331 95.1537 156.141 96.7984 155.451C98.4432 154.762 100.458 155.857 101.321 157.885Z" fill="#42423F"/>
<path d="M99.0605 158.94C99.3072 159.548 99.1427 160.157 98.6493 160.36C98.1559 160.562 97.5803 160.238 97.3336 159.629C97.0869 159.021 97.2513 158.413 97.7447 158.21C98.2382 158.047 98.8138 158.331 99.0605 158.94Z" fill="#1C1C1D"/>
<path d="M95.0308 156.181C95.0308 156.181 101.445 159.427 101.939 159.548C102.432 159.67 103.419 159.264 105.228 158.088C105.228 158.088 105.639 153.585 101.651 152.774C97.6212 151.962 95.5653 154.396 95.0308 156.181Z" fill="#7F98B9"/>
<path d="M101.98 159.508C102.103 157.804 101.692 155.938 100.171 154.964C98.5258 153.91 96.3465 154.193 95.2364 155.654C95.1541 155.816 95.0719 156.019 95.0308 156.181C95.0308 156.181 101.445 159.426 101.939 159.548C101.939 159.508 101.98 159.508 101.98 159.508Z" fill="#9CA9B2"/>
<path opacity="0.4" d="M101.65 152.774C98.7718 152.206 96.9215 153.301 95.8936 154.599C97.0449 153.869 98.6073 153.707 99.9642 154.437C101.897 155.451 102.514 157.52 102.39 159.548C102.966 159.427 103.87 158.98 105.227 158.088C105.227 158.047 105.638 153.545 101.65 152.774Z" fill="#1D1C1A"/>
<path d="M98.772 150.461L98.8542 153.747C98.8542 153.747 99.9644 154.924 101.897 153.504L101.691 149.975L98.772 150.461Z" fill="#7F98B9"/>
<path opacity="0.3" d="M101.691 149.975L98.772 150.461L98.8131 152.206C98.9364 151.8 98.9364 151.719 99.2654 151.8C100.376 152.043 100.705 151.678 100.705 152.206C100.705 152.449 100.746 153.544 100.705 153.788C100.663 154.153 100.334 154.112 100.006 154.193C100.499 154.193 101.116 154.072 101.897 153.504L101.691 149.975Z" fill="#1D1C1A"/>
<path opacity="0.4" d="M101.815 152.084L101.691 149.975L98.772 150.461L98.8131 152.003C99.7588 152.571 100.828 152.449 101.815 152.084Z" fill="#32394B"/>
<path d="M97.374 143.809L97.8674 150.746C97.8674 150.746 100.17 152.774 102.555 150.38L102.432 143.606L97.374 143.809Z" fill="#4A5B6A"/>
<path opacity="0.6" d="M100.047 143.728L98.1553 143.809C98.3197 146.283 98.4842 148.758 98.6076 151.232C99.0599 151.435 99.6766 151.638 100.376 151.557C100.293 148.92 100.211 146.324 100.047 143.728Z" fill="#9CA9B2"/>
<path opacity="0.4" d="M102.514 147.176L102.432 143.606L97.374 143.809L97.6207 147.013C99.0599 147.784 100.787 147.703 102.514 147.176Z" fill="#32394B"/>
<path d="M94.7432 138.211L95.1543 146.932L100.705 149.772L104.817 147.946L104.694 139.59L94.7432 138.211Z" fill="#9CA9B2"/>
<path d="M100.582 139.022L100.705 149.772L104.817 147.947L104.693 139.59L100.582 139.022Z" fill="#32394B"/>
<path d="M101.773 139.671C101.773 139.671 101.773 145.148 101.856 146.081C101.938 147.014 102.185 147.825 102.966 147.622C103.747 147.46 103.788 146.73 103.788 145.634C103.788 144.539 103.624 139.712 103.624 139.712L101.773 139.671Z" fill="#505768"/>
<path d="M34.7108 130.057C33.2717 129.935 30.8457 130.544 30.3523 131.842C29.8589 133.14 31.5859 134.925 31.5859 134.925C32.2026 135.614 32.4082 135.858 33.6006 135.29C34.8342 134.763 36.1088 134.154 36.3144 133.099C36.5611 132.085 36.15 130.179 34.7108 130.057Z" fill="#1C1C1D"/>
<path d="M34.0528 132.126C34.6285 133.546 34.2173 135.047 33.066 135.533C31.9147 136.02 30.5167 135.249 29.8999 133.83C29.3243 132.41 29.7355 130.909 30.8868 130.422C32.0792 129.935 33.4772 130.706 34.0528 132.126Z" fill="#42423F"/>
<path d="M32.4905 132.856C32.655 133.262 32.5317 133.708 32.2027 133.83C31.8738 133.951 31.4626 133.749 31.2981 133.343C31.1336 132.937 31.257 132.491 31.5859 132.369C31.9149 132.207 32.3261 132.45 32.4905 132.856Z" fill="#1C1C1D"/>
<path d="M29.6943 130.909C29.6943 130.909 34.1351 133.14 34.5051 133.221C34.8341 133.302 35.5331 133.018 36.7666 132.207C36.7666 132.207 37.0544 129.083 34.2995 128.556C31.5035 128.029 30.0644 129.692 29.6943 130.909Z" fill="#7F98B9"/>
<path d="M34.5051 133.262C34.5874 132.085 34.2995 130.787 33.2305 130.098C32.0792 129.367 30.5989 129.57 29.8177 130.584C29.7766 130.706 29.6943 130.828 29.6943 130.949C29.6943 130.909 34.1351 133.181 34.5051 133.262Z" fill="#9CA9B2"/>
<path opacity="0.4" d="M34.2585 128.556C32.2848 128.15 31.0101 128.921 30.27 129.814C31.0924 129.286 32.1614 129.205 33.066 129.692C34.3818 130.422 34.8341 131.842 34.7519 133.221C35.1631 133.14 35.7798 132.815 36.7255 132.207C36.7666 132.247 37.0545 129.124 34.2585 128.556Z" fill="#1D1C1A"/>
<path d="M32.2847 126.974L32.3258 129.245C32.3258 129.245 33.107 130.057 34.4228 129.083L34.2994 126.649L32.2847 126.974Z" fill="#7F98B9"/>
<path opacity="0.3" d="M34.2994 126.609L32.2847 126.933L32.3258 128.15C32.408 127.866 32.408 127.785 32.6547 127.866C33.436 128.029 33.6416 127.785 33.6416 128.15C33.6416 128.313 33.6416 129.083 33.6416 129.246C33.6004 129.489 33.3949 129.448 33.1481 129.53C33.4771 129.53 33.9294 129.448 34.4639 129.043L34.2994 126.609Z" fill="#1D1C1A"/>
<path opacity="0.4" d="M34.3817 128.069L34.2994 126.609L32.2847 126.933V128.029C32.9837 128.434 33.6827 128.353 34.3817 128.069Z" fill="#32394B"/>
<path d="M31.2983 122.349L31.6273 127.177C31.6273 127.177 33.1898 128.556 34.8756 126.933L34.7934 122.268L31.2983 122.349Z" fill="#4A5B6A"/>
<path opacity="0.6" d="M33.1478 122.309L31.832 122.349C31.9554 124.053 32.0787 125.757 32.1199 127.501C32.4077 127.664 32.86 127.785 33.3534 127.745C33.3534 125.919 33.3123 124.094 33.1478 122.309Z" fill="#9CA9B2"/>
<path opacity="0.4" d="M34.875 124.702L34.8339 122.228L31.3389 122.349L31.5033 124.581C32.4902 125.108 33.6826 125.027 34.875 124.702Z" fill="#32394B"/>
<path d="M27.5151 112.695L27.8852 121.417L33.4772 124.256L37.5479 122.431L37.4246 114.074L27.5151 112.695Z" fill="#9CA9B2"/>
<path d="M33.3125 113.506L33.477 124.256L37.5476 122.43L37.4243 114.074L33.3125 113.506Z" fill="#32394B"/>
<path d="M34.5464 114.155C34.5464 114.155 34.5464 119.631 34.6286 120.564C34.7109 121.497 34.9576 122.309 35.7388 122.146C36.52 121.984 36.5612 121.254 36.5612 120.159C36.5612 119.063 36.3967 114.236 36.3967 114.236L34.5464 114.155Z" fill="#505768"/>
<path d="M23.4854 105.88L23.6087 113.506L105.104 144.012L162.341 124.621L162.711 118.05L105.474 136.669L23.4854 105.88Z" fill="#9CA9B2"/>
<path opacity="0.4" d="M23.4854 105.88L23.6087 113.506L105.104 144.012L162.341 124.621L162.711 118.05L105.474 136.669L23.4854 105.88Z" fill="#4A5B6A"/>
<path d="M105.104 144.012L162.341 124.621L162.711 118.05L105.475 136.669L105.104 144.012Z" fill="#9CA9B2"/>
<path opacity="0.7" d="M105.104 144.012L162.341 124.621L162.711 118.05L105.475 136.669L105.104 144.012Z" fill="#32394B"/>
<path opacity="0.4" d="M23.4854 105.88L23.6087 109.936L105.104 140.442L162.341 124.621L162.711 118.05L105.474 136.669L23.4854 105.88Z" fill="#4A5B6A"/>
<path d="M11.3145 99.7544L110.039 136.953L110.121 140.848L11.3967 103.527L11.3145 99.7544Z" fill="#9CA9B2"/>
<path d="M11.3145 99.7543L110.039 136.953L164.396 119.064L65.6723 81.743L11.3145 99.7543Z" fill="#9CA9B2"/>
<path opacity="0.6" d="M11.3145 99.7543L110.039 136.953L164.396 119.064L65.6723 81.743L11.3145 99.7543Z" fill="#9CA9B2"/>
<path d="M75.7461 54.3207C77.0207 53.5094 77.5142 53.3877 78.6243 53.1037C79.6934 52.8198 80.2691 54.2396 81.0914 55.416C81.8727 56.5924 92.81 76.1857 93.3446 77.3621C93.838 78.5385 93.3034 79.1064 90.8775 80.5262L88.9449 80.8507L90.2607 77.3621L77.3908 54.8886L75.7461 54.3207Z" fill="#9CA9B2"/>
<path opacity="0.4" d="M75.7461 54.3207C77.0207 53.5094 77.5142 53.3877 78.6243 53.1037C79.6934 52.8198 80.2691 54.2396 81.0914 55.416C81.8727 56.5924 92.81 76.1857 93.3446 77.3621C93.838 78.5385 93.3034 79.1064 90.8775 80.5262L88.9449 80.8507L90.2607 77.3621L77.3908 54.8886L75.7461 54.3207Z" fill="#4A5B6A"/>
<path d="M90.8775 76.3072C89.9729 74.8063 79.4056 57.0791 78.2954 55.2536C77.1441 53.4687 76.2395 53.9149 74.6359 54.9696C73.0323 56.0243 70.3185 57.8092 69.2495 58.864C67.4403 60.6488 68.1804 61.0951 69.5373 63.4479C70.8942 65.7601 78.9533 79.9987 80.3102 82.8383C81.6671 85.6779 83.5174 85.0289 84.5453 84.3393C85.6144 83.6496 88.0404 82.1487 90.3841 80.81C92.7689 79.4714 91.7821 77.8082 90.8775 76.3072ZM87.7936 79.1874C86.0667 80.161 85.3677 80.2827 84.5865 80.7695C83.8052 81.2563 82.4483 81.7431 81.4615 79.6742C80.4747 77.5648 73.1968 64.9894 72.1688 63.2856C71.182 61.5819 70.6064 61.2573 71.9633 59.9187C72.7445 59.1479 73.6491 58.8234 74.8004 58.0526C75.9928 57.2819 76.6507 56.9574 77.4731 58.2555C78.2954 59.5941 87.4236 74.7657 88.0815 75.861C88.8216 76.9563 89.5617 78.1733 87.7936 79.1874Z" fill="#9CA9B2"/>
<path d="M82.942 79.3091C81.9552 77.1996 74.6773 64.6242 73.6494 62.9205C72.6214 61.2167 72.0869 60.8922 73.4438 59.5535C74.225 58.7828 75.1296 58.4582 76.3221 57.6875C76.4454 57.6064 76.5688 57.5252 76.6921 57.4441C76.1576 57.2413 75.623 57.5658 74.8829 58.0526C73.6905 58.8233 72.827 59.1479 72.0458 59.9186C70.6889 61.2573 71.2646 61.5818 72.2514 63.2856C73.2382 64.9893 80.5161 77.5647 81.544 79.6741C82.5309 81.7024 83.8055 81.2968 84.6279 80.81C84.0111 80.7289 83.4355 80.3232 82.942 79.3091Z" fill="#32394B"/>
<path d="M19.5796 70.7093C19.5796 70.7093 37.1781 104.014 38.4527 105.271C39.7274 106.529 40.2619 106.935 42.03 107.665C43.8392 108.435 112.876 132.734 114.274 133.221C115.672 133.708 116.33 135.006 119.414 134.114C122.498 133.221 163.287 118.293 163.287 118.293L163.657 109.044C163.657 109.044 87.1774 83.0818 86.8074 82.7167C86.4373 82.3517 71.7993 57.4037 71.7993 57.4037L24.0614 66.4093L19.5796 70.7093Z" fill="#89CFC4"/>
<path opacity="0.7" d="M19.5796 70.7093C19.5796 70.7093 37.1781 104.014 38.4527 105.271C39.7274 106.529 40.2619 106.935 42.03 107.665C43.8392 108.435 112.876 132.734 114.274 133.221C115.672 133.708 116.33 135.006 119.414 134.114C122.498 133.221 163.287 118.293 163.287 118.293L163.657 109.044C163.657 109.044 118.098 126.771 117.728 126.406C117.358 126.041 42.6467 100.201 42.6467 100.201L24.0203 66.4093L19.5796 70.7093Z" fill="#75AEA3"/>
<path d="M33.1073 63.367C33.1073 63.367 38.0003 58.5397 52.8028 56.9576C52.8028 56.9576 60.6563 54.9293 69.7433 53.9152C69.7433 53.9152 70.8535 52.6576 71.3881 52.8199C71.8815 52.9821 71.2236 54.6048 71.2236 54.6048C71.2236 54.6048 81.7498 64.9896 83.7234 81.3782C83.7234 81.3782 86.9718 84.0961 84.3402 83.4065C84.3402 83.4065 74.143 87.6253 67.6463 88.3961C67.6463 88.3961 59.4228 94.3998 49.76 95.8196C49.76 95.8196 48.8966 97.6045 47.9509 97.6045C47.0051 97.6045 47.8686 94.9677 47.8686 94.9677C47.8686 94.9677 39.6862 87.7876 36.0678 78.498C35.0398 75.9018 32.2849 67.7075 32.2849 65.4358C32.2849 65.4358 30.1468 63.4075 30.928 62.8396C31.6682 62.1906 33.1073 63.367 33.1073 63.367Z" fill="#5CA78E"/>
<path d="M53.3371 57.8095C56.462 57.6066 59.587 57.2415 62.6708 56.6331C64.1099 56.3491 65.5491 56.0651 66.9471 55.6595C67.6461 55.4566 68.304 55.1321 68.9619 54.8482C69.4142 54.6453 69.8665 54.4425 70.401 54.4019C70.4421 54.4019 70.4832 54.4425 70.4832 54.4831C70.5655 55.2944 70.5655 56.1057 70.6066 56.9576C70.8122 56.5519 71.0589 56.1057 71.3056 55.7406C71.3467 55.7 71.3878 55.6595 71.4289 55.7C71.5523 55.7812 71.7168 55.9029 71.8401 55.984C73.5259 57.4038 74.5539 59.4321 75.4585 61.3793C76.5687 63.7321 77.6789 66.0849 78.7479 68.4377C79.9403 71.0745 80.9683 73.7518 81.914 76.4697C82.2841 77.565 82.6541 78.6603 83.1064 79.715C83.2298 80.0395 83.3942 80.4046 83.5998 80.7291C81.4617 64.7056 71.1822 54.6048 71.1822 54.6048C71.1822 54.6048 71.8812 52.9821 71.3467 52.8199C70.8533 52.6576 69.702 53.9152 69.702 53.9152C60.6149 54.9293 52.7614 56.9576 52.7614 56.9576C47.1694 57.5661 42.9753 58.6208 39.9326 59.7161C41.454 59.2293 43.0165 58.8236 44.5378 58.5802C47.4983 58.0529 50.4177 57.9717 53.3371 57.8095Z" fill="#89CFC4"/>
<path opacity="0.5" d="M144.208 106.245C141.946 105.109 139.479 104.297 136.971 103.811C137.382 104.744 137.67 105.717 137.67 106.772C137.67 106.975 137.423 107.015 137.3 106.853C135.943 105.068 134.093 103.608 132.284 102.31C130.063 100.728 127.72 99.3485 125.211 98.2532C121.387 96.5494 115.672 94.6428 111.889 97.3202C118.715 97.4824 125.54 100.079 131.173 103.851C134.463 106.082 138.205 109.044 140.302 112.735C139.808 110.545 139.479 108.314 138.698 106.164C138.657 106.001 138.821 105.92 138.945 105.92C142.892 106.731 146.716 108.151 149.8 110.747C148.443 108.719 146.346 107.299 144.208 106.245Z" fill="#89CFC4"/>
<path d="M17.0302 99.9976C17.0302 100.16 16.7835 100.282 16.4546 100.282C16.1256 100.282 15.8789 100.16 15.8789 99.9976C15.8789 99.8353 16.1256 99.7136 16.4546 99.7136C16.7424 99.7136 17.0302 99.8353 17.0302 99.9976Z" fill="#32394B"/>
<path d="M7.44903 77.8082C7.44903 77.8082 10.0395 78.4978 10.9029 78.8224C11.2319 78.9441 12.8355 78.4573 13.6167 78.4573C14.398 78.4573 14.3157 79.228 14.2746 80.0393C14.1924 80.8507 14.0279 88.8421 13.9045 89.8968C13.7812 90.9921 13.3289 90.911 12.0954 91.1544C10.8618 91.3978 10.4918 91.8034 8.88816 91.2355C7.28456 90.6676 6.0099 90.911 6.13326 89.6534C6.25661 88.3959 6.25661 80.6478 6.37996 79.2686C6.50332 77.8488 7.44903 77.8082 7.44903 77.8082Z" fill="#9CA9B2"/>
<path opacity="0.4" d="M13.6168 78.4169C12.8356 78.4169 11.232 78.9037 10.903 78.782C10.8208 78.7414 10.6974 78.7008 10.533 78.6603C10.4918 82.6763 10.3274 87.747 10.0396 91.4791C10.7386 91.5196 11.1909 91.3168 12.0543 91.114C13.2879 90.8706 13.7402 90.9111 13.8635 89.8564C13.9869 88.7611 14.1925 80.8102 14.2336 79.9989C14.3158 79.1876 14.398 78.4169 13.6168 78.4169Z" fill="#505768"/>
<path opacity="0.4" d="M9.66954 90.7487C8.43601 90.6676 7.24359 90.1808 6.09229 89.8157C6.09229 90.8704 7.32582 90.6676 8.84719 91.1949C10.4508 91.7628 10.8208 91.3977 12.0544 91.1138C13.2057 90.8704 13.658 90.911 13.8225 90.0185C12.4656 90.4242 11.1087 90.8704 9.66954 90.7487Z" fill="#9CA9B2"/>
<path opacity="0.6" d="M9.99903 79.3092C11.1914 79.7149 11.3559 79.6337 13.4529 79.0252C13.7408 78.9441 13.9463 78.863 14.1931 78.863C14.1108 78.579 13.9463 78.4168 13.5763 78.4168C12.795 78.4168 11.1914 78.9035 10.8625 78.7818C9.99903 78.4573 7.4086 77.7677 7.4086 77.7677C7.4086 77.7677 6.75072 77.8083 6.46289 78.579C6.95631 78.2139 8.84773 78.9035 9.99903 79.3092Z" fill="#9CA9B2"/>
<path d="M20.2781 67.261C21.7172 66.328 22.2929 66.2063 23.4853 65.9224C24.7188 65.5979 25.3356 67.1799 26.2402 68.5186C27.1448 69.8573 39.439 91.925 40.0558 93.2637C40.6314 94.6024 40.0147 95.2109 37.3009 96.8335L35.1216 97.1986L36.6019 93.2637L22.0873 67.9507L20.2781 67.261Z" fill="#9CA9B2"/>
<path opacity="0.4" d="M20.2781 67.261C21.7172 66.328 22.2929 66.2063 23.4853 65.9224C24.7188 65.5979 25.3356 67.1799 26.2402 68.5186C27.1448 69.8573 39.439 91.925 40.0558 93.2637C40.6314 94.6024 40.0147 95.2109 37.3009 96.8335L35.1216 97.1986L36.6019 93.2637L22.0873 67.9507L20.2781 67.261Z" fill="#4A5B6A"/>
<path d="M37.301 92.0468C36.2731 90.343 24.39 70.3441 23.1154 68.3158C21.8407 66.2875 20.8128 66.8148 19.0036 67.9913C17.1944 69.1677 14.1105 71.196 12.9181 72.3724C10.8622 74.4007 11.7257 74.8874 13.2471 77.5242C14.7684 80.1204 23.8555 96.1845 25.3769 99.3892C26.8982 102.594 28.9541 101.823 30.1876 101.093C31.3801 100.322 34.135 98.659 36.7665 97.1175C39.4392 95.6166 38.329 93.7505 37.301 92.0468ZM33.8471 95.292C31.8735 96.4279 31.1334 96.509 30.2288 97.0769C29.3653 97.6448 27.8439 98.2128 26.6926 95.8194C25.5413 93.4666 17.3589 79.2685 16.2487 77.3619C15.0974 75.4148 14.4806 75.0497 16.002 73.5488C16.9066 72.6563 17.8934 72.3318 19.2092 71.4393C20.5249 70.5875 21.3062 70.1818 22.2519 71.6827C23.1976 73.1837 33.4771 90.2619 34.2172 91.5194C34.9984 92.777 35.8208 94.1562 33.8471 95.292Z" fill="#9CA9B2"/>
<path d="M28.3369 95.414C27.1855 93.0612 19.0031 78.8632 17.8929 76.9566C16.7416 75.0094 16.1248 74.6443 17.6462 73.1434C18.5508 72.251 19.5376 71.9264 20.8534 71.034C21.0179 70.9529 21.1412 70.8312 21.2646 70.75C20.6889 70.5472 20.0722 70.8717 19.2087 71.4397C17.8929 72.2915 16.865 72.6566 16.0015 73.5491C14.4801 75.05 15.138 75.4151 16.2482 77.3623C17.3995 79.3094 25.582 93.4669 26.6921 95.8197C27.8023 98.1319 29.2414 97.6452 30.146 97.1178C29.5704 97.0367 28.9125 96.5904 28.3369 95.414Z" fill="#32394B"/>
<path d="M29.1187 96.6716C29.1187 94.5216 28.4197 93.2235 26.8983 93.2235C25.4181 93.2235 24.4724 93.9943 24.4724 95.0895C24.4724 97.7669 24.3901 106.042 24.3901 107.462C24.3901 108.882 25.3358 110.505 27.0628 110.667C28.7898 110.788 29.2832 109.572 29.2832 106.894C29.2832 104.217 29.1187 98.8622 29.1187 96.6716Z" fill="#32394B"/>
<path d="M28.2552 96.6716C28.2552 94.5216 27.6796 93.264 26.446 93.264C25.2125 93.264 24.4724 94.0348 24.4724 95.0895C24.4724 97.7668 24.3901 105.961 24.3901 107.381C24.3901 108.76 25.1714 110.423 26.5694 110.545C27.9674 110.667 28.3786 109.45 28.3786 106.813C28.3786 104.136 28.2552 98.8215 28.2552 96.6716Z" fill="#C8D1E2"/>
<path d="M26.7751 107.584C26.7751 108.071 26.5284 108.517 26.2406 108.517C25.9528 108.517 25.7061 108.111 25.7061 107.584C25.7061 107.056 25.9528 106.651 26.2406 106.651C26.5284 106.651 26.7751 107.056 26.7751 107.584Z" fill="#32394B"/>
<path d="M26.7751 95.9008C26.7751 96.3876 26.5284 96.8338 26.2406 96.8338C25.9528 96.8338 25.7061 96.4281 25.7061 95.9008C25.7061 95.3734 25.9528 94.9678 26.2406 94.9678C26.5695 94.9678 26.7751 95.3734 26.7751 95.9008Z" fill="#32394B"/>
<path d="M99.9238 120.159C96.2643 118.82 74.4307 110.18 72.6215 109.531C72.0047 109.287 71.4702 109.247 71.0179 109.368C70.1133 109.571 67.1528 110.951 67.0706 111.965C67.5229 110.951 68.5919 110.423 70.031 110.951C71.8402 111.64 93.6327 120.24 97.3333 121.579C100.993 122.917 101.445 123.769 101.445 125.879C101.445 127.988 101.445 135.087 101.445 138.86C101.445 142.064 99.5537 142.267 98.1146 141.781C99.5948 142.511 103.994 141.213 103.994 137.399C103.994 133.586 103.994 126.528 103.994 124.418C104.036 122.35 103.624 121.498 99.9238 120.159Z" fill="#505768"/>
<g opacity="0.4">
<path d="M100.787 123.445C101.692 122.999 102.596 122.593 103.501 122.228C102.966 121.498 101.939 120.889 99.9238 120.159C96.2643 118.82 74.4307 110.18 72.6215 109.531C72.0047 109.287 71.4702 109.247 71.0179 109.368C70.1133 109.571 67.1528 110.951 67.0706 111.965C67.5229 110.951 68.5919 110.423 70.031 110.951C71.8402 111.64 93.6327 120.24 97.3333 121.579C99.1836 122.268 100.212 122.796 100.787 123.445Z" fill="#9CA9B2"/>
</g>
<path d="M97.3744 121.579C93.7149 120.24 71.8813 111.599 70.0721 110.95C68.2629 110.261 67.0294 111.275 66.906 112.816C66.6593 116.102 66.906 124.54 66.906 126.163C66.906 127.785 66.7416 129.448 68.7975 130.463C70.8533 131.477 95.9353 140.766 97.3744 141.537C98.8135 142.308 101.486 142.713 101.486 138.9C101.486 135.087 101.486 128.029 101.486 125.919C101.486 123.81 101.034 122.958 97.3744 121.579ZM98.978 136.791C98.978 137.115 98.9369 137.399 98.8958 137.643C98.5257 139.306 97.0043 139.022 96.1409 138.576C95.154 138.048 71.6346 129.408 70.1955 128.718C68.7975 128.029 68.8797 126.852 68.8797 125.757C68.8797 124.662 68.7975 117.238 68.9619 114.966C69.0442 114.033 69.7021 113.384 70.6889 113.547C70.8534 113.587 70.9767 113.628 71.1412 113.668C72.3747 114.115 93.6738 122.309 96.182 123.242C98.7313 124.175 99.0191 124.743 99.0191 126.203C99.0602 127.663 98.978 134.154 98.978 136.791Z" fill="#9CA9B2"/>
<path d="M71.9222 127.461C70.5242 126.771 70.6064 125.595 70.6064 124.499C70.6064 123.404 70.5242 115.981 70.6886 113.709C70.6886 113.668 70.6886 113.628 70.6886 113.587C69.7018 113.425 69.0439 114.074 68.9617 115.007C68.7972 117.279 68.8794 124.702 68.8794 125.797C68.8794 126.893 68.7561 128.069 70.1952 128.759C71.5932 129.448 95.1127 138.089 96.1406 138.616C97.0041 139.062 98.5255 139.346 98.8955 137.683C98.5255 137.643 98.1554 137.521 97.8676 137.359C96.8807 136.791 73.3613 128.15 71.9222 127.461Z" fill="#32394B"/>
<path d="M76.7329 115.818V131.274L92.0699 137.034L94.0847 135.858V122.471L76.7329 115.818ZM88.287 132.613C87.7114 132.45 81.0914 129.854 80.0223 129.448C79.6112 129.286 78.9122 129.002 78.7477 128.353C78.4599 127.38 78.9533 126 80.2279 126.487C83.1884 127.623 87.5469 129.246 88.9038 129.814C89.3972 130.016 90.014 130.463 90.2196 131.031C90.6308 132.045 90.1785 133.221 88.287 132.613ZM88.986 126.244C88.4104 126.081 81.7904 123.485 80.7213 123.08C80.3102 122.917 79.6112 122.633 79.4467 121.984C79.1589 121.011 79.6523 119.632 80.9269 120.118C83.8874 121.254 88.2459 122.877 89.6028 123.445C90.0962 123.648 90.713 124.094 90.9186 124.662C91.3298 125.676 90.8775 126.852 88.986 126.244Z" fill="#C8D1E2"/>
<path d="M91.9053 121.619L92.0697 136.994L94.0845 135.858V122.471L91.9053 121.619Z" fill="#32394B"/>
<path d="M90.96 124.662C90.96 124.621 90.96 124.621 90.9189 124.621C90.6722 125.067 90.0554 125.311 88.9863 124.986C88.4107 124.824 82.8186 122.715 81.7496 122.309C81.3384 122.147 80.6394 121.863 80.4749 121.214C80.3516 120.849 80.3927 120.402 80.516 120.037C79.5703 119.997 79.2414 121.132 79.4881 121.984C79.6526 122.633 80.3516 122.917 80.7627 123.08C81.8318 123.485 88.4518 126.081 89.0274 126.244C90.8777 126.852 91.33 125.676 90.96 124.662Z" fill="#32394B"/>
<path d="M90.2612 131.03C90.2612 130.99 90.2612 130.99 90.2201 130.99C89.9734 131.436 89.3567 131.679 88.2876 131.355C87.7119 131.193 82.1199 129.083 81.0508 128.678C80.6397 128.515 79.9406 128.231 79.7762 127.582C79.6528 127.217 79.6939 126.771 79.8173 126.406C78.8716 126.365 78.5426 127.501 78.7893 128.353C78.9538 129.002 79.6528 129.286 80.064 129.448C81.1331 129.854 87.7531 132.45 88.3287 132.612C90.179 133.221 90.6313 132.044 90.2612 131.03Z" fill="#32394B"/>
<path opacity="0.3" d="M91.9465 122.228C92.111 122.147 93.5913 122.836 94.0847 122.674V122.471L76.7329 115.818V116.589C79.1589 117.238 91.7409 121.984 91.9465 122.228Z" fill="#32394B"/>
<path d="M155.31 136.345C153.213 136.142 149.718 137.075 149.019 138.941C148.32 140.807 150.787 143.363 150.787 143.363C151.65 144.377 151.938 144.701 153.706 143.931C155.474 143.16 157.325 142.267 157.654 140.766C157.941 139.266 157.407 136.507 155.31 136.345Z" fill="#1C1C1D"/>
<path d="M154.364 139.347C155.227 141.375 154.569 143.566 152.925 144.255C151.28 144.945 149.224 143.849 148.402 141.821C147.538 139.793 148.196 137.602 149.841 136.913C151.486 136.223 153.5 137.318 154.364 139.347Z" fill="#42423F"/>
<path d="M152.102 140.361C152.349 140.969 152.184 141.578 151.691 141.78C151.197 141.983 150.622 141.659 150.375 141.05C150.128 140.442 150.293 139.833 150.786 139.63C151.28 139.468 151.855 139.793 152.102 140.361Z" fill="#1C1C1D"/>
<path d="M148.072 137.602C148.072 137.602 154.487 140.848 154.98 140.969C155.473 141.091 156.46 140.685 158.27 139.509C158.27 139.509 158.722 135.006 154.692 134.195C150.663 133.383 148.607 135.817 148.072 137.602Z" fill="#7F98B9"/>
<path d="M155.021 140.969C155.145 139.265 154.733 137.399 153.212 136.426C151.567 135.371 149.388 135.655 148.278 137.115C148.196 137.278 148.113 137.48 148.072 137.643C148.072 137.643 154.487 140.888 154.98 141.01C154.98 140.969 155.021 140.969 155.021 140.969Z" fill="#9CA9B2"/>
<path opacity="0.4" d="M154.652 134.195C151.773 133.627 149.923 134.722 148.895 136.02C150.046 135.29 151.609 135.128 152.966 135.858C154.898 136.872 155.515 138.941 155.392 140.969C155.967 140.847 156.872 140.401 158.229 139.509C158.27 139.509 158.681 134.965 154.652 134.195Z" fill="#1D1C1A"/>
<path d="M151.814 131.882L151.896 135.168C151.896 135.168 153.006 136.345 154.939 134.925L154.774 131.396L151.814 131.882Z" fill="#7F98B9"/>
<path opacity="0.3" d="M154.733 131.396L151.814 131.882L151.855 133.627C151.978 133.221 151.978 133.14 152.307 133.221C153.418 133.464 153.746 133.099 153.746 133.627C153.746 133.87 153.788 134.965 153.746 135.209C153.705 135.574 153.376 135.533 153.048 135.614C153.541 135.614 154.158 135.493 154.939 134.925L154.733 131.396Z" fill="#1D1C1A"/>
<path opacity="0.4" d="M154.857 133.505L154.733 131.396L151.814 131.882L151.855 133.424C152.801 133.992 153.87 133.911 154.857 133.505Z" fill="#32394B"/>
<path d="M150.417 125.23L150.91 132.166C150.91 132.166 153.213 134.195 155.597 131.801L155.474 125.027L150.417 125.23Z" fill="#4A5B6A"/>
<path opacity="0.6" d="M153.089 125.149L151.198 125.23C151.362 127.704 151.527 130.179 151.65 132.653C152.102 132.856 152.719 133.059 153.418 132.978C153.336 130.341 153.254 127.745 153.089 125.149Z" fill="#9CA9B2"/>
<path opacity="0.4" d="M155.556 128.637L155.474 125.068L150.417 125.27L150.663 128.475C152.102 129.205 153.829 129.124 155.556 128.637Z" fill="#32394B"/>
<path d="M147.785 119.631L148.196 128.353L153.747 131.193L157.859 129.367L157.736 121.011L147.785 119.631Z" fill="#9CA9B2"/>
<path d="M153.624 120.443L153.747 131.193L157.859 129.367L157.735 121.011L153.624 120.443Z" fill="#32394B"/>
<path d="M154.816 121.132C154.816 121.132 154.816 126.609 154.899 127.542C154.981 128.475 155.228 129.286 156.009 129.083C156.79 128.921 156.831 128.191 156.831 127.095C156.831 126 156.667 121.173 156.667 121.173L154.816 121.132Z" fill="#505768"/>
<path d="M161.806 99.8761C158.846 100.809 114.068 116.386 111.766 117.36C109.463 118.293 108.929 119.307 108.929 120.889C108.929 122.471 108.805 136.061 108.805 138.738C108.805 141.415 109.299 141.659 110.039 142.105C111.971 143.322 112.917 142.592 114.479 142.186C116.001 141.74 158.887 127.258 161.642 126.284C164.397 125.351 165.219 124.013 165.219 122.431C165.219 120.849 166 104.217 166 102.107C166 100.647 164.767 98.9431 161.806 99.8761ZM119.29 124.783C117.728 126.163 115.59 126.325 114.521 125.149C113.451 123.972 113.863 121.903 115.425 120.524C116.988 119.145 119.126 118.983 120.195 120.159C121.264 121.335 120.853 123.404 119.29 124.783ZM154.158 114.439C151.773 115.21 129.282 122.471 127.39 123.039C125.499 123.648 124.636 122.796 125.664 120.605C126.691 118.415 127.103 117.806 127.555 116.873C127.966 115.94 128.254 115.007 130.022 114.236C131.831 113.466 146.634 108.314 149.018 107.502C151.403 106.651 151.568 106.569 153.13 108.354C154.652 110.139 155.186 110.707 155.885 111.478C156.584 112.249 156.584 113.668 154.158 114.439ZM162.382 109.044C160.943 110.301 158.969 110.464 157.982 109.368C156.995 108.273 157.365 106.367 158.846 105.109C160.285 103.852 162.258 103.689 163.245 104.785C164.191 105.839 163.821 107.746 162.382 109.044Z" fill="#505768"/>
<path d="M111.602 121.173C111.602 119.591 112.095 118.577 114.439 117.644C116.741 116.711 159.545 101.986 162.506 101.012C164.15 100.485 165.26 100.769 165.918 101.377C165.548 100.16 164.315 99.1054 161.848 99.9167C158.887 100.85 114.11 116.427 111.807 117.401C109.505 118.334 108.97 119.348 108.97 120.93C108.97 122.512 108.847 136.101 108.847 138.779C108.847 141.456 109.34 141.699 110.08 142.146C110.738 142.551 111.314 142.754 111.807 142.795C111.602 142.349 111.519 141.618 111.519 140.401C111.478 137.683 111.602 122.755 111.602 121.173Z" fill="#9CA9B2"/>
<path opacity="0.4" d="M111.602 121.173C111.602 120.727 111.643 120.321 111.766 119.956C111.478 119.875 111.19 119.753 110.903 119.672C110.409 119.51 109.834 119.388 109.299 119.267C109.052 119.753 108.97 120.281 108.97 120.93C108.97 122.512 108.847 136.101 108.847 138.779C108.847 141.456 109.34 141.699 110.08 142.146C110.738 142.551 111.314 142.754 111.807 142.795C111.602 142.349 111.519 141.618 111.519 140.401C111.478 137.683 111.602 122.755 111.602 121.173Z" fill="#4A5B6A"/>
<path opacity="0.4" d="M130.803 127.582C129.282 128.069 127.719 128.475 126.198 129.043C125.005 129.489 123.854 130.016 122.662 130.341C121.675 132.085 120.688 133.829 119.66 135.533C118.468 137.521 117.399 139.63 116.165 141.618C123.854 139.062 155.309 128.434 160.942 126.528C160.408 125.676 159.873 124.783 159.298 123.972C158.27 122.43 157.242 120.848 156.132 119.347C151.074 121.092 145.934 122.633 140.836 124.337C137.464 125.432 134.134 126.487 130.803 127.582Z" fill="#32394B"/>
<path d="M118.715 119.429C118.797 119.469 118.838 119.551 118.921 119.632C119.866 120.686 119.455 122.593 117.975 123.891C116.824 124.905 115.343 125.27 114.315 124.824C114.398 124.946 114.48 125.067 114.562 125.189C115.631 126.366 117.769 126.203 119.332 124.824C120.894 123.445 121.305 121.376 120.236 120.2C119.825 119.753 119.291 119.51 118.715 119.429Z" fill="#32394B"/>
<path d="M163.204 104.744C162.834 104.338 162.341 104.135 161.806 104.054C161.888 104.095 161.929 104.176 161.97 104.217C162.834 105.19 162.464 106.934 161.107 108.151C160.038 109.084 158.681 109.409 157.735 109.044C157.818 109.166 157.9 109.287 157.982 109.368C158.969 110.464 160.943 110.301 162.382 109.044C163.821 107.746 164.191 105.839 163.204 104.744Z" fill="#32394B"/>
<path d="M153.13 108.354C151.814 106.853 151.485 106.691 150.005 107.178C150.334 107.34 150.663 107.705 151.157 108.273C152.472 109.774 152.883 110.261 153.5 110.91C154.076 111.559 154.076 112.776 152.061 113.425C150.046 114.074 128.953 120.362 127.349 120.889C126.527 121.132 125.91 121.092 125.663 120.686C124.718 122.836 125.54 123.647 127.39 123.039C129.282 122.43 151.773 115.21 154.158 114.439C156.543 113.668 156.543 112.248 155.885 111.478C155.186 110.707 154.693 110.139 153.13 108.354Z" fill="#32394B"/>
<path d="M123.484 131.68C123.484 131.923 123.361 132.126 123.197 132.126C123.032 132.126 122.909 131.923 122.909 131.68C122.909 131.436 123.032 131.233 123.197 131.233C123.361 131.193 123.484 131.396 123.484 131.68Z" fill="#505156"/>
<path d="M113.287 140.198C113.287 140.442 113.164 140.645 112.999 140.645C112.835 140.645 112.711 140.442 112.711 140.198C112.711 139.955 112.835 139.752 112.999 139.752C113.164 139.752 113.287 139.955 113.287 140.198Z" fill="#505156"/>
<path d="M164.109 122.999C164.109 123.242 163.985 123.445 163.821 123.445C163.657 123.445 163.533 123.242 163.533 122.999C163.533 122.755 163.657 122.552 163.821 122.552C163.985 122.512 164.109 122.715 164.109 122.999Z" fill="#505156"/>
<path d="M155.762 120.605C155.762 120.849 155.639 121.051 155.474 121.051C155.31 121.051 155.187 120.849 155.187 120.605C155.187 120.362 155.31 120.159 155.474 120.159C155.639 120.118 155.762 120.321 155.762 120.605Z" fill="#505156"/>
<path d="M26.6923 133.951C25.7877 133.87 24.2663 134.276 23.9374 135.087C23.6496 135.898 24.7186 137.034 24.7186 137.034C25.0887 137.48 25.212 137.602 25.9933 137.278C26.7745 136.953 27.5558 136.547 27.7202 135.898C27.8436 135.209 27.5969 133.992 26.6923 133.951Z" fill="#1C1C1D"/>
<path d="M26.2818 135.249C26.6519 136.142 26.3641 137.115 25.6651 137.399C24.9249 137.683 24.0615 137.196 23.6914 136.345C23.3213 135.452 23.6092 134.479 24.3082 134.195C25.0072 133.87 25.9118 134.357 26.2818 135.249Z" fill="#42423F"/>
<path d="M25.2947 135.696C25.418 135.939 25.3358 136.223 25.1302 136.304C24.9246 136.385 24.6779 136.264 24.5545 135.98C24.4312 135.736 24.5134 135.452 24.719 135.371C24.9246 135.29 25.2124 135.452 25.2947 135.696Z" fill="#1C1C1D"/>
<path d="M23.5269 134.478C23.5269 134.478 26.3229 135.898 26.5285 135.939C26.7341 135.979 27.1864 135.817 27.9676 135.29C27.9676 135.29 28.1732 133.302 26.4051 132.978C24.6782 132.653 23.7736 133.708 23.5269 134.478Z" fill="#7F98B9"/>
<path d="M26.5696 135.939C26.6107 135.168 26.4462 134.357 25.7883 133.951C25.0482 133.505 24.1436 133.627 23.6091 134.235C23.568 134.316 23.5269 134.397 23.5269 134.479C23.5269 134.479 26.3229 135.898 26.5696 135.939Z" fill="#9CA9B2"/>
<path opacity="0.4" d="M26.4052 132.978C25.1716 132.734 24.3493 133.221 23.897 133.789C24.3904 133.465 25.0894 133.383 25.665 133.708C26.4874 134.154 26.7752 135.047 26.7341 135.939C26.9808 135.899 27.392 135.696 27.9676 135.29C27.9676 135.29 28.1732 133.343 26.4052 132.978Z" fill="#1D1C1A"/>
<path d="M25.1714 131.964L25.2125 133.383C25.2125 133.383 25.7059 133.87 26.5283 133.262L26.446 131.72L25.1714 131.964Z" fill="#7F98B9"/>
<path opacity="0.3" d="M26.446 131.761L25.1714 131.964V132.734C25.2125 132.572 25.2125 132.531 25.377 132.531C25.8704 132.653 25.9937 132.491 25.9937 132.734C25.9937 132.856 25.9937 133.302 25.9937 133.424C25.9526 133.586 25.8293 133.546 25.7059 133.586C25.9115 133.586 26.1993 133.546 26.5283 133.302L26.446 131.761Z" fill="#1D1C1A"/>
<path opacity="0.4" d="M26.4872 132.694L26.446 131.761L25.1714 131.964V132.653C25.5826 132.897 26.076 132.856 26.4872 132.694Z" fill="#32394B"/>
<path d="M24.5544 129.083L24.76 132.126C24.76 132.126 25.7469 133.018 26.8159 131.963L26.7748 129.002L24.5544 129.083Z" fill="#4A5B6A"/>
<path opacity="0.6" d="M25.7061 129.043L24.8838 129.083C24.966 130.179 25.0483 131.233 25.0894 132.329C25.295 132.41 25.5417 132.491 25.8706 132.491C25.8295 131.314 25.7884 130.179 25.7061 129.043Z" fill="#9CA9B2"/>
<path opacity="0.4" d="M26.8159 130.544L26.7748 129.002L24.5544 129.083L24.6367 130.463C25.2946 130.828 26.0347 130.787 26.8159 130.544Z" fill="#32394B"/>
<path d="M10.5746 135.371C9.67001 135.29 8.14865 135.696 7.81971 136.507C7.53188 137.318 8.60094 138.454 8.60094 138.454C8.97101 138.9 9.09436 139.022 9.8756 138.698C10.6568 138.373 11.4381 137.967 11.6026 137.318C11.7259 136.629 11.4792 135.452 10.5746 135.371Z" fill="#1C1C1D"/>
<path d="M10.1632 136.669C10.5332 137.562 10.2454 138.535 9.5464 138.819C8.80628 139.103 7.9428 138.616 7.57274 137.765C7.20268 136.872 7.4905 135.899 8.18951 135.615C8.88851 135.29 9.79311 135.777 10.1632 136.669Z" fill="#42423F"/>
<path d="M9.1765 137.116C9.29985 137.359 9.21761 137.643 9.01203 137.724C8.80644 137.805 8.55973 137.683 8.43638 137.399C8.31302 137.156 8.39526 136.872 8.60085 136.791C8.80644 136.71 9.05314 136.872 9.1765 137.116Z" fill="#1C1C1D"/>
<path d="M7.4082 135.898C7.4082 135.898 10.2042 137.318 10.4098 137.359C10.6154 137.399 11.0677 137.237 11.8489 136.71C11.8489 136.71 12.0545 134.722 10.2865 134.397C8.51839 134.073 7.65491 135.128 7.4082 135.898Z" fill="#7F98B9"/>
<path d="M10.4509 137.399C10.492 136.629 10.3276 135.817 9.66969 135.412C8.92957 134.965 8.02497 135.087 7.49044 135.696C7.44932 135.777 7.4082 135.858 7.4082 135.939C7.4082 135.898 10.2042 137.318 10.4509 137.399C10.4098 137.399 10.4509 137.359 10.4509 137.399Z" fill="#9CA9B2"/>
<path opacity="0.4" d="M10.2865 134.438C9.05298 134.195 8.23062 134.682 7.77832 135.25C8.27174 134.925 8.97074 134.844 9.54639 135.168C10.3687 135.615 10.6566 136.507 10.6155 137.4C10.8622 137.359 11.2733 137.156 11.849 136.751C11.849 136.751 12.0135 134.763 10.2865 134.438Z" fill="#1D1C1A"/>
<path d="M9.05322 133.424L9.09434 134.844C9.09434 134.844 9.58776 135.331 10.4101 134.722L10.3279 133.181L9.05322 133.424Z" fill="#7F98B9"/>
<path opacity="0.3" d="M10.3279 133.221L9.05322 133.424V134.195C9.09434 134.032 9.09434 133.992 9.25881 133.992C9.75223 134.113 9.87558 133.951 9.87558 134.195C9.87558 134.316 9.87558 134.762 9.87558 134.884C9.83446 135.046 9.71111 135.006 9.58776 135.046C9.79334 135.046 10.0812 135.006 10.4101 134.762L10.3279 133.221Z" fill="#1D1C1A"/>
<path opacity="0.4" d="M10.369 134.114L10.3279 133.181L9.05322 133.383V134.073C9.4644 134.317 9.9167 134.276 10.369 134.114Z" fill="#32394B"/>
<path d="M8.43628 130.503L8.64187 133.546C8.64187 133.546 9.6287 134.438 10.6978 133.383L10.6566 130.422L8.43628 130.503Z" fill="#4A5B6A"/>
<path opacity="0.6" d="M9.58749 130.463L8.76514 130.503C8.84737 131.598 8.92961 132.653 8.97073 133.748C9.17632 133.83 9.42302 133.911 9.75197 133.911C9.71085 132.734 9.66973 131.598 9.58749 130.463Z" fill="#9CA9B2"/>
<path opacity="0.4" d="M10.657 132.004L10.6159 130.463L8.39551 130.544L8.47774 131.923C9.13563 132.248 9.91687 132.207 10.657 132.004Z" fill="#32394B"/>
<path d="M15.7143 137.886C14.8097 137.805 13.2883 138.211 12.9594 139.022C12.6715 139.833 13.7406 140.969 13.7406 140.969C14.1107 141.415 14.234 141.537 15.0152 141.213C15.7965 140.888 16.5777 140.482 16.7422 139.833C16.8656 139.184 16.6188 137.967 15.7143 137.886Z" fill="#1C1C1D"/>
<path d="M15.3033 139.184C15.6734 140.077 15.3855 141.05 14.6865 141.334C13.9464 141.618 13.0829 141.131 12.7129 140.28C12.3428 139.387 12.6306 138.414 13.3296 138.13C14.0286 137.846 14.9332 138.332 15.3033 139.184Z" fill="#42423F"/>
<path d="M14.3161 139.671C14.4395 139.914 14.3573 140.198 14.1517 140.279C13.9461 140.361 13.6994 140.239 13.576 139.955C13.4527 139.712 13.5349 139.428 13.7405 139.346C13.9461 139.265 14.1928 139.387 14.3161 139.671Z" fill="#1C1C1D"/>
<path d="M12.5483 138.454C12.5483 138.454 15.3444 139.874 15.5499 139.915C15.7555 139.955 16.2078 139.793 16.9891 139.266C16.9891 139.266 17.1947 137.278 15.4266 136.953C13.6996 136.629 12.795 137.684 12.5483 138.454Z" fill="#7F98B9"/>
<path d="M15.5911 139.914C15.6322 139.144 15.4677 138.332 14.8098 137.927C14.0697 137.48 13.1651 137.602 12.6306 138.211C12.5895 138.292 12.5483 138.373 12.5483 138.454C12.5483 138.454 15.3444 139.874 15.5911 139.914Z" fill="#9CA9B2"/>
<path opacity="0.4" d="M15.4267 136.953C14.1931 136.71 13.3708 137.196 12.9185 137.764C13.4119 137.44 14.1109 137.359 14.6865 137.683C15.5089 138.129 15.7967 139.022 15.7556 139.914C16.0023 139.874 16.4135 139.671 16.9891 139.265C16.9891 139.265 17.1947 137.318 15.4267 136.953Z" fill="#1D1C1A"/>
<path d="M14.1929 135.939L14.234 137.359C14.234 137.359 14.7274 137.846 15.5498 137.237L15.4675 135.696L14.1929 135.939Z" fill="#7F98B9"/>
<path opacity="0.3" d="M15.4675 135.736L14.1929 135.939V136.71C14.234 136.548 14.234 136.507 14.3985 136.507C14.8919 136.629 15.0152 136.466 15.0152 136.71C15.0152 136.831 15.0152 137.278 15.0152 137.399C14.9741 137.562 14.8508 137.521 14.7274 137.562C14.933 137.562 15.2208 137.521 15.5498 137.278L15.4675 135.736Z" fill="#1D1C1A"/>
<path opacity="0.4" d="M15.5086 136.669L15.4675 135.736L14.1929 135.939V136.629C14.6041 136.872 15.0975 136.831 15.5086 136.669Z" fill="#32394B"/>
<path d="M13.5762 133.059L13.7818 136.101C13.7818 136.101 14.7686 136.994 15.8377 135.939L15.7965 132.978L13.5762 133.059Z" fill="#4A5B6A"/>
<path opacity="0.6" d="M14.7271 133.018L13.9048 133.059C13.987 134.154 14.0693 135.209 14.1104 136.304C14.316 136.385 14.5627 136.466 14.8916 136.466C14.8505 135.29 14.8094 134.154 14.7271 133.018Z" fill="#9CA9B2"/>
<path opacity="0.4" d="M15.8377 134.519L15.7965 132.978L13.5762 133.059L13.6584 134.438C14.3163 134.763 15.0564 134.722 15.8377 134.519Z" fill="#32394B"/>
<path d="M21.5531 131.396C20.6485 131.315 19.1272 131.72 18.7982 132.532C18.5104 133.343 19.5795 134.479 19.5795 134.479C19.9495 134.925 20.0729 135.047 20.8541 134.722C21.6354 134.398 22.4166 133.992 22.5811 133.343C22.7044 132.694 22.4577 131.477 21.5531 131.396Z" fill="#1C1C1D"/>
<path d="M21.1422 132.694C21.5122 133.586 21.2244 134.56 20.5254 134.844C19.7853 135.128 18.9218 134.641 18.5517 133.789C18.1817 132.897 18.4695 131.923 19.1685 131.639C19.8675 131.355 20.7721 131.842 21.1422 132.694Z" fill="#42423F"/>
<path d="M20.155 133.18C20.2784 133.424 20.1961 133.708 19.9905 133.789C19.785 133.87 19.5382 133.748 19.4149 133.464C19.2915 133.221 19.3738 132.937 19.5794 132.856C19.785 132.775 20.0317 132.897 20.155 133.18Z" fill="#1C1C1D"/>
<path d="M18.3867 131.964C18.3867 131.964 21.1827 133.383 21.3883 133.424C21.5939 133.465 22.0462 133.302 22.8275 132.775C22.8275 132.775 23.033 130.828 21.265 130.463C19.4969 130.138 18.6334 131.193 18.3867 131.964Z" fill="#7F98B9"/>
<path d="M21.4294 133.424C21.4706 132.654 21.3061 131.842 20.6482 131.437C19.9081 130.99 19.0035 131.112 18.469 131.721C18.4278 131.802 18.3867 131.883 18.3867 131.964C18.3867 131.964 21.1827 133.343 21.4294 133.424C21.3883 133.424 21.4294 133.424 21.4294 133.424Z" fill="#9CA9B2"/>
<path opacity="0.4" d="M21.265 130.463C20.0315 130.219 19.2091 130.706 18.7568 131.274C19.2503 130.949 19.9493 130.868 20.5249 131.193C21.3473 131.639 21.6351 132.532 21.594 133.424C21.8407 133.383 22.2519 133.181 22.8275 132.775C22.8275 132.775 22.992 130.828 21.265 130.463Z" fill="#1D1C1A"/>
<path d="M20.0317 129.449L20.0729 130.869C20.0729 130.869 20.5663 131.355 21.3886 130.747L21.3064 129.205L20.0317 129.449Z" fill="#7F98B9"/>
<path opacity="0.3" d="M21.3064 129.246L20.0317 129.449V130.219C20.0729 130.057 20.0729 130.017 20.2373 130.017C20.7307 130.138 20.8541 129.976 20.8541 130.219C20.8541 130.341 20.8541 130.787 20.8541 130.909C20.813 131.071 20.6896 131.031 20.5663 131.071C20.7719 131.071 21.0597 131.031 21.3886 130.787L21.3064 129.246Z" fill="#1D1C1A"/>
<path opacity="0.4" d="M21.3475 130.179L21.3064 129.246L20.0317 129.449V130.138C20.4429 130.382 20.8952 130.341 21.3475 130.179Z" fill="#32394B"/>
<path d="M19.415 126.568L19.6206 129.611C19.6206 129.611 20.6075 130.503 21.6765 129.448L21.6354 126.487L19.415 126.568Z" fill="#4A5B6A"/>
<path opacity="0.6" d="M20.566 126.528L19.7437 126.569C19.8259 127.664 19.9081 128.719 19.9492 129.814C20.1548 129.895 20.4015 129.976 20.7305 129.976C20.6894 128.8 20.6482 127.664 20.566 126.528Z" fill="#9CA9B2"/>
<path opacity="0.4" d="M21.635 128.029L21.5939 126.487L19.3735 126.568L19.4558 127.948C20.1137 128.272 20.8949 128.232 21.635 128.029Z" fill="#32394B"/>
<path d="M26.9396 130.138V127.055H21.7587C21.142 126.771 20.7308 126.568 20.7308 126.568C20.7308 126.568 19.3328 125.879 18.3871 126.406L16.4545 127.055H8.43652L8.47764 130.179C8.3954 130.463 8.51876 130.787 9.09441 131.193L14.1519 133.87C14.1519 133.87 15.0976 134.56 16.2489 134.235L25.6238 131.233C25.6649 131.274 27.2685 130.949 26.9396 130.138Z" fill="#9CA9B2"/>
<path d="M16.8242 126.933L16.4131 127.055H14.0693V133.83L14.1516 133.87C14.1516 133.87 15.0973 134.56 16.2486 134.235L16.7831 134.073V126.933H16.8242Z" fill="#9CA9B2"/>
<path d="M18.3457 123.08L9.50539 126C9.50539 126 7.40838 126.731 9.09421 127.866L14.1517 130.544C14.1517 130.544 15.0974 131.233 16.2487 130.949L25.6236 127.947C25.6236 127.947 27.515 127.582 26.7749 126.649C26.0759 125.716 20.6895 123.242 20.6895 123.242C20.6895 123.242 19.2915 122.552 18.3457 123.08Z" fill="#C8D4DB"/>
<path opacity="0.4" d="M26.775 126.609C26.076 125.676 20.6896 123.201 20.6896 123.201C20.6896 123.201 19.2916 122.512 18.3458 123.039L9.5055 125.96C9.5055 125.96 9.42326 126 9.25879 126.041C10.4512 125.838 11.6025 125.432 12.7949 125.108C13.7818 124.824 15.0564 124.418 16.0432 124.824C16.0844 124.864 16.0844 124.946 16.0432 124.986C15.6321 125.351 14.9742 125.919 15.0153 126.528C15.0564 127.258 15.8788 127.542 16.4544 127.582C17.6057 127.704 18.7159 127.461 19.8261 127.217C21.9231 126.771 24.1435 126.609 25.9527 127.745C26.4872 127.663 27.2684 127.258 26.775 126.609Z" fill="#9CA9B2"/>
<path d="M18.6744 126.365V39.7167H16.084V126.243C16.5774 126.974 17.9343 126.933 18.6744 126.365Z" fill="#9CA9B2"/>
<path opacity="0.4" d="M16.8652 126.73V39.7167H16.084V126.243C16.2485 126.487 16.5363 126.649 16.8652 126.73Z" fill="#32394B"/>
<path opacity="0.4" d="M18.6749 126.365V39.7167H17.8525V126.771C18.1404 126.69 18.4282 126.568 18.6749 126.365Z" fill="#32394B"/>
<path d="M2.22738 43.9763C1.61061 43.9763 0.993842 43.7329 0.45931 43.2461C-0.486402 42.3536 0.294838 40.5282 0.45931 40.1631C0.582663 39.8791 0.911606 39.7574 1.19943 39.8791C1.48726 40.0008 1.61061 40.3253 1.48726 40.6093C1.15831 41.2989 0.993842 42.2319 1.19943 42.4348C1.89844 43.0433 2.59744 43.0433 3.33756 42.3536C3.74874 41.9885 3.74874 41.7857 3.74874 41.5423C3.74874 41.0961 3.8721 40.6093 4.73557 40.2037C6.05135 39.6357 23.4853 38.5405 27.0626 38.2971C27.2682 38.2565 27.9672 38.2159 28.4195 38.6216C28.6662 38.8244 28.7896 39.1084 28.8307 39.4329C28.8307 39.514 28.9951 39.7574 29.3241 39.9603C29.5708 40.082 30.1876 40.3253 30.8866 39.9197C31.0922 39.798 31.3389 39.5952 31.38 39.3923C31.38 39.2301 31.2977 39.0678 31.2566 39.0272C31.051 38.9461 30.9277 38.7433 30.9277 38.5405C30.9277 38.2159 31.1744 37.9725 31.5033 37.9725C31.9967 37.9725 32.3668 38.581 32.449 38.9461C32.5313 39.3112 32.6546 40.2442 31.4211 40.8933C30.5987 41.3801 29.5708 41.3801 28.7484 40.9338C28.1317 40.6093 27.6794 40.0414 27.6794 39.514V39.4735C27.6382 39.4329 27.3915 39.3923 27.1448 39.4329H27.1037C19.1268 39.9197 6.13358 40.8527 5.14675 41.2178C4.85893 41.3395 4.81781 41.4206 4.81781 41.4206C4.81781 41.4612 4.81781 41.5423 4.81781 41.5829C4.81781 42.0291 4.73557 42.5565 4.03657 43.165C3.54315 43.6923 2.88527 43.9763 2.22738 43.9763Z" fill="#5D666C"/>
<path d="M15.8785 91.276H18.9212V96.509H15.8374L15.8785 91.276Z" fill="#B4B4B5"/>
<path d="M16.2898 91.276H16.6599V96.509H16.2898V91.276Z" fill="#B4B4B5"/>
<path d="M17.9346 91.276H18.9214V96.509H17.9346V91.276Z" fill="#B4B4B5"/>
<defs>
<linearGradient id="paint0_linear_44_5469" x1="89.9266" y1="8.44055" x2="89.9266" y2="15.1876" gradientUnits="userSpaceOnUse">
<stop stop-color="white"/>
<stop offset="1"/>
</linearGradient>
</defs>
</svg>
