<svg width="20" height="20" viewBox="0 0 20 20" fill="none" xmlns="http://www.w3.org/2000/svg">
<path d="M6.47899 1.8217C6.47899 3.48377 6.4696 3.68096 6.38509 4.00962C6.09401 5.15992 5.15972 6.09424 4.00946 6.38534C3.68082 6.46985 3.48363 6.47924 1.82163 6.47924H0L0.0234746 17.6771L0.145543 17.9916C0.492967 18.8837 1.11739 19.5081 2.00943 19.8556L2.32399 19.9776L6.33814 19.987C9.48844 19.9964 10.3335 19.987 10.2631 19.9401C9.92506 19.7194 9.35228 19.2546 9.05181 18.9494C7.64803 17.5456 6.91562 15.6488 7.01421 13.6768C7.17384 10.409 9.49313 7.75631 12.7467 7.10838C13.3852 6.98162 14.7421 6.99101 15.3853 7.12716C15.6482 7.1835 15.897 7.24454 15.9346 7.25863C16.0003 7.2868 16.0097 7.05674 16.0097 4.99559C16.0097 2.3992 16.0003 2.3053 15.6763 1.64329C15.4134 1.10805 14.8829 0.572806 14.3665 0.31927C13.7092 -0.00469137 13.7937 3.72553e-06 9.94384 3.72553e-06H6.47899V1.8217Z" fill="#007EA9"/>
<path d="M0.117373 5.46979L1.7606 5.48388C3.58223 5.49796 3.71838 5.48388 4.23012 5.22565C4.65736 5.00967 5.00948 4.65754 5.22545 4.23029C5.48367 3.71852 5.49775 3.58236 5.48367 1.76067L5.46958 0.11738L0.117373 5.46979Z" fill="#007EA9"/>
<path d="M13.3571 8.03332C10.9063 8.29155 8.79828 10.1226 8.19264 12.5124C7.86399 13.8083 7.96728 15.1699 8.48842 16.3812C8.80767 17.1183 9.1551 17.6207 9.77483 18.2499C10.6622 19.1466 11.7796 19.7194 13.0472 19.9307C14.005 20.0903 15.2632 19.9683 16.1411 19.6255C17.7092 19.0198 18.9863 17.7522 19.606 16.1887C19.9628 15.2826 20.0943 14.029 19.9299 13.0477C19.7187 11.7753 19.1459 10.6626 18.2492 9.7752C17.7938 9.32447 17.606 9.17423 17.1459 8.88783C16.4181 8.4324 15.5214 8.13192 14.6106 8.03332C14.0754 7.97698 13.9064 7.97698 13.3571 8.03332ZM14.2632 11.0429C14.573 11.118 14.897 11.4514 14.9721 11.7659C15.0848 12.226 14.8782 12.6721 14.4557 12.8834C14.0378 13.0899 13.6294 13.0242 13.3007 12.6956C12.9815 12.3763 12.9204 11.9725 13.127 11.5546C13.2585 11.2917 13.4979 11.0945 13.7655 11.0335C13.9862 10.9818 14.019 10.9818 14.2632 11.0429ZM14.2632 14.0477C14.4181 14.0853 14.5449 14.1651 14.6998 14.3201C14.9862 14.6065 15.0378 14.8365 15.0191 15.6582C15.0003 16.2028 14.9862 16.292 14.8829 16.4798C14.7045 16.7944 14.4322 16.9634 14.066 16.9869C13.7326 17.0103 13.5026 16.9211 13.2772 16.6817C13.0472 16.4375 13.0049 16.2638 13.0049 15.5032C13.0049 14.8459 13.0096 14.7943 13.127 14.5595C13.2585 14.2966 13.4979 14.0994 13.7655 14.0384C13.9862 13.9867 14.019 13.9867 14.2632 14.0477Z" fill="#007EA9"/>
</svg>
