<svg width="14" height="16" viewBox="0 0 14 16" fill="none" xmlns="http://www.w3.org/2000/svg">
<path d="M11.5561 16C11.9745 16 12.3214 15.6542 12.3214 15.2259V13.8634C13.2551 13.8015 14 13.017 14 12.0519V5.03315C14 4.03194 13.1939 3.21135 12.2041 3.21135H8.31123L10.1786 1.32248C10.4796 1.01798 10.4796 0.532856 10.1786 0.22838C9.87756 -0.0761267 9.39797 -0.0761267 9.09693 0.22838L6.45918 2.89138L4.90306 1.31732C4.60202 1.01281 4.11732 1.01281 3.82143 1.31732C3.52039 1.62183 3.52039 2.11208 3.82143 2.41142L4.61224 3.21135H1.7959C0.806104 3.21135 0 4.03195 0 5.03316V12.0519C0 13.017 0.744879 13.8015 1.67856 13.8634V15.2259C1.67856 15.6542 2.0255 16 2.44387 16C2.86735 16 3.20918 15.6542 3.20918 15.2259V13.8737H10.7908V15.2259C10.7908 15.6542 11.1327 16 11.5561 16Z" fill="#007EA9"/>
</svg>
