<svg width="16" height="16" viewBox="0 0 16 16" fill="none" xmlns="http://www.w3.org/2000/svg">
<path d="M16 8C16 12.4183 12.4183 16 8 16C3.58172 16 0 12.4183 0 8C0 3.58172 3.58172 0 8 0C12.4183 0 16 3.58172 16 8Z" fill="#007EA9"/>
<path d="M8.06226 3.42834V12.6969V3.42834Z" fill="white"/>
<path d="M9.44115 4.42141C9.025 4.63863 8.54816 4.7531 8.06226 4.75243C7.57637 4.7531 7.09952 4.63863 6.68337 4.42141" fill="white"/>
<path d="M6.68337 11.7039C7.09983 11.4873 7.57647 11.3728 8.06226 11.3728C8.54805 11.3728 9.0247 11.4873 9.44115 11.7039" fill="white"/>
<path d="M12.6965 5.74549L3.42798 10.3798L12.6965 5.74549Z" fill="white"/>
<path d="M12.3927 7.27646C11.9678 7.07238 11.615 6.77202 11.3721 6.40757C11.1292 6.04311 11.0055 5.6283 11.014 5.20758" fill="white"/>
<path d="M3.73185 8.8488C4.15677 9.05288 4.50956 9.35324 4.75242 9.71769C4.99528 10.0821 5.11906 10.497 5.1105 10.9177" fill="white"/>
<path d="M3.42798 5.74549L12.6965 10.3798L3.42798 5.74549Z" fill="white"/>
<path d="M3.73185 7.27646C4.15677 7.07238 4.50956 6.77202 4.75242 6.40757C4.99528 6.04311 5.11906 5.6283 5.1105 5.20758" fill="white"/>
<path d="M12.3927 8.8488C11.9678 9.05288 11.615 9.35324 11.3721 9.71769C11.1292 10.0821 11.0055 10.497 11.014 10.9177" fill="white"/>
<path d="M8.06226 3.42834V12.6969M9.44115 4.42141C9.025 4.63863 8.54816 4.7531 8.06226 4.75243C7.57637 4.7531 7.09952 4.63863 6.68337 4.42141M6.68337 11.7039C7.09983 11.4873 7.57647 11.3728 8.06226 11.3728C8.54805 11.3728 9.0247 11.4873 9.44115 11.7039M12.6965 5.74549L3.42798 10.3798M12.3927 7.27646C11.9678 7.07238 11.615 6.77202 11.3721 6.40757C11.1292 6.04311 11.0055 5.6283 11.014 5.20758M3.73185 8.8488C4.15677 9.05288 4.50956 9.35324 4.75242 9.71769C4.99528 10.0821 5.11906 10.497 5.1105 10.9177M3.42798 5.74549L12.6965 10.3798M3.73185 7.27646C4.15677 7.07238 4.50956 6.77202 4.75242 6.40757C4.99528 6.04311 5.11906 5.6283 5.1105 5.20758M12.3927 8.8488C11.9678 9.05288 11.615 9.35324 11.3721 9.71769C11.1292 10.0821 11.0055 10.497 11.014 10.9177" stroke="white" stroke-linecap="round" stroke-linejoin="round"/>
</svg>
