<svg width="190" height="163" viewBox="0 0 190 163" fill="none" xmlns="http://www.w3.org/2000/svg">
<g opacity="0.5">
<path d="M114.891 105.961C113.74 105.839 111.766 106.367 111.355 107.421C110.985 108.476 112.342 109.896 112.342 109.896C112.835 110.464 113 110.626 113.987 110.22C114.973 109.774 116.001 109.287 116.207 108.476C116.371 107.624 116.042 106.083 114.891 105.961Z" fill="#1C1C1D"/>
<path d="M114.356 107.665C114.85 108.801 114.48 110.018 113.534 110.423C112.63 110.788 111.478 110.18 110.985 109.044C110.491 107.908 110.861 106.691 111.807 106.285C112.753 105.88 113.904 106.529 114.356 107.665Z" fill="#42423F"/>
<path d="M113.082 108.232C113.206 108.557 113.123 108.922 112.836 109.044C112.548 109.165 112.219 108.963 112.096 108.638C111.972 108.314 112.054 107.948 112.342 107.827C112.63 107.705 112.959 107.908 113.082 108.232Z" fill="#1C1C1D"/>
<path d="M110.821 106.691C110.821 106.691 114.398 108.517 114.686 108.557C114.974 108.638 115.508 108.395 116.536 107.746C116.536 107.746 116.783 105.231 114.521 104.785C112.301 104.338 111.15 105.677 110.821 106.691Z" fill="#7F98B9"/>
<path d="M114.727 108.557C114.809 107.584 114.563 106.569 113.699 106.001C112.753 105.393 111.561 105.555 110.944 106.367C110.903 106.448 110.862 106.569 110.821 106.651C110.821 106.691 114.439 108.476 114.727 108.557Z" fill="#9CA9B2"/>
<path opacity="0.4" d="M114.522 104.785C112.918 104.46 111.89 105.069 111.314 105.799C111.972 105.393 112.836 105.312 113.576 105.718C114.645 106.285 115.015 107.462 114.933 108.557C115.262 108.517 115.755 108.233 116.536 107.746C116.536 107.746 116.783 105.231 114.522 104.785Z" fill="#1D1C1A"/>
<path d="M112.958 103.486L113 105.312C113 105.312 113.616 105.961 114.685 105.19L114.562 103.202L112.958 103.486Z" fill="#7F98B9"/>
<path opacity="0.3" d="M114.562 103.202L112.958 103.486V104.46C113.041 104.257 113.041 104.176 113.205 104.217C113.822 104.338 113.986 104.135 113.986 104.46C113.986 104.582 113.986 105.19 113.986 105.352C113.945 105.555 113.781 105.515 113.575 105.596C113.863 105.596 114.192 105.515 114.644 105.231L114.562 103.202Z" fill="#1D1C1A"/>
<path opacity="0.4" d="M114.644 104.379L114.562 103.202L112.958 103.486V104.379C113.493 104.663 114.069 104.622 114.644 104.379Z" fill="#32394B"/>
<path d="M112.136 99.7542L112.424 103.649C112.424 103.649 113.699 104.784 115.056 103.446L114.973 99.6731L112.136 99.7542Z" fill="#4A5B6A"/>
<path opacity="0.6" d="M113.657 99.7136L112.588 99.7542C112.671 101.133 112.794 102.513 112.835 103.892C113.082 104.014 113.411 104.135 113.822 104.095C113.781 102.634 113.74 101.174 113.657 99.7136Z" fill="#9CA9B2"/>
<path opacity="0.4" d="M115.014 101.661L114.973 99.6731L112.136 99.7948L112.26 101.58C113.082 101.985 114.069 101.945 115.014 101.661Z" fill="#32394B"/>
<path d="M94.2085 107.827C93.0572 107.705 91.0835 108.232 90.6723 109.287C90.3023 110.342 91.6592 111.762 91.6592 111.762C92.1526 112.33 92.3171 112.492 93.3039 112.086C94.2907 111.64 95.3187 111.153 95.5243 110.342C95.6887 109.449 95.4009 107.908 94.2085 107.827Z" fill="#1C1C1D"/>
<path d="M93.7154 109.49C94.2088 110.626 93.8387 111.843 92.893 112.248C91.9884 112.614 90.8371 112.005 90.3437 110.869C89.8503 109.733 90.2204 108.516 91.1661 108.111C92.0707 107.746 93.222 108.354 93.7154 109.49Z" fill="#42423F"/>
<path d="M92.4403 110.058C92.5636 110.383 92.4814 110.748 92.1936 110.869C91.9058 110.991 91.5768 110.788 91.4535 110.464C91.3301 110.139 91.4123 109.774 91.7002 109.653C91.9469 109.571 92.2758 109.734 92.4403 110.058Z" fill="#1C1C1D"/>
<path d="M90.1792 108.516C90.1792 108.516 93.7565 110.342 94.0443 110.382C94.3321 110.464 94.8666 110.22 95.8946 109.571C95.8946 109.571 96.1413 107.056 93.8798 106.61C91.6183 106.164 90.467 107.543 90.1792 108.516Z" fill="#7F98B9"/>
<path d="M94.0854 110.383C94.1676 109.409 93.9209 108.395 93.0575 107.827C92.1117 107.218 90.9193 107.381 90.3026 108.192C90.2614 108.273 90.2203 108.395 90.1792 108.476C90.1792 108.517 93.7565 110.301 94.0854 110.383C94.0443 110.383 94.0443 110.383 94.0854 110.383Z" fill="#9CA9B2"/>
<path opacity="0.4" d="M93.88 106.61C92.2765 106.285 91.2485 106.894 90.6729 107.624C91.3307 107.218 92.1942 107.137 92.9343 107.543C94.0034 108.111 94.3735 109.287 94.2912 110.382C94.6202 110.342 95.1136 110.058 95.8948 109.571C95.8537 109.571 96.1004 107.056 93.88 106.61Z" fill="#1D1C1A"/>
<path d="M92.2764 105.312L92.3175 107.137C92.3175 107.137 92.9343 107.786 94.0033 107.016L93.88 105.028L92.2764 105.312Z" fill="#7F98B9"/>
<path opacity="0.3" d="M93.88 105.028L92.2764 105.312V106.285C92.3586 106.083 92.3586 106.001 92.5231 106.042C93.1398 106.164 93.3043 105.961 93.3043 106.285C93.3043 106.407 93.3043 107.016 93.3043 107.178C93.2632 107.381 93.0987 107.34 92.8931 107.421C93.181 107.421 93.5099 107.34 93.9622 107.056L93.88 105.028Z" fill="#1D1C1A"/>
<path opacity="0.4" d="M93.9622 106.204L93.88 105.028L92.2764 105.312V106.204C92.8109 106.488 93.3865 106.448 93.9622 106.204Z" fill="#32394B"/>
<path d="M91.4951 101.58L91.7829 105.474C91.7829 105.474 93.0576 106.61 94.4145 105.271L94.3323 101.499L91.4951 101.58Z" fill="#4A5B6A"/>
<path opacity="0.6" d="M92.9753 101.539L91.9062 101.58C91.9885 102.959 92.1118 104.338 92.153 105.718C92.3997 105.839 92.7286 105.961 93.1398 105.92C93.0987 104.46 93.0576 103 92.9753 101.539Z" fill="#9CA9B2"/>
<path opacity="0.4" d="M94.3319 103.487L94.2907 101.499L91.4536 101.62L91.577 103.405C92.3993 103.811 93.3862 103.77 94.3319 103.487Z" fill="#32394B"/>
<path d="M100.829 111.032C99.6773 110.91 97.7036 111.437 97.2925 112.492C96.9224 113.547 98.2793 114.967 98.2793 114.967C98.7727 115.534 98.9372 115.697 99.924 115.291C100.911 114.845 101.939 114.358 102.144 113.547C102.309 112.695 101.98 111.153 100.829 111.032Z" fill="#1C1C1D"/>
<path d="M100.294 112.736C100.787 113.871 100.417 115.088 99.4716 115.494C98.567 115.859 97.4157 115.251 96.9223 114.115C96.4289 112.979 96.799 111.762 97.7447 111.356C98.6904 110.991 99.8417 111.6 100.294 112.736Z" fill="#42423F"/>
<path d="M99.0194 113.303C99.1427 113.628 99.0605 113.993 98.7727 114.114C98.4849 114.236 98.1559 114.033 98.0326 113.709C97.9092 113.384 97.9914 113.019 98.2793 112.898C98.5671 112.776 98.896 112.979 99.0194 113.303Z" fill="#1C1C1D"/>
<path d="M96.7578 111.762C96.7578 111.762 100.335 113.587 100.623 113.628C100.911 113.709 101.445 113.466 102.473 112.816C102.473 112.816 102.72 110.301 100.458 109.855C98.2381 109.409 97.0868 110.748 96.7578 111.762Z" fill="#7F98B9"/>
<path d="M100.664 113.628C100.746 112.654 100.5 111.64 99.6361 111.072C98.6904 110.464 97.4979 110.626 96.8812 111.437C96.84 111.518 96.7989 111.64 96.7578 111.721C96.7578 111.762 100.376 113.547 100.664 113.628Z" fill="#9CA9B2"/>
<path opacity="0.4" d="M100.459 109.855C98.8551 109.531 97.8271 110.139 97.2515 110.87C97.9094 110.464 98.7728 110.383 99.5129 110.788C100.582 111.356 100.952 112.533 100.87 113.628C101.199 113.587 101.692 113.303 102.473 112.817C102.473 112.817 102.72 110.302 100.459 109.855Z" fill="#1D1C1A"/>
<path d="M98.896 108.557L98.9371 110.383C98.9371 110.383 99.5539 111.032 100.623 110.261L100.5 108.273L98.896 108.557Z" fill="#7F98B9"/>
<path opacity="0.3" d="M100.5 108.273L98.896 108.557V109.531C98.9782 109.328 98.9782 109.247 99.1427 109.287C99.7595 109.409 99.9239 109.206 99.9239 109.531C99.9239 109.652 99.9239 110.261 99.9239 110.423C99.8828 110.626 99.7184 110.585 99.5128 110.667C99.8006 110.667 100.13 110.585 100.582 110.301L100.5 108.273Z" fill="#1D1C1A"/>
<path opacity="0.4" d="M100.582 109.45L100.5 108.273L98.896 108.557V109.45C99.4305 109.734 100.006 109.693 100.582 109.45Z" fill="#32394B"/>
<path d="M98.0737 104.825L98.3616 108.719C98.3616 108.719 99.6362 109.855 100.993 108.517L100.911 104.744L98.0737 104.825Z" fill="#4A5B6A"/>
<path opacity="0.6" d="M99.5954 104.784L98.5264 104.825C98.6086 106.204 98.732 107.583 98.7731 108.963C99.0198 109.084 99.3487 109.206 99.7599 109.166C99.7188 107.705 99.6777 106.245 99.5954 104.784Z" fill="#9CA9B2"/>
<path opacity="0.4" d="M100.952 106.732L100.911 104.744L98.0737 104.866L98.1971 106.65C99.0194 107.056 100.006 107.016 100.952 106.732Z" fill="#32394B"/>
<path d="M108.271 102.715C107.12 102.594 105.146 103.121 104.735 104.176C104.365 105.231 105.722 106.65 105.722 106.65C106.215 107.218 106.38 107.381 107.366 106.975C108.353 106.529 109.381 106.042 109.587 105.231C109.751 104.379 109.463 102.837 108.271 102.715Z" fill="#1C1C1D"/>
<path d="M107.778 104.419C108.271 105.555 107.901 106.772 106.956 107.178C106.051 107.543 104.9 106.934 104.406 105.799C103.913 104.663 104.283 103.446 105.229 103.04C106.133 102.675 107.284 103.284 107.778 104.419Z" fill="#42423F"/>
<path d="M106.503 104.987C106.626 105.312 106.544 105.677 106.256 105.799C105.968 105.92 105.639 105.717 105.516 105.393C105.393 105.068 105.475 104.703 105.763 104.582C106.009 104.46 106.338 104.663 106.503 104.987Z" fill="#1C1C1D"/>
<path d="M104.241 103.446C104.241 103.446 107.818 105.271 108.106 105.312C108.394 105.393 108.929 105.149 109.957 104.5C109.957 104.5 110.203 101.985 107.942 101.539C105.68 101.093 104.529 102.472 104.241 103.446Z" fill="#7F98B9"/>
<path d="M108.147 105.312C108.23 104.338 107.983 103.324 107.119 102.756C106.174 102.148 104.981 102.31 104.365 103.121C104.323 103.203 104.282 103.324 104.241 103.405C104.241 103.446 107.818 105.231 108.147 105.312C108.106 105.312 108.106 105.312 108.147 105.312Z" fill="#9CA9B2"/>
<path opacity="0.4" d="M107.942 101.539C106.338 101.215 105.311 101.823 104.735 102.553C105.393 102.148 106.256 102.067 106.996 102.472C108.065 103.04 108.435 104.217 108.353 105.312C108.682 105.271 109.176 104.987 109.957 104.501C109.916 104.501 110.162 101.985 107.942 101.539Z" fill="#1D1C1A"/>
<path d="M106.339 100.241L106.38 102.066C106.38 102.066 106.997 102.716 108.066 101.945L107.942 99.957L106.339 100.241Z" fill="#7F98B9"/>
<path opacity="0.3" d="M107.942 99.957L106.339 100.241V101.215C106.421 101.012 106.421 100.931 106.586 100.971C107.202 101.093 107.367 100.89 107.367 101.215C107.367 101.336 107.367 101.945 107.367 102.107C107.326 102.31 107.161 102.269 106.956 102.35C107.243 102.35 107.572 102.269 108.025 101.985L107.942 99.957Z" fill="#1D1C1A"/>
<path opacity="0.4" d="M108.025 101.133L107.942 99.957L106.339 100.241V101.133C106.873 101.417 107.449 101.377 108.025 101.133Z" fill="#32394B"/>
<path d="M105.558 96.5091L105.845 100.403C105.845 100.403 107.12 101.539 108.477 100.201L108.395 96.428L105.558 96.5091Z" fill="#4A5B6A"/>
<path opacity="0.6" d="M107.038 96.4685L105.969 96.5091C106.051 97.8883 106.174 99.2675 106.215 100.647C106.462 100.768 106.791 100.89 107.202 100.85C107.161 99.3892 107.12 97.9289 107.038 96.4685Z" fill="#9CA9B2"/>
<path opacity="0.4" d="M108.395 98.4157L108.354 96.428L105.517 96.5497L105.64 98.3346C106.462 98.7402 107.449 98.6997 108.395 98.4157Z" fill="#32394B"/>
<path d="M115.179 101.134V97.1988H108.559C107.778 96.8337 107.202 96.5498 107.202 96.5498C107.202 96.5498 105.434 95.6573 104.2 96.347L101.692 97.1583H91.5361L91.5773 101.174C91.495 101.539 91.6595 101.945 92.3996 102.472L98.8551 105.92C98.8551 105.92 100.048 106.813 101.569 106.407L113.575 102.554C113.534 102.554 115.631 102.148 115.179 101.134Z" fill="#9CA9B2"/>
<path d="M102.267 96.9958L101.774 97.1581H98.7725V105.839L98.8547 105.88C98.8547 105.88 100.047 106.772 101.568 106.367L102.267 106.123V96.9958Z" fill="#9CA9B2"/>
<path d="M104.2 92.047L92.8519 95.7791C92.8519 95.7791 90.1792 96.7121 92.3174 98.1319L98.7729 101.58C98.7729 101.58 99.9653 102.472 101.487 102.067L113.493 98.213C113.493 98.213 115.878 97.7262 114.973 96.5498C114.069 95.3734 107.161 92.2093 107.161 92.2093C107.161 92.2093 105.434 91.3574 104.2 92.047Z" fill="#C8D4DB"/>
<path opacity="0.4" d="M114.973 96.59C114.069 95.4136 107.161 92.2495 107.161 92.2495C107.161 92.2495 105.393 91.357 104.159 92.0467L92.8108 95.7787C92.8108 95.7787 92.6874 95.8193 92.5229 95.9004C94.0443 95.657 95.5657 95.1297 97.0459 94.724C98.3206 94.3995 99.9653 93.8315 101.24 94.3995C101.322 94.44 101.322 94.5212 101.281 94.6023C100.788 95.0891 99.9242 95.7787 99.9653 96.5495C100.006 97.4825 101.034 97.8476 101.816 97.8881C103.255 98.0504 104.735 97.7259 106.133 97.4419C108.806 96.874 111.684 96.6712 113.987 98.1315C114.603 97.9287 115.631 97.4419 114.973 96.59Z" fill="#9CA9B2"/>
<path d="M101.322 69.127V96.1032C101.939 97.0363 103.666 96.9957 104.652 96.2655V69.0864H101.322V69.127Z" fill="#9CA9B2"/>
<path opacity="0.4" d="M101.322 69.1272V96.1034C101.527 96.428 101.897 96.6308 102.309 96.7525V69.1272H101.322Z" fill="#32394B"/>
<path opacity="0.4" d="M103.542 69.127V96.7523C103.954 96.6712 104.324 96.5089 104.612 96.2655V69.0864H103.542V69.127Z" fill="#32394B"/>
<path d="M111.725 67.9101C111.725 69.2082 110.656 70.2629 109.34 70.2629H96.0587C94.7429 70.2629 93.6738 69.2082 93.6738 67.9101V58.1744C93.6738 56.8762 94.7429 55.8215 96.0587 55.8215H109.34C110.656 55.8215 111.725 56.8762 111.725 58.1744V67.9101Z" fill="#7E7F80"/>
<path d="M111.725 61.3385V58.1744C111.725 56.8762 110.656 55.8215 109.34 55.8215H96.0587C94.7429 55.8215 93.6738 56.8762 93.6738 58.1744V61.3385H111.725Z" fill="#7E7F80"/>
<path d="M103.964 1.91563L96.0767 11.4292L96.9359 12.1226L104.824 2.60905L103.964 1.91563Z" fill="#C7C5C4"/>
<path d="M103.049 3.12644C103.172 3.49153 103.337 3.81605 103.583 4.05945L104.817 2.55851L103.954 1.8689L103.008 3.00474C103.049 3.0453 103.049 3.08587 103.049 3.12644Z" fill="#C7C5C4"/>
<path d="M99.7185 7.021L96.1001 11.4021L96.9636 12.0917L101.158 7.021C100.664 7.021 100.171 7.021 99.7185 7.021Z" fill="#C7C5C4"/>
<path d="M106.507 2.50245L104.863 2.55908L106.419 46.506L108.063 46.4494L106.507 2.50245Z" fill="#C7C5C4"/>
<path d="M108.024 46.4507H107.119L105.762 2.07178L106.461 2.518L108.024 46.4507Z" fill="#919192"/>
<path d="M106.544 4.22183L106.503 2.51807L104.858 2.55863L104.941 4.34353C105.434 4.46522 106.01 4.38409 106.544 4.22183Z" fill="#C7C5C4"/>
<path d="M107.243 2.07203C107.201 1.34184 107.078 0.81449 106.544 0.287134C106.338 0.0843055 106.009 0.00317383 105.721 0.00317383C104.858 0.00317383 103.912 0.0843053 103.419 0.895621C102.884 1.7475 103.254 3.77579 104.488 3.77579C105.146 3.77579 105.803 3.85692 106.42 3.57296C107.037 3.289 107.284 2.68052 107.243 2.07203Z" fill="#ECECEC"/>
<path opacity="0.3" d="M107.243 2.07191C107.201 1.34173 107.078 0.814374 106.544 0.287018C106.379 0.124755 106.174 0.0436236 105.927 0.00305782C105.063 -0.037508 104.57 0.327584 104.282 0.976637C104.077 1.46343 104.118 1.90965 103.912 2.39644C103.871 2.51814 103.665 2.59927 103.542 2.47757C103.131 2.07191 103.172 1.34173 103.419 0.85494C102.884 1.70682 103.254 3.73511 104.488 3.73511C105.146 3.73511 105.803 3.81624 106.42 3.53228C107.037 3.28889 107.284 2.6804 107.243 2.07191Z" fill="#C7C5C4"/>
<path d="M107.243 2.07191C107.202 1.42286 107.037 0.449278 106.338 0.205883C106.092 0.124752 105.721 0.0841858 105.475 0.165317C104.735 0.368146 104.282 1.22003 104.241 1.95021C104.241 2.39644 104.365 2.84266 104.611 3.20775C105.022 3.8568 105.763 3.8568 106.462 3.57284C107.037 3.28888 107.284 2.6804 107.243 2.07191Z" fill="#C7C5C4"/>
<path d="M106.462 2.55856C106.338 2.88309 105.927 3.00479 105.68 2.68026C105.475 2.43687 105.516 1.99064 105.598 1.70668C105.639 1.54442 105.721 1.38216 105.886 1.30102C106.174 1.17933 106.379 1.38216 106.462 1.62555C106.544 1.95008 106.585 2.2746 106.462 2.55856Z" fill="#B3B2B3"/>
<path d="M106.461 1.66613C106.379 1.42273 106.174 1.17934 105.886 1.3416C105.845 1.3416 105.845 1.38217 105.804 1.42273C105.886 1.42273 106.009 1.4633 106.091 1.50386C106.338 1.74726 106.338 2.19348 106.256 2.51801C106.174 2.7614 105.845 2.8831 105.68 2.68027C105.68 2.72084 105.721 2.72084 105.721 2.7614C105.927 3.04536 106.379 2.92367 106.503 2.63971C106.585 2.27461 106.544 1.95009 106.461 1.66613Z" fill="#9A9A99"/>
<path d="M103.378 7.58892C103.378 7.58892 104.571 7.46722 104.571 8.64363C104.612 9.82004 103.995 27.7501 103.995 27.7501C103.995 27.7501 104.201 29.6161 103.09 29.6567L78.9542 29.2105C78.9542 29.2105 76.8983 29.3727 76.7338 27.7095C76.6105 26.6143 76.6516 8.07571 76.6516 8.07571C76.6516 8.07571 76.7338 7.22383 78.1318 7.021L103.378 7.58892Z" fill="#939291"/>
<path d="M104.283 19.718C104.159 23.9369 104.036 27.75 104.036 27.75C104.036 27.75 104.241 29.6161 103.131 29.6566L78.995 29.2104C78.995 29.2104 76.9391 29.3727 76.7746 27.7095C76.7335 27.2633 76.6924 23.6935 76.6924 19.7586H104.283V19.718Z" fill="#575857"/>
<path d="M101.857 9.17115L104.283 7.87305C104.447 8.03531 104.571 8.2787 104.571 8.6438C104.612 9.8202 103.995 27.7503 103.995 27.7503C103.995 27.7503 104.118 29.0078 103.584 29.454L101.117 27.7908L101.857 9.17115Z" fill="#ADACAA"/>
<path d="M76.6516 8.03515C76.6516 8.03515 76.6927 7.58893 77.2684 7.2644L77.6795 8.48138L77.9674 27.7907C77.9674 27.7907 77.5151 28.2369 77.145 28.6426C76.9394 28.4397 76.775 28.1152 76.7338 27.7096C76.6105 26.5737 76.6516 8.03515 76.6516 8.03515Z" fill="#6B6C6B"/>
<path d="M101.61 9.37379C101.61 9.37379 102.679 9.29266 102.679 10.3474C102.72 11.4021 102.185 27.4661 102.185 27.4661C102.185 27.4661 102.35 29.1293 101.363 29.1699L79.7351 28.7642C79.7351 28.7642 77.8848 28.8859 77.7614 27.385C77.6792 26.4114 77.6792 9.77945 77.6792 9.77945C77.6792 9.77945 77.7203 9.0087 78.995 8.84644L101.61 9.37379Z" fill="#7E7E7E"/>
<path opacity="0.4" d="M77.8026 21.5031C78.7483 22.2333 79.8173 22.8012 80.8864 23.3285C83.3124 24.4238 85.985 25.0323 88.6988 25.1134C90.7136 25.1946 92.7695 25.0729 94.7842 24.7483C97.3336 24.3833 100.13 23.6936 102.35 22.2738C102.268 25.154 102.185 27.4257 102.185 27.4257C102.185 27.4257 102.35 29.0889 101.363 29.1295L79.7351 28.7238C79.7351 28.7238 77.8848 28.8455 77.7614 27.3446C77.7203 26.9795 77.7203 24.4238 77.6792 21.3408C77.7203 21.422 77.7614 21.4625 77.8026 21.5031Z" fill="#7E7E7E"/>
<path d="M103.46 7.91346C104.036 8.03515 104.241 8.48138 104.282 8.8059C104.323 8.96817 104.364 9.21156 104.364 9.53609C104.364 10.6719 103.83 27.8718 103.83 27.8718C103.83 27.8718 103.83 29.0482 103.46 29.0482C103.46 29.0482 103.665 28.6831 103.665 27.4662C103.665 26.2898 104.036 9.82005 104.036 9.82005C104.036 9.82005 103.994 9.21156 103.871 8.84647C103.83 8.76534 103.789 8.68421 103.707 8.64364C103.707 8.64364 103.707 8.64364 103.665 8.64364C103.583 8.60308 103.583 8.60307 103.583 8.56251C103.213 8.23798 102.638 8.23798 102.638 8.23798L77.9668 7.2644C77.9668 7.2644 102.555 7.71063 103.46 7.91346Z" fill="white"/>
<path d="M77.9668 26.0057C77.9668 26.0057 77.9668 12.4973 77.9668 10.8747C77.9668 9.25206 79.1181 9.45489 79.1181 9.45489L100.458 9.94168C100.458 9.94168 102.35 9.53602 102.062 11.5237L101.774 26.4925C101.774 26.4925 101.733 28.5614 100.417 28.4802L79.2003 28.1152C79.1592 28.1557 77.9668 27.9935 77.9668 26.0057Z" fill="#221F1F"/>
<path d="M77.9668 26.0057C77.9668 26.0057 77.9668 12.4973 77.9668 10.8747C77.9668 9.25206 79.1181 9.45489 79.1181 9.45489L100.458 9.94168C100.458 9.94168 102.35 9.53602 102.062 11.5237L101.774 26.4925C101.774 26.4925 101.733 28.5614 100.417 28.4802L79.2003 28.1152C79.1592 28.1557 77.9668 27.9935 77.9668 26.0057Z" fill="black"/>
<path d="M78.625 25.1132C78.625 25.1132 78.625 12.3755 78.625 10.834C78.625 9.29255 79.6941 9.49538 79.6941 9.49538L99.8418 9.98216C99.8418 9.98216 101.61 9.57651 101.322 11.4831L101.034 25.6406C101.034 25.6406 100.993 27.6283 99.7596 27.5471L79.6941 27.1821C79.7763 27.1415 78.625 26.9792 78.625 25.1132Z" fill="#2D282A"/>
<path opacity="0.9" d="M101.116 15.2558C100.87 14.7284 100.582 14.2011 100.253 13.7143C99.965 13.3086 99.6772 13.0247 99.2249 12.7813C98.3614 12.335 97.3746 12.0916 96.3878 11.9294C95.3187 11.7671 94.2496 11.686 93.1806 11.6454C92.1115 11.6048 91.0424 11.6048 90.0145 11.5643C88.5754 11.5237 87.1362 11.4426 85.7382 11.4426C84.3813 11.4426 82.9833 11.5237 81.7087 11.8482C80.8452 12.0916 80.1051 12.5379 79.6116 13.2275C79.036 13.9982 78.7071 14.8907 78.5015 15.7831C78.5015 12.9841 78.5015 10.753 78.5015 10.753C78.5015 10.753 78.5426 10.0633 79.735 9.94165L100.5 10.4284C100.5 10.4284 101.486 10.3473 101.486 11.2803C101.486 11.6048 101.445 13.4303 101.363 15.702C101.24 15.5397 101.199 15.418 101.116 15.2558Z" fill="url(#paint0_linear_216_2006)"/>
<path d="M112.259 57.7279C112.259 59.2694 110.985 60.527 109.422 60.527H93.674C92.1116 60.527 90.8369 59.2694 90.8369 57.7279V46.2072C90.8369 44.6657 92.1116 43.4082 93.674 43.4082H109.422C110.985 43.4082 112.259 44.6657 112.259 46.2072V57.7279Z" fill="#C7C5C4"/>
<path d="M92.1938 43.8545C91.3714 44.3413 90.8369 45.2337 90.8369 46.2073V57.728C90.8369 58.7421 91.3714 59.594 92.1938 60.0808V43.8545Z" fill="#C7C5C4"/>
<path d="M99.3484 43.4082H96.1001V60.527H99.3484V43.4082Z" fill="#C7C5C4"/>
<path d="M109.463 43.4082H107.983V60.527H109.422C110.985 60.527 112.259 59.2694 112.259 57.7279V46.2072C112.259 44.6657 111.026 43.4082 109.463 43.4082Z" fill="#C7C5C4"/>
<path d="M113.205 44.9906C113.205 45.883 111.931 46.5727 110.368 46.5727H92.4406C90.8782 46.5727 89.6035 45.8425 89.6035 44.9906V44.4227C89.6035 43.5302 90.8782 42.8 92.4406 42.8H110.368C111.931 42.8 113.205 43.5302 113.205 44.4227V44.9906Z" fill="#7E7F80"/>
<path d="M113.205 44.1385C113.205 45.031 111.931 45.7206 110.368 45.7206H92.4406C90.8782 45.7206 89.6035 44.9904 89.6035 44.1385V43.5706C89.6035 42.6781 90.8782 41.9885 92.4406 41.9885H110.368C111.931 41.9885 113.205 42.7187 113.205 43.5706V44.1385Z" fill="#C7C5C4"/>
<path d="M112.259 44.1791C112.259 44.9093 111.067 45.4772 109.628 45.4772H92.8518C91.3715 45.4772 90.2202 44.9093 90.2202 44.1791V43.7329C90.2202 43.0027 91.4126 42.4348 92.8518 42.4348H109.628C111.108 42.4348 112.259 43.0027 112.259 43.7329V44.1791Z" fill="#4C7A8F"/>
<path d="M112.259 44.0574C112.259 44.7471 111.067 45.2744 109.628 45.2744H92.8518C91.3715 45.2744 90.2202 44.7471 90.2202 44.0574V43.6518C90.2202 42.9622 91.4126 42.4348 92.8518 42.4348H109.628C111.108 42.4348 112.259 42.9622 112.259 43.6518V44.0574Z" fill="#6EACCB"/>
<path d="M94.0442 43.1651C93.9208 43.1245 93.7564 43.084 93.5508 43.084C93.3452 43.084 93.1807 43.1245 93.0574 43.1651H92.7695V43.4085C92.7695 43.5708 93.1396 43.733 93.5508 43.733C93.9619 43.733 94.332 43.5708 94.332 43.4085V43.1651H94.0442Z" fill="#E4E0CF"/>
<path d="M94.332 43.1651C94.332 43.3274 93.9619 43.4896 93.5508 43.4896C93.1396 43.4896 92.7695 43.3274 92.7695 43.1651C92.7695 43.0028 93.1396 42.8406 93.5508 42.8406C93.9619 42.8406 94.332 43.0028 94.332 43.1651Z" fill="#FFF2E7"/>
<path d="M94.0442 44.2603C93.9208 44.2198 93.7564 44.1792 93.5508 44.1792C93.3452 44.1792 93.1807 44.2198 93.0574 44.2603H92.7695V44.5037C92.7695 44.666 93.1396 44.8283 93.5508 44.8283C93.9619 44.8283 94.332 44.666 94.332 44.5037V44.2603H94.0442Z" fill="#E4E0CF"/>
<path d="M94.332 44.2603C94.332 44.4226 93.9619 44.5848 93.5508 44.5848C93.1396 44.5848 92.7695 44.4226 92.7695 44.2603C92.7695 44.0981 93.1396 43.9358 93.5508 43.9358C93.9619 43.9358 94.332 44.0981 94.332 44.2603Z" fill="#FFF2E7"/>
<path d="M95.8538 43.1651C95.7304 43.1245 95.5659 43.084 95.3603 43.084C95.1548 43.084 94.9903 43.1245 94.8669 43.1651H94.5791V43.4085C94.5791 43.5708 94.908 43.733 95.3603 43.733C95.7715 43.733 96.1416 43.5708 96.1416 43.4085V43.1651H95.8538Z" fill="#E4E0CF"/>
<path d="M96.1826 43.1651C96.1826 43.3274 95.8125 43.4896 95.4014 43.4896C94.9902 43.4896 94.6201 43.3274 94.6201 43.1651C94.6201 43.0028 94.9491 42.8406 95.4014 42.8406C95.8125 42.8406 96.1826 43.0028 96.1826 43.1651Z" fill="#FFF2E7"/>
<path d="M95.8538 44.2603C95.7304 44.2198 95.5659 44.1792 95.3603 44.1792C95.1548 44.1792 94.9903 44.2198 94.8669 44.2603H94.5791V44.5037C94.5791 44.666 94.908 44.8283 95.3603 44.8283C95.7715 44.8283 96.1416 44.666 96.1416 44.5037V44.2603H95.8538Z" fill="#E4E0CF"/>
<path d="M96.1826 44.2603C96.1826 44.4226 95.8125 44.5848 95.4014 44.5848C94.9902 44.5848 94.6201 44.4226 94.6201 44.2603C94.6201 44.0981 94.9491 43.9358 95.4014 43.9358C95.8125 43.9358 96.1826 44.0981 96.1826 44.2603Z" fill="#FFF2E7"/>
<path d="M97.7859 43.1651C97.6625 43.1245 97.4981 43.084 97.2925 43.084C97.128 43.084 96.9224 43.1245 96.7991 43.1651H96.5112V43.4085C96.5112 43.5708 96.8813 43.733 97.2925 43.733C97.7036 43.733 98.0737 43.5708 98.0737 43.4085V43.1651H97.7859Z" fill="#E4E0CF"/>
<path d="M98.0737 43.1651C98.0737 43.3274 97.7036 43.4896 97.2925 43.4896C96.8813 43.4896 96.5112 43.3274 96.5112 43.1651C96.5112 43.0028 96.8813 42.8406 97.2925 42.8406C97.7036 42.8406 98.0737 43.0028 98.0737 43.1651Z" fill="#FFF2E7"/>
<path d="M97.7859 44.2603C97.6625 44.2198 97.4981 44.1792 97.2925 44.1792C97.128 44.1792 96.9224 44.2198 96.7991 44.2603H96.5112V44.5037C96.5112 44.666 96.8813 44.8283 97.2925 44.8283C97.7036 44.8283 98.0737 44.666 98.0737 44.5037V44.2603H97.7859Z" fill="#E4E0CF"/>
<path d="M98.0737 44.2603C98.0737 44.4226 97.7036 44.5848 97.2925 44.5848C96.8813 44.5848 96.5112 44.4226 96.5112 44.2603C96.5112 44.0981 96.8813 43.9358 97.2925 43.9358C97.7036 43.9358 98.0737 44.0981 98.0737 44.2603Z" fill="#FFF2E7"/>
<path d="M98.6904 44.2603V44.5442C98.6904 44.7065 98.9371 44.8282 99.225 44.8282H109.916C110.203 44.8282 110.45 44.7065 110.45 44.5442V44.2603H98.6904Z" fill="#BBB9AC"/>
<path d="M110.45 44.2603C110.45 44.4225 110.203 44.5442 109.916 44.5442H99.225C98.9371 44.5442 98.6904 44.4225 98.6904 44.2603C98.6904 44.098 98.9371 43.9763 99.225 43.9763H109.916C110.203 43.9763 110.45 44.098 110.45 44.2603Z" fill="#FFF2E7"/>
<path d="M98.6904 43.165V43.449C98.6904 43.6113 98.9371 43.733 99.225 43.733H109.916C110.203 43.733 110.45 43.6113 110.45 43.449V43.165H98.6904Z" fill="#BBB9AC"/>
<path d="M110.45 43.165C110.45 43.3273 110.203 43.449 109.916 43.449H99.225C98.9371 43.449 98.6904 43.3273 98.6904 43.165C98.6904 43.0028 98.9371 42.8811 99.225 42.8811H109.916C110.203 42.8405 110.45 43.0028 110.45 43.165Z" fill="#FFF2E7"/>
<path d="M100.294 25.7218C100.253 25.7218 100.253 25.7218 100.294 25.7218L94.2495 25.4379C94.1262 25.4379 94.0439 25.3568 94.0439 25.2351C94.0439 25.1134 94.1262 25.0322 94.2495 25.0322L100.294 25.3162C100.417 25.3162 100.499 25.3973 100.499 25.519C100.458 25.6407 100.376 25.7218 100.294 25.7218Z" fill="#C6E3EE"/>
<path d="M100.294 25.7218C100.253 25.7218 100.253 25.7218 100.294 25.7218L94.2495 25.4379C94.1262 25.4379 94.0439 25.3568 94.0439 25.2351C94.0439 25.1134 94.1262 25.0322 94.2495 25.0322L100.294 25.3162C100.417 25.3162 100.499 25.3973 100.499 25.519C100.458 25.6407 100.376 25.7218 100.294 25.7218Z" fill="#C6E3EE"/>
<path d="M100.294 26.736C100.253 26.736 100.253 26.736 100.294 26.736L94.2495 26.452C94.1262 26.452 94.0439 26.3709 94.0439 26.2492C94.0439 26.1275 94.1262 26.0464 94.2495 26.0464L100.294 26.3303C100.417 26.3303 100.499 26.4115 100.499 26.5332C100.458 26.6549 100.376 26.736 100.294 26.736Z" fill="#C6E3EE"/>
<path d="M107.86 42.1104V41.2991H106.215L106.256 42.1104H107.86Z" fill="#A3A3A3"/>
<path d="M92.1116 43.1651C91.9882 43.1245 91.8237 43.084 91.6182 43.084C91.4537 43.084 91.2481 43.1245 91.1247 43.1651H90.8369V43.4085C90.8369 43.5708 91.207 43.733 91.6182 43.733C92.0293 43.733 92.3994 43.5708 92.3994 43.4085V43.1651H92.1116Z" fill="#E4E0CF"/>
<path d="M92.4409 43.1651C92.4409 43.3274 92.0708 43.4896 91.6597 43.4896C91.2485 43.4896 90.8784 43.3274 90.8784 43.1651C90.8784 43.0028 91.2485 42.8406 91.6597 42.8406C92.0708 42.8406 92.4409 43.0028 92.4409 43.1651Z" fill="#FFF2E7"/>
<path d="M92.1116 44.2603C91.9882 44.2198 91.8237 44.1792 91.6182 44.1792C91.4537 44.1792 91.2481 44.2198 91.1247 44.2603H90.8369V44.5037C90.8369 44.666 91.207 44.8283 91.6182 44.8283C92.0293 44.8283 92.3994 44.666 92.3994 44.5037V44.2603H92.1116Z" fill="#E4E0CF"/>
<path d="M92.4409 44.2603C92.4409 44.4226 92.0708 44.5848 91.6597 44.5848C91.2485 44.5848 90.8784 44.4226 90.8784 44.2603C90.8784 44.0981 91.2485 43.9358 91.6597 43.9358C92.0708 43.9358 92.4409 44.0981 92.4409 44.2603Z" fill="#FFF2E7"/>
<path d="M60.5744 56.5923C56.5449 57.7282 14.8513 66.0847 11.6853 67.2611C8.51918 68.4375 7.77906 69.7762 7.69682 71.8856C7.61458 74.0356 6.75111 92.3714 6.58664 95.9817C6.46328 99.5921 7.12117 99.9572 8.06688 100.566C10.5751 102.269 11.932 101.377 14.029 100.89C16.126 100.363 57.1617 87.8686 60.9445 86.7327C64.7274 85.5969 65.9198 83.8525 66.002 81.7026C66.0842 79.5526 66.002 62.5961 66.1254 59.797C66.1665 57.8499 64.604 55.4565 60.5744 56.5923Z" fill="#505768"/>
<path d="M11.2326 72.4128C11.3148 70.2628 12.0549 68.9241 15.221 67.7883C18.3871 66.6119 57.3669 59.31 61.3964 58.1742C63.6168 57.5251 65.097 58.0119 65.9605 58.8638C65.5493 57.2006 63.9046 55.7403 60.533 56.6733C56.5034 57.8091 14.8098 66.1657 11.6438 67.3421C8.47768 68.5185 7.73755 69.8571 7.65532 71.9666C7.57308 74.1166 6.70961 92.4523 6.54513 96.0626C6.42178 99.673 7.07967 100.038 8.02538 100.647C8.92997 101.255 9.67009 101.539 10.328 101.62C10.0813 101.012 9.99904 100.038 10.0402 98.3749C10.2046 94.724 11.1503 74.5222 11.2326 72.4128Z" fill="#9CA9B2"/>
<path opacity="0.4" d="M11.2326 72.413C11.2737 71.8045 11.3559 71.2771 11.5204 70.7903C11.1503 70.6281 10.7803 70.5064 10.3691 70.3441C9.67009 70.1007 8.97109 69.8979 8.18985 69.6951C7.81979 70.3441 7.69644 71.0743 7.65532 71.9262C7.57308 74.0762 6.70961 92.4119 6.54513 96.0223C6.42178 99.6326 7.07967 99.9977 8.02538 100.606C8.92997 101.215 9.67009 101.499 10.328 101.58C10.0813 100.971 9.99904 99.9977 10.0402 98.3345C10.2046 94.7242 11.1503 74.5224 11.2326 72.413Z" fill="#4A5B6A"/>
<path opacity="0.4" d="M16.8251 89.0452L16.2905 100.282C26.8167 97.2395 52.2276 89.3697 59.9166 87.0575C60.04 85.0292 60.5745 77.6868 60.5745 77.6868L16.8251 89.0452Z" fill="#32394B"/>
<path d="M12.5483 98.2128C12.5483 98.5779 12.3427 98.8213 12.1371 98.8213C11.9315 98.8213 11.7259 98.5373 11.767 98.1722C11.767 97.8071 11.9726 97.5637 12.1782 97.5637C12.3838 97.5637 12.5483 97.8477 12.5483 98.2128Z" fill="#505156"/>
<path d="M64.4394 82.4325C64.4394 82.7976 64.2338 83.041 64.0282 83.041C63.8226 83.041 63.617 82.757 63.6581 82.3919C63.6581 82.0268 63.8637 81.7834 64.0693 81.7834C64.2749 81.7834 64.4394 82.0674 64.4394 82.4325Z" fill="#505156"/>
<path d="M102.267 154.924C100.17 154.762 96.6753 155.654 95.9763 157.52C95.2773 159.386 97.7444 161.942 97.7444 161.942C98.6078 162.956 98.8957 163.28 100.664 162.51C102.432 161.739 104.282 160.846 104.611 159.345C104.899 157.845 104.364 155.086 102.267 154.924Z" fill="#1C1C1D"/>
<path d="M101.322 157.885C102.185 159.913 101.527 162.104 99.8828 162.793C98.238 163.483 96.1822 162.388 95.3598 160.36C94.4963 158.331 95.1542 156.141 96.7989 155.451C98.4436 154.761 100.458 155.857 101.322 157.885Z" fill="#42423F"/>
<path d="M99.061 158.94C99.3077 159.548 99.1432 160.157 98.6498 160.36C98.1564 160.562 97.5808 160.238 97.334 159.629C97.0873 159.021 97.2518 158.412 97.7452 158.21C98.2386 158.047 98.8143 158.331 99.061 158.94Z" fill="#1C1C1D"/>
<path d="M95.0312 156.181C95.0312 156.181 101.446 159.427 101.939 159.548C102.432 159.67 103.419 159.264 105.228 158.088C105.228 158.088 105.64 153.585 101.651 152.774C97.6217 151.962 95.5658 154.396 95.0312 156.181Z" fill="#7F98B9"/>
<path d="M101.98 159.507C102.104 157.804 101.692 155.938 100.171 154.964C98.5263 153.909 96.347 154.193 95.2368 155.654C95.1546 155.816 95.0724 156.019 95.0312 156.181C95.0312 156.181 101.446 159.426 101.939 159.548C101.939 159.507 101.98 159.507 101.98 159.507Z" fill="#9CA9B2"/>
<path opacity="0.4" d="M101.651 152.774C98.7723 152.206 96.922 153.301 95.894 154.599C97.0453 153.869 98.6078 153.707 99.9647 154.437C101.897 155.451 102.514 157.52 102.391 159.548C102.966 159.427 103.871 158.98 105.228 158.088C105.228 158.047 105.639 153.545 101.651 152.774Z" fill="#1D1C1A"/>
<path d="M98.7725 150.461L98.8547 153.747C98.8547 153.747 99.9649 154.924 101.897 153.504L101.692 149.975L98.7725 150.461Z" fill="#7F98B9"/>
<path opacity="0.3" d="M101.692 149.975L98.7725 150.461L98.8136 152.206C98.9369 151.8 98.9369 151.719 99.2659 151.8C100.376 152.043 100.705 151.678 100.705 152.206C100.705 152.449 100.746 153.544 100.705 153.788C100.664 154.153 100.335 154.112 100.006 154.193C100.499 154.193 101.116 154.072 101.897 153.504L101.692 149.975Z" fill="#1D1C1A"/>
<path opacity="0.4" d="M101.815 152.084L101.692 149.975L98.7725 150.461L98.8136 152.003C99.7593 152.571 100.828 152.449 101.815 152.084Z" fill="#32394B"/>
<path d="M97.3745 143.809L97.8679 150.746C97.8679 150.746 100.171 152.774 102.555 150.38L102.432 143.606L97.3745 143.809Z" fill="#4A5B6A"/>
<path opacity="0.6" d="M100.047 143.728L98.1558 143.809C98.3202 146.283 98.4847 148.758 98.6081 151.232C99.0604 151.435 99.6771 151.638 100.376 151.557C100.294 148.92 100.212 146.324 100.047 143.728Z" fill="#9CA9B2"/>
<path opacity="0.4" d="M102.514 147.176L102.432 143.606L97.3745 143.809L97.6212 147.013C99.0603 147.784 100.787 147.703 102.514 147.176Z" fill="#32394B"/>
<path d="M94.7437 138.211L95.1548 146.932L100.706 149.772L104.818 147.946L104.694 139.59L94.7437 138.211Z" fill="#9CA9B2"/>
<path d="M100.582 139.022L100.705 149.772L104.817 147.946L104.694 139.59L100.582 139.022Z" fill="#32394B"/>
<path d="M101.774 139.671C101.774 139.671 101.774 145.148 101.856 146.081C101.938 147.014 102.185 147.825 102.966 147.622C103.748 147.46 103.789 146.73 103.789 145.634C103.789 144.539 103.624 139.712 103.624 139.712L101.774 139.671Z" fill="#505768"/>
<path d="M34.7113 130.057C33.2722 129.935 30.8462 130.544 30.3528 131.842C29.8594 133.14 31.5864 134.925 31.5864 134.925C32.2031 135.614 32.4087 135.858 33.6011 135.29C34.8347 134.763 36.1093 134.154 36.3149 133.099C36.5616 132.085 36.1504 130.179 34.7113 130.057Z" fill="#1C1C1D"/>
<path d="M34.0533 132.126C34.629 133.546 34.2178 135.047 33.0665 135.533C31.9152 136.02 30.5172 135.25 29.9004 133.83C29.3248 132.41 29.7359 130.909 30.8873 130.422C32.0797 129.935 33.4777 130.706 34.0533 132.126Z" fill="#42423F"/>
<path d="M32.491 132.856C32.6555 133.262 32.5321 133.708 32.2032 133.83C31.8743 133.951 31.4631 133.749 31.2986 133.343C31.1341 132.937 31.2575 132.491 31.5864 132.369C31.9154 132.207 32.3266 132.451 32.491 132.856Z" fill="#1C1C1D"/>
<path d="M29.6948 130.909C29.6948 130.909 34.1356 133.14 34.5056 133.221C34.8346 133.302 35.5336 133.018 36.7671 132.207C36.7671 132.207 37.0549 129.084 34.3 128.556C31.504 128.029 30.0649 129.692 29.6948 130.909Z" fill="#7F98B9"/>
<path d="M34.5056 133.262C34.5879 132.086 34.3 130.787 33.231 130.098C32.0797 129.368 30.5994 129.57 29.8182 130.585C29.7771 130.706 29.6948 130.828 29.6948 130.95C29.6948 130.909 34.1356 133.181 34.5056 133.262Z" fill="#9CA9B2"/>
<path opacity="0.4" d="M34.2589 128.556C32.2853 128.15 31.0106 128.921 30.2705 129.814C31.0929 129.286 32.1619 129.205 33.0665 129.692C34.3823 130.422 34.8346 131.842 34.7524 133.221C35.1635 133.14 35.7803 132.816 36.726 132.207C36.7671 132.248 37.055 129.124 34.2589 128.556Z" fill="#1D1C1A"/>
<path d="M32.2852 126.974L32.3263 129.246C32.3263 129.246 33.1075 130.057 34.4233 129.083L34.2999 126.649L32.2852 126.974Z" fill="#7F98B9"/>
<path opacity="0.3" d="M34.2999 126.609L32.2852 126.934L32.3263 128.151C32.4085 127.867 32.4085 127.786 32.6552 127.867C33.4365 128.029 33.642 127.786 33.642 128.151C33.642 128.313 33.642 129.084 33.642 129.246C33.6009 129.489 33.3953 129.449 33.1486 129.53C33.4776 129.53 33.9299 129.449 34.4644 129.043L34.2999 126.609Z" fill="#1D1C1A"/>
<path opacity="0.4" d="M34.3822 128.07L34.2999 126.609L32.2852 126.934V128.029C32.9842 128.435 33.6832 128.353 34.3822 128.07Z" fill="#32394B"/>
<path d="M31.2988 122.349L31.6278 127.177C31.6278 127.177 33.1903 128.556 34.8761 126.933L34.7939 122.268L31.2988 122.349Z" fill="#4A5B6A"/>
<path opacity="0.6" d="M33.1483 122.309L31.8325 122.349C31.9559 124.053 32.0792 125.757 32.1203 127.501C32.4082 127.664 32.8605 127.785 33.3539 127.745C33.3539 125.919 33.3128 124.094 33.1483 122.309Z" fill="#9CA9B2"/>
<path opacity="0.4" d="M34.8755 124.702L34.8344 122.228L31.3394 122.349L31.5038 124.581C32.4907 125.108 33.6831 125.027 34.8755 124.702Z" fill="#32394B"/>
<path d="M27.5156 112.695L27.8857 121.417L33.4777 124.256L37.5484 122.431L37.425 114.074L27.5156 112.695Z" fill="#9CA9B2"/>
<path d="M33.313 113.506L33.4775 124.256L37.5481 122.431L37.4248 114.074L33.313 113.506Z" fill="#32394B"/>
<path d="M34.5469 114.155C34.5469 114.155 34.5469 119.632 34.6291 120.565C34.7113 121.498 34.9581 122.309 35.7393 122.147C36.5205 121.984 36.5617 121.254 36.5617 120.159C36.5617 119.064 36.3972 114.236 36.3972 114.236L34.5469 114.155Z" fill="#505768"/>
<path d="M23.4858 105.88L23.6092 113.506L105.105 144.012L162.341 124.621L162.711 118.05L105.475 136.669L23.4858 105.88Z" fill="#9CA9B2"/>
<path opacity="0.4" d="M23.4858 105.88L23.6092 113.506L105.105 144.012L162.341 124.621L162.711 118.05L105.475 136.669L23.4858 105.88Z" fill="#4A5B6A"/>
<path d="M105.105 144.012L162.341 124.621L162.711 118.05L105.475 136.669L105.105 144.012Z" fill="#9CA9B2"/>
<path opacity="0.7" d="M105.105 144.012L162.341 124.621L162.711 118.05L105.475 136.669L105.105 144.012Z" fill="#32394B"/>
<path opacity="0.4" d="M23.4858 105.88L23.6092 109.936L105.105 140.442L162.341 124.621L162.711 118.05L105.475 136.669L23.4858 105.88Z" fill="#4A5B6A"/>
<path d="M11.3149 99.7544L110.039 136.953L110.121 140.848L11.3972 103.527L11.3149 99.7544Z" fill="#9CA9B2"/>
<path d="M11.3149 99.7541L110.039 136.953L164.397 119.063L65.6728 81.7429L11.3149 99.7541Z" fill="#9CA9B2"/>
<path opacity="0.6" d="M11.3149 99.7541L110.039 136.953L164.397 119.063L65.6728 81.7429L11.3149 99.7541Z" fill="#9CA9B2"/>
<path d="M75.7466 54.3208C77.0212 53.5095 77.5147 53.3878 78.6248 53.1038C79.6939 52.8199 80.2696 54.2397 81.0919 55.4161C81.8732 56.5925 92.8105 76.1858 93.345 77.3622C93.8385 78.5386 93.3039 79.1065 90.878 80.5263L88.9454 80.8508L90.2612 77.3622L77.3913 54.8887L75.7466 54.3208Z" fill="#9CA9B2"/>
<path opacity="0.4" d="M75.7466 54.3208C77.0212 53.5095 77.5147 53.3878 78.6248 53.1038C79.6939 52.8199 80.2696 54.2397 81.0919 55.4161C81.8732 56.5925 92.8105 76.1858 93.345 77.3622C93.8385 78.5386 93.3039 79.1065 90.878 80.5263L88.9454 80.8508L90.2612 77.3622L77.3913 54.8887L75.7466 54.3208Z" fill="#4A5B6A"/>
<path d="M90.878 76.3072C89.9734 74.8063 79.4061 57.0791 78.2959 55.2536C77.1446 53.4687 76.24 53.9149 74.6364 54.9696C73.0328 56.0243 70.319 57.8092 69.25 58.864C67.4408 60.6488 68.1809 61.0951 69.5378 63.4479C70.8947 65.7601 78.9538 79.9987 80.3107 82.8383C81.6676 85.6779 83.5179 85.0289 84.5458 84.3393C85.6149 83.6496 88.0408 82.1487 90.3846 80.81C92.7694 79.4714 91.7826 77.8082 90.878 76.3072ZM87.7941 79.1874C86.0672 80.161 85.3682 80.2827 84.5869 80.7695C83.8057 81.2563 82.4488 81.7431 81.462 79.6742C80.4751 77.5648 73.1973 64.9894 72.1693 63.2856C71.1825 61.5819 70.6068 61.2573 71.9637 59.9187C72.745 59.1479 73.6496 58.8234 74.8009 58.0526C75.9933 57.2819 76.6512 56.9574 77.4735 58.2555C78.2959 59.5941 87.4241 74.7657 88.082 75.861C88.8221 76.9563 89.5622 78.1733 87.7941 79.1874Z" fill="#9CA9B2"/>
<path d="M82.9425 79.3092C81.9557 77.1998 74.6778 64.6244 73.6499 62.9206C72.6219 61.2168 72.0874 60.8923 73.4443 59.5536C74.2255 58.7829 75.1301 58.4584 76.3225 57.6876C76.4459 57.6065 76.5692 57.5253 76.6926 57.4442C76.1581 57.2414 75.6235 57.5659 74.8834 58.0527C73.691 58.8235 72.8275 59.148 72.0463 59.9187C70.6894 61.2574 71.265 61.5819 72.2519 63.2857C73.2387 64.9895 80.5166 77.5648 81.5445 79.6743C82.5313 81.7026 83.806 81.2969 84.6284 80.8101C84.0116 80.729 83.4359 80.3233 82.9425 79.3092Z" fill="#32394B"/>
<path d="M19.5801 70.7091C19.5801 70.7091 37.1785 104.014 38.4532 105.271C39.7279 106.529 40.2624 106.934 42.0305 107.665C43.8396 108.435 112.877 132.734 114.275 133.221C115.673 133.708 116.331 135.006 119.414 134.113C122.498 133.221 163.287 118.293 163.287 118.293L163.657 109.044C163.657 109.044 87.1779 83.0817 86.8079 82.7166C86.4378 82.3515 71.7998 57.4036 71.7998 57.4036L24.0619 66.4092L19.5801 70.7091Z" fill="#89CFC4"/>
<path opacity="0.7" d="M19.5801 70.7092C19.5801 70.7092 37.1785 104.014 38.4532 105.271C39.7279 106.529 40.2624 106.934 42.0305 107.665C43.8396 108.435 112.877 132.734 114.275 133.221C115.673 133.708 116.331 135.006 119.414 134.113C122.498 133.221 163.287 118.293 163.287 118.293L163.657 109.044C163.657 109.044 118.099 126.771 117.729 126.406C117.358 126.041 42.6472 100.2 42.6472 100.2L24.0208 66.4092L19.5801 70.7092Z" fill="#75AEA3"/>
<path d="M33.1078 63.367C33.1078 63.367 38.0008 58.5397 52.8033 56.9576C52.8033 56.9576 60.6568 54.9293 69.7438 53.9152C69.7438 53.9152 70.854 52.6576 71.3886 52.8199C71.882 52.9821 71.2241 54.6048 71.2241 54.6048C71.2241 54.6048 81.7503 64.9896 83.7239 81.3782C83.7239 81.3782 86.9722 84.0961 84.3407 83.4065C84.3407 83.4065 74.1435 87.6253 67.6468 88.3961C67.6468 88.3961 59.4232 94.3998 49.7605 95.8196C49.7605 95.8196 48.8971 97.6045 47.9513 97.6045C47.0056 97.6045 47.8691 94.9677 47.8691 94.9677C47.8691 94.9677 39.6866 87.7876 36.0683 78.498C35.0403 75.9018 32.2854 67.7075 32.2854 65.4358C32.2854 65.4358 30.1473 63.4075 30.9285 62.8396C31.6687 62.1906 33.1078 63.367 33.1078 63.367Z" fill="#5CA78E"/>
<path d="M53.3375 57.8095C56.4625 57.6066 59.5875 57.2415 62.6713 56.6331C64.1104 56.3491 65.5496 56.0651 66.9476 55.6595C67.6466 55.4566 68.3045 55.1321 68.9623 54.8482C69.4146 54.6453 69.8669 54.4425 70.4015 54.4019C70.4426 54.4019 70.4837 54.4425 70.4837 54.4831C70.5659 55.2944 70.5659 56.1057 70.6071 56.9576C70.8127 56.5519 71.0594 56.1057 71.3061 55.7406C71.3472 55.7 71.3883 55.6595 71.4294 55.7C71.5528 55.7812 71.7172 55.9029 71.8406 55.984C73.5264 57.4038 74.5544 59.4321 75.459 61.3793C76.5692 63.7321 77.6793 66.0849 78.7484 68.4377C79.9408 71.0745 80.9688 73.7518 81.9145 76.4697C82.2845 77.565 82.6546 78.6603 83.1069 79.715C83.2303 80.0395 83.3947 80.4046 83.6003 80.7291C81.4622 64.7056 71.1827 54.6048 71.1827 54.6048C71.1827 54.6048 71.8817 52.9821 71.3472 52.8199C70.8538 52.6576 69.7025 53.9152 69.7025 53.9152C60.6154 54.9293 52.7619 56.9576 52.7619 56.9576C47.1699 57.5661 42.9758 58.6208 39.9331 59.7161C41.4545 59.2293 43.0169 58.8236 44.5383 58.5802C47.4988 58.0529 50.4182 57.9717 53.3375 57.8095Z" fill="#89CFC4"/>
<path opacity="0.5" d="M144.208 106.245C141.947 105.109 139.48 104.297 136.972 103.811C137.383 104.744 137.671 105.717 137.671 106.772C137.671 106.975 137.424 107.015 137.301 106.853C135.944 105.068 134.093 103.608 132.284 102.31C130.064 100.728 127.72 99.3485 125.212 98.2532C121.388 96.5494 115.672 94.6428 111.89 97.3202C118.715 97.4824 125.541 100.079 131.174 103.851C134.463 106.082 138.205 109.044 140.302 112.735C139.809 110.545 139.48 108.314 138.699 106.164C138.657 106.001 138.822 105.92 138.945 105.92C142.893 106.731 146.717 108.151 149.8 110.747C148.443 108.719 146.346 107.299 144.208 106.245Z" fill="#89CFC4"/>
<path d="M17.0307 99.9976C17.0307 100.16 16.784 100.282 16.455 100.282C16.1261 100.282 15.8794 100.16 15.8794 99.9976C15.8794 99.8353 16.1261 99.7136 16.455 99.7136C16.7429 99.7136 17.0307 99.8353 17.0307 99.9976Z" fill="#32394B"/>
<path d="M7.44952 77.8083C7.44952 77.8083 10.0399 78.498 10.9034 78.8225C11.2324 78.9442 12.836 78.4574 13.6172 78.4574C14.3984 78.4574 14.3162 79.2282 14.2751 80.0395C14.1929 80.8508 14.0284 88.8422 13.905 89.897C13.7817 90.9922 13.3294 90.9111 12.0958 91.1545C10.8623 91.3979 10.4922 91.8035 8.88865 91.2356C7.28505 90.6677 6.01039 90.9111 6.13375 89.6536C6.2571 88.396 6.2571 80.648 6.38045 79.2687C6.50381 77.8489 7.44952 77.8083 7.44952 77.8083Z" fill="#9CA9B2"/>
<path opacity="0.4" d="M13.6173 78.417C12.8361 78.417 11.2325 78.9038 10.9035 78.7821C10.8213 78.7415 10.6979 78.701 10.5335 78.6604C10.4923 82.6764 10.3279 87.7471 10.04 91.4792C10.739 91.5197 11.1913 91.3169 12.0548 91.1141C13.2884 90.8707 13.7407 90.9113 13.864 89.8565C13.9874 88.7613 14.1929 80.8104 14.2341 79.9991C14.3163 79.1877 14.3985 78.417 13.6173 78.417Z" fill="#505768"/>
<path opacity="0.4" d="M9.67003 90.7487C8.43649 90.6676 7.24407 90.1808 6.09277 89.8157C6.09277 90.8704 7.32631 90.6676 8.84767 91.1949C10.4513 91.7628 10.8213 91.3977 12.0549 91.1138C13.2062 90.8704 13.6585 90.911 13.8229 90.0185C12.466 90.4242 11.1092 90.8704 9.67003 90.7487Z" fill="#9CA9B2"/>
<path opacity="0.6" d="M9.99952 79.3093C11.1919 79.715 11.3564 79.6339 13.4534 79.0254C13.7412 78.9442 13.9468 78.8631 14.1935 78.8631C14.1113 78.5791 13.9468 78.4169 13.5768 78.4169C12.7955 78.4169 11.1919 78.9037 10.863 78.782C9.99952 78.4574 7.40909 77.7678 7.40909 77.7678C7.40909 77.7678 6.7512 77.8084 6.46338 78.5791C6.95679 78.214 8.84822 78.9037 9.99952 79.3093Z" fill="#9CA9B2"/>
<path d="M20.2788 67.2609C21.7179 66.3279 22.2936 66.2062 23.486 65.9223C24.7195 65.5977 25.3363 67.1798 26.2409 68.5185C27.1455 69.8571 39.4398 91.9249 40.0565 93.2636C40.6322 94.6023 40.0154 95.2107 37.3016 96.8334L35.1224 97.1985L36.6026 93.2636L22.088 67.9505L20.2788 67.2609Z" fill="#9CA9B2"/>
<path opacity="0.4" d="M20.2788 67.2609C21.7179 66.3279 22.2936 66.2062 23.486 65.9223C24.7195 65.5977 25.3363 67.1798 26.2409 68.5185C27.1455 69.8571 39.4398 91.9249 40.0565 93.2636C40.6322 94.6023 40.0154 95.2107 37.3016 96.8334L35.1224 97.1985L36.6026 93.2636L22.088 67.9505L20.2788 67.2609Z" fill="#4A5B6A"/>
<path d="M37.3015 92.0466C36.2736 90.3429 24.3905 70.344 23.1159 68.3157C21.8412 66.2874 20.8133 66.8147 19.0041 67.9911C17.1949 69.1675 14.111 71.1958 12.9186 72.3722C10.8627 74.4005 11.7262 74.8873 13.2476 77.5241C14.7689 80.1203 23.856 96.1844 25.3773 99.389C26.8987 102.594 28.9546 101.823 30.1881 101.093C31.3806 100.322 34.1355 98.6589 36.767 97.1174C39.4397 95.6164 38.3295 93.7504 37.3015 92.0466ZM33.8476 95.2919C31.874 96.4278 31.1338 96.5089 30.2293 97.0768C29.3658 97.6447 27.8444 98.2126 26.6931 95.8193C25.5418 93.4664 17.3593 79.2684 16.2492 77.3618C15.0979 75.4147 14.4811 75.0496 16.0025 73.5486C16.9071 72.6562 17.8939 72.3317 19.2097 71.4392C20.5254 70.5873 21.3067 70.1817 22.2524 71.6826C23.1981 73.1836 33.4776 90.2618 34.2177 91.5193C34.9989 92.7768 35.8213 94.1561 33.8476 95.2919Z" fill="#9CA9B2"/>
<path d="M28.3373 95.4139C27.186 93.0611 19.0036 78.8631 17.8934 76.9565C16.7421 75.0093 16.1253 74.6442 17.6467 73.1433C18.5513 72.2508 19.5381 71.9263 20.8539 71.0339C21.0184 70.9527 21.1417 70.831 21.2651 70.7499C20.6894 70.5471 20.0726 70.8716 19.2092 71.4395C17.8934 72.2914 16.8654 72.6565 16.002 73.5489C14.4806 75.0499 15.1385 75.415 16.2487 77.3621C17.4 79.3093 25.5824 93.4667 26.6926 95.8196C27.8028 98.1318 29.2419 97.645 30.1465 97.1177C29.5709 97.0365 28.913 96.5903 28.3373 95.4139Z" fill="#32394B"/>
<path d="M29.1192 96.6715C29.1192 94.5215 28.4202 93.2234 26.8988 93.2234C25.4186 93.2234 24.4729 93.9941 24.4729 95.0894C24.4729 97.7668 24.3906 106.042 24.3906 107.462C24.3906 108.882 25.3363 110.504 27.0633 110.667C28.7902 110.788 29.2837 109.571 29.2837 106.894C29.2837 104.217 29.1192 98.862 29.1192 96.6715Z" fill="#32394B"/>
<path d="M28.2557 96.6714C28.2557 94.5215 27.6801 93.2639 26.4465 93.2639C25.213 93.2639 24.4729 94.0347 24.4729 95.0894C24.4729 97.7667 24.3906 105.961 24.3906 107.381C24.3906 108.76 25.1719 110.423 26.5699 110.545C27.9679 110.667 28.3791 109.45 28.3791 106.813C28.3791 104.136 28.2557 98.8214 28.2557 96.6714Z" fill="#C8D1E2"/>
<path d="M26.7756 107.584C26.7756 108.07 26.5289 108.517 26.2411 108.517C25.9532 108.517 25.7065 108.111 25.7065 107.584C25.7065 107.056 25.9532 106.651 26.2411 106.651C26.5289 106.651 26.7756 107.056 26.7756 107.584Z" fill="#32394B"/>
<path d="M26.7756 95.9005C26.7756 96.3873 26.5289 96.8336 26.2411 96.8336C25.9532 96.8336 25.7065 96.4279 25.7065 95.9005C25.7065 95.3732 25.9532 94.9675 26.2411 94.9675C26.57 94.9675 26.7756 95.3732 26.7756 95.9005Z" fill="#32394B"/>
<path d="M99.9245 120.159C96.265 118.82 74.4314 110.18 72.6222 109.531C72.0054 109.287 71.4709 109.247 71.0186 109.368C70.114 109.571 67.1535 110.951 67.0713 111.965C67.5236 110.951 68.5927 110.423 70.0318 110.951C71.841 111.64 93.6335 120.24 97.3341 121.579C100.994 122.917 101.446 123.769 101.446 125.879C101.446 127.988 101.446 135.087 101.446 138.86C101.446 142.064 99.5544 142.267 98.1153 141.781C99.5956 142.511 103.995 141.213 103.995 137.399C103.995 133.586 103.995 126.528 103.995 124.418C104.036 122.35 103.625 121.498 99.9245 120.159Z" fill="#505768"/>
<g opacity="0.4">
<path d="M100.788 123.445C101.693 122.999 102.597 122.593 103.502 122.228C102.967 121.498 101.939 120.889 99.9245 120.159C96.265 118.82 74.4314 110.18 72.6222 109.531C72.0054 109.287 71.4709 109.247 71.0186 109.368C70.114 109.571 67.1535 110.951 67.0713 111.965C67.5236 110.951 68.5927 110.423 70.0318 110.951C71.841 111.64 93.6335 120.24 97.3341 121.579C99.1844 122.268 100.212 122.796 100.788 123.445Z" fill="#9CA9B2"/>
</g>
<path d="M97.3749 121.579C93.7154 120.24 71.8818 111.6 70.0726 110.951C68.2634 110.261 67.0299 111.275 66.9065 112.817C66.6598 116.102 66.9065 124.54 66.9065 126.163C66.9065 127.785 66.742 129.449 68.7979 130.463C70.8538 131.477 95.9358 140.766 97.3749 141.537C98.814 142.308 101.487 142.714 101.487 138.9C101.487 135.087 101.487 128.029 101.487 125.919C101.487 123.81 101.034 122.958 97.3749 121.579ZM98.9785 136.791C98.9785 137.115 98.9374 137.399 98.8963 137.643C98.5262 139.306 97.0048 139.022 96.1414 138.576C95.1545 138.048 71.6351 129.408 70.196 128.718C68.7979 128.029 68.8802 126.852 68.8802 125.757C68.8802 124.662 68.7979 117.238 68.9624 114.967C69.0447 114.034 69.7025 113.384 70.6894 113.547C70.8538 113.587 70.9772 113.628 71.1417 113.668C72.3752 114.115 93.6743 122.309 96.1825 123.242C98.7318 124.175 99.0196 124.743 99.0196 126.203C99.0607 127.664 98.9785 134.154 98.9785 136.791Z" fill="#9CA9B2"/>
<path d="M71.9227 127.461C70.5247 126.771 70.6069 125.595 70.6069 124.499C70.6069 123.404 70.5247 115.981 70.6891 113.709C70.6891 113.668 70.6891 113.628 70.6891 113.587C69.7023 113.425 69.0444 114.074 68.9622 115.007C68.7977 117.279 68.8799 124.702 68.8799 125.797C68.8799 126.893 68.7566 128.069 70.1957 128.759C71.5937 129.448 95.1132 138.089 96.1411 138.616C97.0046 139.062 98.5259 139.346 98.896 137.683C98.5259 137.643 98.1559 137.521 97.8681 137.359C96.8812 136.791 73.3618 128.15 71.9227 127.461Z" fill="#32394B"/>
<path d="M76.7334 115.818V131.274L92.0704 137.034L94.0852 135.858V122.471L76.7334 115.818ZM88.2875 132.613C87.7119 132.45 81.0919 129.854 80.0228 129.448C79.6117 129.286 78.9126 129.002 78.7482 128.353C78.4603 127.38 78.9538 126 80.2284 126.487C83.1889 127.623 87.5474 129.246 88.9043 129.814C89.3977 130.016 90.0145 130.463 90.2201 131.031C90.6313 132.045 90.179 133.221 88.2875 132.613ZM88.9865 126.244C88.4109 126.081 81.7909 123.485 80.7218 123.08C80.3107 122.917 79.6117 122.633 79.4472 121.984C79.1594 121.011 79.6528 119.632 80.9274 120.118C83.8879 121.254 88.2464 122.877 89.6033 123.445C90.0967 123.648 90.7135 124.094 90.9191 124.662C91.3303 125.676 90.878 126.852 88.9865 126.244Z" fill="#C8D1E2"/>
<path d="M91.9058 121.619L92.0702 136.994L94.085 135.858V122.471L91.9058 121.619Z" fill="#32394B"/>
<path d="M90.9605 124.662C90.9605 124.621 90.9605 124.621 90.9193 124.621C90.6726 125.067 90.0559 125.311 88.9868 124.986C88.4112 124.824 82.8191 122.715 81.7501 122.309C81.3389 122.147 80.6399 121.863 80.4754 121.214C80.352 120.849 80.3932 120.402 80.5165 120.037C79.5708 119.997 79.2419 121.132 79.4886 121.984C79.653 122.633 80.352 122.917 80.7632 123.08C81.8323 123.485 88.4523 126.081 89.0279 126.244C90.8782 126.852 91.3305 125.676 90.9605 124.662Z" fill="#32394B"/>
<path d="M90.2617 131.03C90.2617 130.99 90.2617 130.99 90.2206 130.99C89.9739 131.436 89.3571 131.679 88.2881 131.355C87.7124 131.193 82.1204 129.083 81.0513 128.678C80.6401 128.515 79.9411 128.231 79.7767 127.582C79.6533 127.217 79.6944 126.771 79.8178 126.406C78.8721 126.365 78.5431 127.501 78.7898 128.353C78.9543 129.002 79.6533 129.286 80.0645 129.448C81.1336 129.854 87.7535 132.45 88.3292 132.612C90.1795 133.221 90.6318 132.044 90.2617 131.03Z" fill="#32394B"/>
<path opacity="0.3" d="M91.947 122.228C92.1115 122.147 93.5917 122.836 94.0852 122.674V122.471L76.7334 115.818V116.589C79.1594 117.238 91.7414 121.984 91.947 122.228Z" fill="#32394B"/>
<path d="M155.31 136.345C153.213 136.142 149.718 137.075 149.019 138.941C148.32 140.807 150.787 143.363 150.787 143.363C151.651 144.377 151.939 144.701 153.707 143.931C155.475 143.16 157.325 142.267 157.654 140.766C157.942 139.265 157.407 136.507 155.31 136.345Z" fill="#1C1C1D"/>
<path d="M154.364 139.347C155.228 141.375 154.57 143.566 152.925 144.255C151.281 144.945 149.225 143.849 148.402 141.821C147.539 139.793 148.197 137.602 149.841 136.913C151.486 136.223 153.501 137.318 154.364 139.347Z" fill="#42423F"/>
<path d="M152.102 140.361C152.349 140.969 152.185 141.578 151.691 141.78C151.198 141.983 150.622 141.659 150.376 141.05C150.129 140.442 150.293 139.833 150.787 139.63C151.28 139.468 151.856 139.793 152.102 140.361Z" fill="#1C1C1D"/>
<path d="M148.073 137.602C148.073 137.602 154.487 140.847 154.981 140.969C155.474 141.091 156.461 140.685 158.27 139.509C158.27 139.509 158.722 135.006 154.693 134.195C150.663 133.383 148.607 135.817 148.073 137.602Z" fill="#7F98B9"/>
<path d="M155.022 140.969C155.145 139.265 154.734 137.399 153.212 136.426C151.568 135.371 149.389 135.655 148.278 137.115C148.196 137.278 148.114 137.48 148.073 137.643C148.073 137.643 154.487 140.888 154.981 141.01C154.981 140.969 155.022 140.969 155.022 140.969Z" fill="#9CA9B2"/>
<path opacity="0.4" d="M154.652 134.195C151.774 133.627 149.923 134.722 148.896 136.02C150.047 135.29 151.609 135.128 152.966 135.858C154.899 136.872 155.515 138.941 155.392 140.969C155.968 140.847 156.872 140.401 158.229 139.509C158.27 139.509 158.682 134.965 154.652 134.195Z" fill="#1D1C1A"/>
<path d="M151.814 131.882L151.897 135.168C151.897 135.168 153.007 136.345 154.939 134.925L154.775 131.396L151.814 131.882Z" fill="#7F98B9"/>
<path opacity="0.3" d="M154.734 131.396L151.814 131.882L151.856 133.627C151.979 133.221 151.979 133.14 152.308 133.221C153.418 133.464 153.747 133.099 153.747 133.627C153.747 133.87 153.788 134.965 153.747 135.209C153.706 135.574 153.377 135.533 153.048 135.614C153.541 135.614 154.158 135.493 154.939 134.925L154.734 131.396Z" fill="#1D1C1A"/>
<path opacity="0.4" d="M154.857 133.505L154.734 131.396L151.814 131.882L151.856 133.424C152.801 133.992 153.87 133.911 154.857 133.505Z" fill="#32394B"/>
<path d="M150.417 125.23L150.91 132.166C150.91 132.166 153.213 134.195 155.598 131.801L155.474 125.027L150.417 125.23Z" fill="#4A5B6A"/>
<path opacity="0.6" d="M153.09 125.148L151.198 125.23C151.363 127.704 151.527 130.179 151.651 132.653C152.103 132.856 152.72 133.059 153.419 132.978C153.336 130.341 153.254 127.745 153.09 125.148Z" fill="#9CA9B2"/>
<path opacity="0.4" d="M155.557 128.637L155.474 125.067L150.417 125.27L150.664 128.475C152.103 129.205 153.83 129.124 155.557 128.637Z" fill="#32394B"/>
<path d="M147.786 119.632L148.197 128.353L153.748 131.193L157.86 129.367L157.736 121.011L147.786 119.632Z" fill="#9CA9B2"/>
<path d="M153.624 120.443L153.747 131.193L157.859 129.367L157.736 121.011L153.624 120.443Z" fill="#32394B"/>
<path d="M154.817 121.133C154.817 121.133 154.817 126.609 154.899 127.542C154.981 128.475 155.228 129.286 156.009 129.083C156.791 128.921 156.832 128.191 156.832 127.096C156.832 126 156.667 121.173 156.667 121.173L154.817 121.133Z" fill="#505768"/>
<path d="M161.807 99.8761C158.846 100.809 114.069 116.386 111.766 117.36C109.464 118.293 108.929 119.307 108.929 120.889C108.929 122.471 108.806 136.061 108.806 138.738C108.806 141.415 109.299 141.659 110.039 142.105C111.972 143.322 112.917 142.592 114.48 142.186C116.001 141.74 158.887 127.258 161.642 126.284C164.397 125.351 165.219 124.013 165.219 122.431C165.219 120.849 166.001 104.217 166.001 102.107C166.001 100.647 164.767 98.9431 161.807 99.8761ZM119.291 124.783C117.728 126.163 115.59 126.325 114.521 125.149C113.452 123.972 113.863 121.903 115.426 120.524C116.988 119.145 119.126 118.983 120.195 120.159C121.264 121.335 120.853 123.404 119.291 124.783ZM154.159 114.439C151.774 115.21 129.282 122.471 127.391 123.039C125.5 123.648 124.636 122.796 125.664 120.605C126.692 118.415 127.103 117.806 127.555 116.873C127.967 115.94 128.254 115.007 130.023 114.236C131.832 113.466 146.634 108.314 149.019 107.502C151.404 106.651 151.568 106.569 153.131 108.354C154.652 110.139 155.187 110.707 155.886 111.478C156.585 112.249 156.585 113.668 154.159 114.439ZM162.382 109.044C160.943 110.301 158.97 110.464 157.983 109.368C156.996 108.273 157.366 106.367 158.846 105.109C160.285 103.852 162.259 103.689 163.246 104.785C164.191 105.839 163.821 107.746 162.382 109.044Z" fill="#505768"/>
<path d="M111.602 121.173C111.602 119.591 112.095 118.577 114.439 117.644C116.742 116.711 159.546 101.986 162.506 101.012C164.151 100.485 165.261 100.769 165.919 101.377C165.549 100.16 164.315 99.1054 161.848 99.9167C158.888 100.85 114.11 116.427 111.808 117.401C109.505 118.334 108.971 119.348 108.971 120.93C108.971 122.512 108.847 136.101 108.847 138.779C108.847 141.456 109.341 141.699 110.081 142.146C110.739 142.551 111.314 142.754 111.808 142.795C111.602 142.349 111.52 141.618 111.52 140.401C111.479 137.683 111.602 122.755 111.602 121.173Z" fill="#9CA9B2"/>
<path opacity="0.4" d="M111.602 121.173C111.602 120.727 111.643 120.321 111.767 119.956C111.479 119.875 111.191 119.753 110.903 119.672C110.41 119.51 109.834 119.388 109.299 119.267C109.053 119.753 108.971 120.281 108.971 120.93C108.971 122.512 108.847 136.101 108.847 138.779C108.847 141.456 109.341 141.699 110.081 142.146C110.739 142.551 111.314 142.754 111.808 142.795C111.602 142.349 111.52 141.618 111.52 140.401C111.479 137.683 111.602 122.755 111.602 121.173Z" fill="#4A5B6A"/>
<path opacity="0.4" d="M130.804 127.582C129.282 128.069 127.72 128.475 126.198 129.043C125.006 129.489 123.855 130.016 122.662 130.341C121.675 132.085 120.688 133.829 119.661 135.533C118.468 137.521 117.399 139.63 116.166 141.618C123.855 139.062 155.31 128.434 160.943 126.528C160.408 125.676 159.874 124.783 159.298 123.972C158.27 122.43 157.242 120.848 156.132 119.347C151.075 121.092 145.935 122.633 140.836 124.337C137.465 125.432 134.134 126.487 130.804 127.582Z" fill="#32394B"/>
<path d="M118.716 119.429C118.798 119.469 118.839 119.55 118.921 119.632C119.867 120.686 119.456 122.593 117.975 123.891C116.824 124.905 115.344 125.27 114.316 124.824C114.398 124.946 114.48 125.067 114.563 125.189C115.632 126.365 117.77 126.203 119.332 124.824C120.895 123.445 121.306 121.376 120.237 120.199C119.826 119.753 119.291 119.51 118.716 119.429Z" fill="#32394B"/>
<path d="M163.205 104.744C162.834 104.338 162.341 104.135 161.807 104.054C161.889 104.095 161.93 104.176 161.971 104.216C162.834 105.19 162.464 106.934 161.108 108.151C160.038 109.084 158.682 109.409 157.736 109.044C157.818 109.165 157.9 109.287 157.983 109.368C158.969 110.464 160.943 110.301 162.382 109.044C163.821 107.746 164.191 105.839 163.205 104.744Z" fill="#32394B"/>
<path d="M153.131 108.354C151.815 106.853 151.486 106.691 150.006 107.178C150.335 107.34 150.664 107.705 151.157 108.273C152.473 109.774 152.884 110.261 153.501 110.91C154.076 111.559 154.076 112.776 152.062 113.425C150.047 114.074 128.953 120.362 127.35 120.889C126.527 121.132 125.911 121.092 125.664 120.686C124.718 122.836 125.541 123.647 127.391 123.039C129.282 122.43 151.774 115.21 154.159 114.439C156.543 113.668 156.543 112.248 155.886 111.478C155.187 110.707 154.693 110.139 153.131 108.354Z" fill="#32394B"/>
<path d="M123.485 131.68C123.485 131.923 123.361 132.126 123.197 132.126C123.033 132.126 122.909 131.923 122.909 131.68C122.909 131.436 123.033 131.233 123.197 131.233C123.361 131.193 123.485 131.396 123.485 131.68Z" fill="#505156"/>
<path d="M113.288 140.198C113.288 140.442 113.164 140.644 113 140.644C112.835 140.644 112.712 140.442 112.712 140.198C112.712 139.955 112.835 139.752 113 139.752C113.164 139.752 113.288 139.955 113.288 140.198Z" fill="#505156"/>
<path d="M164.109 122.999C164.109 123.242 163.986 123.445 163.822 123.445C163.657 123.445 163.534 123.242 163.534 122.999C163.534 122.755 163.657 122.552 163.822 122.552C163.986 122.512 164.109 122.715 164.109 122.999Z" fill="#505156"/>
<path d="M155.763 120.605C155.763 120.849 155.639 121.051 155.475 121.051C155.31 121.051 155.187 120.849 155.187 120.605C155.187 120.362 155.31 120.159 155.475 120.159C155.639 120.118 155.763 120.321 155.763 120.605Z" fill="#505156"/>
<path d="M26.6928 133.951C25.7882 133.87 24.2668 134.276 23.9379 135.087C23.65 135.898 24.7191 137.034 24.7191 137.034C25.0892 137.48 25.2125 137.602 25.9938 137.278C26.775 136.953 27.5562 136.547 27.7207 135.898C27.8441 135.209 27.5974 133.992 26.6928 133.951Z" fill="#1C1C1D"/>
<path d="M26.2823 135.249C26.6524 136.142 26.3645 137.115 25.6655 137.399C24.9254 137.683 24.0619 137.196 23.6919 136.345C23.3218 135.452 23.6096 134.479 24.3086 134.195C25.0077 133.87 25.9122 134.357 26.2823 135.249Z" fill="#42423F"/>
<path d="M25.2952 135.696C25.4185 135.939 25.3363 136.223 25.1307 136.304C24.9251 136.385 24.6784 136.264 24.555 135.98C24.4317 135.736 24.5139 135.452 24.7195 135.371C24.9251 135.29 25.2129 135.452 25.2952 135.696Z" fill="#1C1C1D"/>
<path d="M23.5273 134.478C23.5273 134.478 26.3234 135.898 26.529 135.939C26.7345 135.979 27.1868 135.817 27.9681 135.29C27.9681 135.29 28.1737 133.302 26.4056 132.978C24.6786 132.653 23.7741 133.708 23.5273 134.478Z" fill="#7F98B9"/>
<path d="M26.5701 135.939C26.6112 135.168 26.4467 134.357 25.7888 133.951C25.0487 133.505 24.1441 133.627 23.6096 134.235C23.5685 134.316 23.5273 134.397 23.5273 134.479C23.5273 134.479 26.3234 135.898 26.5701 135.939Z" fill="#9CA9B2"/>
<path opacity="0.4" d="M26.4057 132.978C25.1721 132.734 24.3498 133.221 23.8975 133.789C24.3909 133.465 25.0899 133.383 25.6655 133.708C26.4879 134.154 26.7757 135.047 26.7346 135.939C26.9813 135.899 27.3925 135.696 27.9681 135.29C27.9681 135.29 28.1737 133.343 26.4057 132.978Z" fill="#1D1C1A"/>
<path d="M25.1719 131.964L25.213 133.383C25.213 133.383 25.7064 133.87 26.5288 133.262L26.4465 131.72L25.1719 131.964Z" fill="#7F98B9"/>
<path opacity="0.3" d="M26.4465 131.761L25.1719 131.964V132.734C25.213 132.572 25.213 132.531 25.3775 132.531C25.8709 132.653 25.9942 132.491 25.9942 132.734C25.9942 132.856 25.9942 133.302 25.9942 133.424C25.9531 133.586 25.8298 133.546 25.7064 133.586C25.912 133.586 26.1998 133.546 26.5288 133.302L26.4465 131.761Z" fill="#1D1C1A"/>
<path opacity="0.4" d="M26.4877 132.694L26.4465 131.761L25.1719 131.964V132.653C25.5831 132.897 26.0765 132.856 26.4877 132.694Z" fill="#32394B"/>
<path d="M24.5547 129.083L24.7603 132.126C24.7603 132.126 25.7471 133.018 26.8162 131.963L26.7751 129.002L24.5547 129.083Z" fill="#4A5B6A"/>
<path opacity="0.6" d="M25.7066 129.043L24.8843 129.083C24.9665 130.179 25.0487 131.233 25.0899 132.329C25.2955 132.41 25.5422 132.491 25.8711 132.491C25.83 131.314 25.7889 130.179 25.7066 129.043Z" fill="#9CA9B2"/>
<path opacity="0.4" d="M26.8162 130.544L26.7751 129.002L24.5547 129.083L24.6369 130.463C25.2948 130.828 26.0349 130.787 26.8162 130.544Z" fill="#32394B"/>
<path d="M10.5751 135.371C9.6705 135.29 8.14914 135.696 7.82019 136.507C7.53237 137.318 8.60143 138.454 8.60143 138.454C8.97149 138.9 9.09485 139.022 9.87609 138.697C10.6573 138.373 11.4386 137.967 11.603 137.318C11.7264 136.629 11.4797 135.452 10.5751 135.371Z" fill="#1C1C1D"/>
<path d="M10.1637 136.669C10.5337 137.562 10.2459 138.535 9.54689 138.819C8.80676 139.103 7.94329 138.616 7.57323 137.765C7.20317 136.872 7.49099 135.899 8.19 135.615C8.889 135.29 9.79359 135.777 10.1637 136.669Z" fill="#42423F"/>
<path d="M9.17699 137.116C9.30034 137.359 9.2181 137.643 9.01251 137.724C8.80692 137.805 8.56022 137.684 8.43686 137.4C8.31351 137.156 8.39574 136.872 8.60133 136.791C8.80692 136.71 9.05363 136.872 9.17699 137.116Z" fill="#1C1C1D"/>
<path d="M7.40869 135.898C7.40869 135.898 10.2047 137.318 10.4103 137.359C10.6159 137.399 11.0682 137.237 11.8494 136.71C11.8494 136.71 12.055 134.722 10.2869 134.397C8.51887 134.073 7.6554 135.128 7.40869 135.898Z" fill="#7F98B9"/>
<path d="M10.4514 137.399C10.4925 136.629 10.3281 135.817 9.67018 135.412C8.93005 134.965 8.02546 135.087 7.49093 135.696C7.44981 135.777 7.40869 135.858 7.40869 135.939C7.40869 135.898 10.2047 137.318 10.4514 137.399C10.4103 137.399 10.4514 137.359 10.4514 137.399Z" fill="#9CA9B2"/>
<path opacity="0.4" d="M10.287 134.438C9.05346 134.195 8.23111 134.682 7.77881 135.25C8.27222 134.925 8.97123 134.844 9.54688 135.168C10.3692 135.615 10.6571 136.507 10.6159 137.4C10.8627 137.359 11.2738 137.156 11.8495 136.751C11.8495 136.751 12.014 134.763 10.287 134.438Z" fill="#1D1C1A"/>
<path d="M9.05371 133.424L9.09483 134.844C9.09483 134.844 9.58824 135.331 10.4106 134.722L10.3284 133.181L9.05371 133.424Z" fill="#7F98B9"/>
<path opacity="0.3" d="M10.3284 133.221L9.05371 133.424V134.195C9.09483 134.032 9.09483 133.992 9.2593 133.992C9.75272 134.113 9.87607 133.951 9.87607 134.195C9.87607 134.316 9.87607 134.762 9.87607 134.884C9.83495 135.046 9.7116 135.006 9.58824 135.046C9.79383 135.046 10.0817 135.006 10.4106 134.762L10.3284 133.221Z" fill="#1D1C1A"/>
<path opacity="0.4" d="M10.3695 134.114L10.3284 133.181L9.05371 133.383V134.073C9.46489 134.317 9.91719 134.276 10.3695 134.114Z" fill="#32394B"/>
<path d="M8.43701 130.503L8.6426 133.546C8.6426 133.546 9.62943 134.438 10.6985 133.383L10.6574 130.422L8.43701 130.503Z" fill="#4A5B6A"/>
<path opacity="0.6" d="M9.58798 130.463L8.76562 130.503C8.84786 131.598 8.9301 132.653 8.97121 133.748C9.1768 133.83 9.42351 133.911 9.75245 133.911C9.71134 132.734 9.67022 131.598 9.58798 130.463Z" fill="#9CA9B2"/>
<path opacity="0.4" d="M10.6575 132.004L10.6164 130.463L8.396 130.544L8.47823 131.923C9.13612 132.248 9.91736 132.207 10.6575 132.004Z" fill="#32394B"/>
<path d="M15.7147 137.886C14.8101 137.805 13.2888 138.211 12.9598 139.022C12.672 139.833 13.7411 140.969 13.7411 140.969C14.1111 141.415 14.2345 141.537 15.0157 141.213C15.797 140.888 16.5782 140.482 16.7427 139.833C16.866 139.184 16.6193 137.967 15.7147 137.886Z" fill="#1C1C1D"/>
<path d="M15.3038 139.184C15.6739 140.077 15.386 141.05 14.687 141.334C13.9469 141.618 13.0834 141.131 12.7134 140.28C12.3433 139.387 12.6311 138.414 13.3301 138.13C14.0291 137.846 14.9337 138.332 15.3038 139.184Z" fill="#42423F"/>
<path d="M14.3166 139.671C14.44 139.914 14.3578 140.198 14.1522 140.279C13.9466 140.361 13.6999 140.239 13.5765 139.955C13.4532 139.712 13.5354 139.428 13.741 139.346C13.9466 139.265 14.1933 139.387 14.3166 139.671Z" fill="#1C1C1D"/>
<path d="M12.5488 138.454C12.5488 138.454 15.3448 139.874 15.5504 139.915C15.756 139.955 16.2083 139.793 16.9896 139.266C16.9896 139.266 17.1952 137.278 15.4271 136.953C13.7001 136.629 12.7955 137.684 12.5488 138.454Z" fill="#7F98B9"/>
<path d="M15.5916 139.915C15.6327 139.144 15.4682 138.332 14.8103 137.927C14.0702 137.481 13.1656 137.602 12.6311 138.211C12.5899 138.292 12.5488 138.373 12.5488 138.454C12.5488 138.454 15.3448 139.874 15.5916 139.915Z" fill="#9CA9B2"/>
<path opacity="0.4" d="M15.4271 136.953C14.1936 136.71 13.3712 137.197 12.9189 137.764C13.4124 137.44 14.1114 137.359 14.687 137.683C15.5094 138.13 15.7972 139.022 15.7561 139.914C16.0028 139.874 16.414 139.671 16.9896 139.265C16.9896 139.265 17.1952 137.318 15.4271 136.953Z" fill="#1D1C1A"/>
<path d="M14.1934 135.939L14.2345 137.359C14.2345 137.359 14.7279 137.846 15.5503 137.237L15.468 135.696L14.1934 135.939Z" fill="#7F98B9"/>
<path opacity="0.3" d="M15.468 135.736L14.1934 135.939V136.71C14.2345 136.548 14.2345 136.507 14.3989 136.507C14.8924 136.629 15.0157 136.467 15.0157 136.71C15.0157 136.832 15.0157 137.278 15.0157 137.4C14.9746 137.562 14.8512 137.521 14.7279 137.562C14.9335 137.562 15.2213 137.521 15.5503 137.278L15.468 135.736Z" fill="#1D1C1A"/>
<path opacity="0.4" d="M15.5091 136.669L15.468 135.736L14.1934 135.939V136.629C14.6045 136.872 15.098 136.832 15.5091 136.669Z" fill="#32394B"/>
<path d="M13.5767 133.059L13.7822 136.101C13.7822 136.101 14.7691 136.994 15.8381 135.939L15.797 132.978L13.5767 133.059Z" fill="#4A5B6A"/>
<path opacity="0.6" d="M14.7276 133.018L13.9053 133.059C13.9875 134.154 14.0697 135.209 14.1109 136.304C14.3165 136.385 14.5632 136.466 14.8921 136.466C14.851 135.29 14.8099 134.154 14.7276 133.018Z" fill="#9CA9B2"/>
<path opacity="0.4" d="M15.8381 134.519L15.797 132.978L13.5767 133.059L13.6589 134.438C14.3168 134.763 15.0569 134.722 15.8381 134.519Z" fill="#32394B"/>
<path d="M21.5536 131.396C20.649 131.315 19.1277 131.72 18.7987 132.532C18.5109 133.343 19.5799 134.479 19.5799 134.479C19.95 134.925 20.0734 135.047 20.8546 134.722C21.6358 134.398 22.4171 133.992 22.5816 133.343C22.7049 132.694 22.4582 131.477 21.5536 131.396Z" fill="#1C1C1D"/>
<path d="M21.1427 132.694C21.5127 133.586 21.2249 134.56 20.5259 134.844C19.7858 135.128 18.9223 134.641 18.5522 133.789C18.1822 132.897 18.47 131.923 19.169 131.639C19.868 131.355 20.7726 131.842 21.1427 132.694Z" fill="#42423F"/>
<path d="M20.1555 133.18C20.2789 133.424 20.1966 133.708 19.991 133.789C19.7854 133.87 19.5387 133.748 19.4154 133.464C19.292 133.221 19.3743 132.937 19.5799 132.856C19.7854 132.775 20.0321 132.897 20.1555 133.18Z" fill="#1C1C1D"/>
<path d="M18.3872 131.964C18.3872 131.964 21.1832 133.383 21.3888 133.424C21.5944 133.465 22.0467 133.302 22.8279 132.775C22.8279 132.775 23.0335 130.828 21.2655 130.463C19.4974 130.138 18.6339 131.193 18.3872 131.964Z" fill="#7F98B9"/>
<path d="M21.4299 133.424C21.4711 132.653 21.3066 131.842 20.6487 131.436C19.9086 130.99 19.004 131.112 18.4694 131.72C18.4283 131.801 18.3872 131.883 18.3872 131.964C18.3872 131.964 21.1832 133.343 21.4299 133.424C21.3888 133.424 21.4299 133.424 21.4299 133.424Z" fill="#9CA9B2"/>
<path opacity="0.4" d="M21.2655 130.462C20.032 130.219 19.2096 130.706 18.7573 131.274C19.2507 130.949 19.9497 130.868 20.5254 131.193C21.3478 131.639 21.6356 132.531 21.5945 133.424C21.8412 133.383 22.2523 133.18 22.828 132.775C22.828 132.775 22.9925 130.828 21.2655 130.462Z" fill="#1D1C1A"/>
<path d="M20.0322 129.448L20.0733 130.868C20.0733 130.868 20.5668 131.355 21.3891 130.747L21.3069 129.205L20.0322 129.448Z" fill="#7F98B9"/>
<path opacity="0.3" d="M21.3069 129.246L20.0322 129.448V130.219C20.0733 130.057 20.0733 130.016 20.2378 130.016C20.7312 130.138 20.8546 129.976 20.8546 130.219C20.8546 130.341 20.8546 130.787 20.8546 130.909C20.8135 131.071 20.6901 131.031 20.5668 131.071C20.7724 131.071 21.0602 131.031 21.3891 130.787L21.3069 129.246Z" fill="#1D1C1A"/>
<path opacity="0.4" d="M21.348 130.179L21.3069 129.246L20.0322 129.448V130.138C20.4434 130.381 20.8957 130.341 21.348 130.179Z" fill="#32394B"/>
<path d="M19.4155 126.568L19.6211 129.611C19.6211 129.611 20.6079 130.503 21.677 129.448L21.6359 126.487L19.4155 126.568Z" fill="#4A5B6A"/>
<path opacity="0.6" d="M20.5665 126.528L19.7441 126.568C19.8264 127.664 19.9086 128.718 19.9497 129.814C20.1553 129.895 20.402 129.976 20.731 129.976C20.6899 128.8 20.6487 127.664 20.5665 126.528Z" fill="#9CA9B2"/>
<path opacity="0.4" d="M21.6355 128.029L21.5944 126.487L19.374 126.568L19.4563 127.947C20.1141 128.272 20.8954 128.231 21.6355 128.029Z" fill="#32394B"/>
<path d="M26.9401 130.138V127.055H21.7592C21.1424 126.771 20.7313 126.568 20.7313 126.568C20.7313 126.568 19.3333 125.879 18.3875 126.406L16.455 127.055H8.43701L8.47813 130.179C8.39589 130.462 8.51925 130.787 9.0949 131.193L14.1524 133.87C14.1524 133.87 15.0981 134.56 16.2494 134.235L25.6243 131.233C25.6654 131.274 27.269 130.949 26.9401 130.138Z" fill="#9CA9B2"/>
<path d="M16.8247 126.933L16.4135 127.055H14.0698V133.83L14.1521 133.87C14.1521 133.87 15.0978 134.56 16.2491 134.235L16.7836 134.073V126.933H16.8247Z" fill="#9CA9B2"/>
<path d="M18.3462 123.08L9.50588 126C9.50588 126 7.40887 126.731 9.0947 127.866L14.1522 130.544C14.1522 130.544 15.0979 131.233 16.2492 130.949L25.6241 127.948C25.6241 127.948 27.5155 127.583 26.7754 126.65C26.0764 125.716 20.6899 123.242 20.6899 123.242C20.6899 123.242 19.2919 122.552 18.3462 123.08Z" fill="#C8D4DB"/>
<path opacity="0.4" d="M26.7755 126.609C26.0765 125.676 20.6901 123.201 20.6901 123.201C20.6901 123.201 19.292 122.512 18.3463 123.039L9.50598 125.96C9.50598 125.96 9.42375 126 9.25928 126.041C10.4517 125.838 11.603 125.432 12.7954 125.108C13.7822 124.824 15.0569 124.418 16.0437 124.824C16.0849 124.864 16.0849 124.946 16.0437 124.986C15.6326 125.351 14.9747 125.919 15.0158 126.528C15.0569 127.258 15.8793 127.542 16.4549 127.582C17.6062 127.704 18.7164 127.461 19.8266 127.217C21.9236 126.771 24.144 126.609 25.9531 127.745C26.4877 127.663 27.2689 127.258 26.7755 126.609Z" fill="#9CA9B2"/>
<path d="M18.6749 126.365V39.7168H16.0845V126.244C16.5779 126.974 17.9348 126.933 18.6749 126.365Z" fill="#9CA9B2"/>
<path opacity="0.4" d="M16.8657 126.73V39.7168H16.0845V126.244C16.2489 126.487 16.5368 126.649 16.8657 126.73Z" fill="#32394B"/>
<path opacity="0.4" d="M18.6754 126.365V39.7168H17.853V126.771C18.1409 126.69 18.4287 126.568 18.6754 126.365Z" fill="#32394B"/>
<path d="M2.22787 43.9764C1.6111 43.9764 0.994331 43.733 0.459798 43.2462C-0.485914 42.3538 0.295326 40.5283 0.459798 40.1632C0.583152 39.8792 0.912095 39.7575 1.19992 39.8792C1.48775 40.0009 1.6111 40.3255 1.48775 40.6094C1.1588 41.2991 0.994331 42.2321 1.19992 42.4349C1.89892 43.0434 2.59793 43.0434 3.33805 42.3538C3.74923 41.9887 3.74923 41.7858 3.74923 41.5424C3.74923 41.0962 3.87258 40.6094 4.73606 40.2038C6.05183 39.6359 23.4858 38.5406 27.0631 38.2972C27.2687 38.2566 27.9677 38.2161 28.42 38.6217C28.6667 38.8245 28.79 39.1085 28.8312 39.433C28.8312 39.5142 28.9956 39.7575 29.3246 39.9604C29.5713 40.0821 30.188 40.3255 30.8871 39.9198C31.0926 39.7981 31.3393 39.5953 31.3805 39.3925C31.3805 39.2302 31.2982 39.0679 31.2571 39.0274C31.0515 38.9462 30.9282 38.7434 30.9282 38.5406C30.9282 38.216 31.1749 37.9727 31.5038 37.9727C31.9972 37.9727 32.3673 38.5811 32.4495 38.9462C32.5318 39.3113 32.6551 40.2443 31.4216 40.8934C30.5992 41.3802 29.5713 41.3802 28.7489 40.934C28.1322 40.6094 27.6799 40.0415 27.6799 39.5142V39.4736C27.6387 39.433 27.392 39.3925 27.1453 39.433H27.1042C19.1273 39.9198 6.13407 40.8528 5.14724 41.2179C4.85941 41.3396 4.8183 41.4207 4.8183 41.4207C4.8183 41.4613 4.8183 41.5424 4.8183 41.583C4.8183 42.0292 4.73606 42.5566 4.03706 43.1651C3.54364 43.6924 2.88575 43.9764 2.22787 43.9764Z" fill="#5D666C"/>
<path d="M15.879 91.2761H18.9217V96.5091H15.8379L15.879 91.2761Z" fill="#B4B4B5"/>
<path d="M16.2905 91.2761H16.6606V96.5091H16.2905V91.2761Z" fill="#B4B4B5"/>
<path d="M17.9351 91.2761H18.9219V96.5091H17.9351V91.2761Z" fill="#B4B4B5"/>
</g>
<path d="M175.68 70.107C175.68 70.107 178.033 88.2875 179.388 87.5849C180.743 86.8823 182.114 87.857 181.853 85.092C181.675 82.3742 179.816 68.7347 179.816 68.7347L175.68 70.107Z" fill="#FFBFA1"/>
<path opacity="0.15" d="M190 155.061C190 157.264 177.915 159 163.046 159C148.177 159 136.091 157.264 136.091 155.061C136.091 152.858 148.177 151.122 163.046 151.122C177.983 151.122 190 152.858 190 155.061Z" fill="#1C1918"/>
<path d="M168.342 126.887L170.99 151.79L174.181 152.324L173.706 136.768L168.342 126.887Z" fill="#B28F77"/>
<path d="M175.199 147.317C175.199 147.317 177.508 149.854 180.224 150.655C182.939 151.456 185.451 152.524 185.248 154.127C185.248 154.127 181.174 156.063 174.52 153.926V154.594L170.175 154.394L169.7 147.384L172.687 147.45L174.656 147.116L175.199 147.317Z" fill="#616670"/>
<path d="M177.372 153.992C183.279 155.461 184.772 153.859 185.18 153.725C185.248 153.859 185.248 153.992 185.248 154.126C185.248 154.126 181.174 156.062 174.52 153.926V154.593L170.175 154.393V153.258C171.736 153.325 173.026 152.857 177.372 153.992Z" fill="#44484F"/>
<path d="M156.935 125.685L156.46 151.856L153.269 152.323L151.571 135.566L156.935 125.685Z" fill="#B28F77"/>
<path d="M152.522 147.383C152.522 147.383 150.01 149.853 147.226 150.654C144.51 151.456 141.998 152.524 142.202 154.126C142.202 154.126 146.276 156.062 152.93 153.926V154.593L157.275 154.393V148.718L157.343 147.316L154.016 147.516L152.522 147.383Z" fill="#616670"/>
<path d="M150.01 153.993C144.103 155.462 142.61 153.859 142.202 153.726C142.134 153.859 142.134 153.993 142.134 154.126C142.134 154.126 146.208 156.062 152.862 153.926V154.594L157.207 154.393V153.258C155.713 153.392 154.423 152.858 150.01 153.993Z" fill="#44484F"/>
<path d="M160.67 45.7013L161.688 56.6507L154.695 54.2471L153.541 43.0308L160.67 45.7013Z" fill="#9B7C67"/>
<path d="M153.133 52.3776L152.862 47.7041L161.552 48.1047L161.417 51.71L153.133 52.3776Z" fill="#383D47"/>
<path d="M155.713 26.2729C150.757 27.6082 151.028 31.0132 151.028 31.0132C151.028 31.0132 151.3 33.617 151.504 36.6881C151.028 36.0873 150.214 35.8202 149.399 36.2208C147.702 37.022 149.195 42.2296 151.775 41.6955C151.979 43.1643 152.115 44.2993 152.386 44.6999C153.201 46.1687 156.46 48.3051 159.312 48.5722C162.163 48.8392 166.78 45.9016 166.644 42.6302C166.509 39.3587 164.947 29.5444 164.947 29.5444C164.947 29.5444 163.929 24.0697 155.713 26.2729Z" fill="#FFBFA1"/>
<path d="M158.972 32.6822C158.972 32.6822 158.633 32.6822 158.225 32.6822C158.022 32.6822 157.818 32.6822 157.546 32.6822C157.41 32.6822 157.275 32.6822 157.207 32.6822C157.071 32.6822 156.935 32.6822 156.867 32.7489C156.732 32.7489 156.664 32.7489 156.528 32.8157C156.392 32.8825 156.324 32.8825 156.188 32.9492C155.985 33.016 155.781 33.1495 155.645 33.2163C155.509 33.3498 155.374 33.4166 155.238 33.5501C155.17 33.5501 155.102 33.6169 155.102 33.6169C155.102 33.6169 155.102 33.5501 155.102 33.4166C155.102 33.283 155.17 33.0827 155.306 32.8825C155.374 32.7489 155.442 32.6822 155.509 32.5486C155.577 32.4151 155.713 32.3483 155.849 32.2816C156.12 32.0813 156.392 32.0145 156.732 31.9478C156.867 31.9478 157.071 31.9478 157.207 31.9478C157.343 31.9478 157.478 31.9478 157.614 32.0145C157.886 32.0813 158.157 32.148 158.361 32.2816C158.768 32.4151 158.972 32.6822 158.972 32.6822Z" fill="#4C3630"/>
<path d="M161.892 32.4148C161.892 32.4148 161.959 32.1477 162.231 31.8807C162.367 31.7471 162.571 31.6136 162.774 31.4801C162.978 31.3465 163.25 31.2798 163.589 31.2798C163.725 31.2798 163.861 31.2798 163.996 31.3465C164.132 31.3465 164.268 31.4801 164.404 31.5468C164.54 31.6136 164.607 31.6804 164.675 31.8139C164.743 31.8807 164.811 32.0142 164.879 32.081C165.015 32.2145 165.015 32.4148 165.015 32.5483C165.015 32.6818 165.015 32.7486 165.015 32.7486C165.015 32.7486 164.947 32.7486 164.879 32.6818C164.811 32.6151 164.675 32.5483 164.54 32.4815C164.472 32.4148 164.404 32.4148 164.336 32.348C164.268 32.348 164.2 32.2812 164.064 32.2812C163.928 32.2145 163.725 32.2145 163.589 32.2145C163.25 32.2145 162.842 32.2812 162.503 32.4148C162.163 32.348 161.892 32.4148 161.892 32.4148Z" fill="#4C3630"/>
<path d="M156.868 42.6299L163.25 42.6966C163.25 42.6966 161.824 45.701 156.868 42.6299Z" fill="white"/>
<path d="M157.275 34.8187C157.343 35.4196 157.615 35.8202 157.954 35.8202C158.294 35.8202 158.497 35.2861 158.429 34.752C158.362 34.1511 158.09 33.7505 157.75 33.7505C157.411 33.7505 157.207 34.2846 157.275 34.8187Z" fill="#3F3838"/>
<path d="M162.978 34.8187C163.046 35.4196 163.318 35.8202 163.657 35.8202C163.996 35.8202 164.2 35.2861 164.132 34.752C164.064 34.1511 163.793 33.7505 163.453 33.7505C163.182 33.7505 162.978 34.2178 162.978 34.8187Z" fill="#3F3838"/>
<path d="M169.632 80.4856L174.927 86.0938L175.403 147.317L169.292 147.717L163.385 98.8458H161.552L157.75 147.65L152.318 147.517L148.516 84.0241L150.078 84.9588L169.632 80.4856Z" fill="#D3C4A3"/>
<path d="M176.082 89.9665C176.082 89.9665 161.416 95.2408 147.973 91.1015L147.701 62.7934L141.591 61.6584C141.591 61.6584 140.572 57.5858 143.152 54.6482C143.696 54.0473 147.905 51.1765 153.473 51.0429C154.016 51.0429 154.491 50.9094 154.898 50.9094H159.515H159.923L166.237 50.7759L172.144 58.9211L176.082 89.9665Z" fill="#383D47"/>
<path d="M162.503 72.9413C159.583 71.9398 156.596 70.6045 154.152 68.6683C152.115 67.1328 150.214 64.6625 147.77 63.8613L148.041 91.1679C161.417 95.3073 176.15 90.0329 176.15 90.0329L173.977 73.4086C170.107 74.0762 165.966 74.143 162.503 72.9413Z" fill="#2E323A"/>
<path d="M181.799 84.7583L182.682 87.4956C182.682 87.4956 184.651 88.5639 184.311 91.4347C183.972 94.3056 178.608 94.6394 178.54 93.0371C178.54 93.0371 175.892 90.2997 178.812 88.4971L178.947 85.3592L181.799 84.7583Z" fill="#FFBFA1"/>
<path d="M161.484 51.0424C161.484 51.0424 170 50 172.687 52.0438C175.374 54.0877 177.242 61.449 179.477 67.0658C182.203 73.9174 182.871 86.4274 182.871 86.4274C182.871 86.4274 180.835 87.0951 178.119 87.0951C178.119 87.0951 175.742 76.7466 172.687 69.7364C169.632 62.7261 161.484 51.0424 161.484 51.0424Z" fill="#383D47"/>
<path d="M151.501 36.5L152.862 36.2208C151.979 27.7417 158.769 28.5429 161.417 28.7432C164.064 28.9435 165.694 27.675 165.083 25.5385L164.2 26.4064C164.2 26.4064 165.287 23.9362 163.589 22.6009C163.589 22.6009 163.453 24.0029 162.435 24.27C162.435 24.27 162.707 22.6676 161.281 22C161.281 22 161.62 23.3353 160.738 23.402C159.855 23.4688 153.269 22.2003 152.183 26.54C152.183 26.54 150.553 26.2729 150.01 28.6097C149.467 30.8796 150.007 33.0283 151.501 36.5Z" fill="#755850"/>
<path d="M161.281 33.1492C161.824 34.0839 162.299 35.0186 162.707 36.02C163.114 37.0215 163.521 38.023 163.793 39.0244L163.861 39.2247L163.657 39.2915C163.046 39.425 162.367 39.4918 161.756 39.6253C162.367 39.3582 162.978 39.1579 163.589 38.9577L163.453 39.2247C162.978 38.29 162.571 37.2886 162.231 36.2871C161.824 35.2189 161.484 34.2174 161.281 33.1492Z" fill="#AD796A"/>
<path d="M158.063 43.246L163.98 42C163.98 42 163.138 46.0302 158.063 43.246Z" fill="white"/>
<path d="M141.523 57.9192C141.523 57.9192 137.314 84.024 137.585 90.3666L142.338 91.7686L149.671 60.2559L141.523 57.9192Z" fill="#383D47"/>
<path d="M163.385 98.8457L169.292 147.717L171.804 147.584L165.49 98.8457H163.385Z" fill="#BAAB8E"/>
<path d="M148.701 101.544L152.569 100.2L153.001 116.097L150.285 118.994L148.701 101.544Z" fill="#744747"/>
<path d="M127.111 99.8289L130.132 98.6404L152.569 100.2L149.333 101.463L127.111 99.8289Z" fill="#774848"/>
<path d="M126.896 99.9771L149.117 101.611L150.268 118.994L127.83 117.211L126.896 99.9771Z" fill="#895555"/>
<path d="M130.275 98.6402C130.275 98.6402 123.371 96.3374 127.111 110.08L149.405 112.457C149.405 112.457 148.038 99.1602 152.497 100.126L130.275 98.6402Z" fill="#9C6767"/>
<path d="M136.676 110.302L136.388 115.057L137.97 115.205L137.755 110.451L136.676 110.302Z" fill="#744747"/>
<path d="M136.245 108.594L135.957 114.983L137.539 115.205L137.323 108.743L136.245 108.594Z" fill="#9C6767"/>
<path d="M137.97 111.491L135.381 111.194L135.813 108.817L138.114 109.114L137.97 111.491ZM136.029 110.674L137.467 110.823L137.539 109.56L136.244 109.411L136.029 110.674Z" fill="#969696"/>
<path d="M137.754 111.491L135.166 111.194L135.597 108.817L137.898 109.114L137.754 111.491ZM135.813 110.674L137.251 110.823L137.323 109.56L136.029 109.411L135.813 110.674Z" fill="#B1B1B1"/>
<path d="M144.986 100.196C144.339 94.7733 137.507 92.916 135.277 99.0815C135.268 99.108 135.268 99.108 135.277 99.0815C135.303 99.0119 133.911 98.8587 133.911 98.8587C135.997 92.6932 143.116 94.5504 143.62 99.9728C144.051 99.9728 144.483 100.196 144.986 100.196Z" fill="#9C6767"/>
<path d="M138.739 88.9648L137.857 91.7022C137.857 91.7022 135.888 92.7704 136.227 95.6413C136.567 98.5121 141.931 98.8459 141.998 97.2436C141.998 97.2436 144.646 94.5063 141.727 92.7036L141.591 89.5657L138.739 88.9648Z" fill="#FFBFA1"/>
<defs>
<linearGradient id="paint0_linear_216_2006" x1="89.9271" y1="8.44043" x2="89.9271" y2="15.1875" gradientUnits="userSpaceOnUse">
<stop stop-color="white"/>
<stop offset="1"/>
</linearGradient>
</defs>
</svg>
