<svg width="121" height="132" viewBox="0 0 121 132" fill="none" xmlns="http://www.w3.org/2000/svg">
<path fill-rule="evenodd" clip-rule="evenodd" d="M60.5 132C93.8256 132 121 126.179 121 119.017C121 111.856 93.8256 106.035 60.5 106.035C27.1744 106.035 0 111.856 0 119.017C0 126.137 27.1744 132 60.5 132Z" fill="#E6E6E6"/>
<path fill-rule="evenodd" clip-rule="evenodd" d="M25.6575 103.648C26.7951 106.83 27.2164 109.092 25.8261 110.432C24.5621 111.688 8.04682 113.406 8.08895 110.223C8.13108 105.951 17.1892 107.249 19.2958 101.47C20.2227 98.9572 24.7728 101.135 25.6575 103.648Z" fill="#85D0FF"/>
<path fill-rule="evenodd" clip-rule="evenodd" d="M26.6265 107.249C26.7951 108.631 26.6265 109.678 25.8261 110.474C24.5621 111.73 8.04682 113.447 8.08895 110.265C8.08895 109.846 8.17321 109.511 8.34173 109.218C10.364 111.563 24.6464 109.971 25.8261 108.841C26.2474 108.338 26.5002 107.836 26.6265 107.249Z" fill="#69B7E8"/>
<path fill-rule="evenodd" clip-rule="evenodd" d="M19.3801 104.025C19.1273 107.124 25.784 111.395 26.5845 107.375C26.5423 102.098 19.9699 100.423 19.3801 104.025Z" fill="#F0B7AA"/>
<path fill-rule="evenodd" clip-rule="evenodd" d="M28.0171 84.2158C28.6491 89.4088 26.5425 98.8735 27.3851 104.611C25.2365 106.412 17.0209 105.616 14.0718 103.815C16.6418 96.9471 17.6108 87.3567 17.4423 79.3997C17.1895 67.6735 28.1014 68.5949 27.343 76.4263C27.2166 77.5151 27.6801 81.2424 28.0171 84.2158Z" fill="#343F51"/>
<path fill-rule="evenodd" clip-rule="evenodd" d="M51.4837 30.0654L44.2793 32.997L47.5234 42.4617L54.6856 39.4883L51.4837 30.0654Z" fill="#E8AB9D"/>
<path fill-rule="evenodd" clip-rule="evenodd" d="M39.3503 21.3549C38.8447 26.3804 36.6539 42.2945 45.375 39.2792C48.7033 38.1484 53.9697 35.8451 57.1717 31.029C59.9523 26.841 60.2472 19.0934 55.1494 16.5806C48.577 13.3559 39.7716 16.9575 39.3503 21.3549Z" fill="#F0B7AA"/>
<path d="M39.9458 36.4738C40.4599 36.6099 41.5395 35.7479 42.105 34.3416" stroke="#C9897B" stroke-width="1.0001" stroke-miterlimit="22.9256" stroke-linecap="round" stroke-linejoin="round"/>
<path fill-rule="evenodd" clip-rule="evenodd" d="M56.4551 81.9123C53.4638 85.4302 47.8604 84.0063 44.3636 81.9123C40.4875 79.5671 26.6264 78.8133 23.1717 78.1013C18.2003 77.0962 17.1891 71.2331 24.1407 69.8511C32.0613 68.2597 43.4788 68.4691 52.5791 69.6836C57.4241 70.3537 58.7302 67.0871 59.0251 69.4323C59.4464 72.7408 58.7302 79.274 56.4551 81.9123Z" fill="#343F51"/>
<path fill-rule="evenodd" clip-rule="evenodd" d="M54.2642 37.8135C60.626 49.3721 56.3287 61.8521 58.9829 69.7673C54.8119 72.4476 45.0797 71.275 40.1504 70.0605C41.1194 58.9625 40.2347 55.5703 46.47 40.7869C47.439 40.7031 51.9892 39.6143 54.2642 37.8135Z" fill="#1899C5"/>
<path fill-rule="evenodd" clip-rule="evenodd" d="M51.3156 41.8339C44.8274 43.1322 47.5659 54.9003 47.6502 60.9309C47.6923 64.9094 52.411 66.6264 53.5064 62.5642C54.6439 58.4181 58.4778 40.3682 51.3156 41.8339Z" fill="#78C0D9"/>
<path fill-rule="evenodd" clip-rule="evenodd" d="M52.4528 15.4081C51.6944 14.5286 46.9758 13.5235 42.9312 16.12C38.8866 18.7165 35.9375 19.1353 35.137 19.3028C34.2944 19.4703 36.9908 22.7369 41.4566 23.4907C42.8891 23.742 45.4169 24.2027 46.2174 29.2701C46.4281 30.5683 47.9027 30.8615 48.0712 29.0188C48.4504 25.2915 49.7143 27.0505 50.5148 29.7726C51.5259 33.1648 51.6523 33.8349 53.3797 35.8032C58.4354 32.411 61.1318 23.8258 58.941 19.3447C57.5506 16.4132 54.8964 14.6123 52.4528 15.4081Z" fill="#343F51"/>
<path fill-rule="evenodd" clip-rule="evenodd" d="M50.1356 24.4538C49.1244 24.3282 48.1554 25.7939 47.9448 27.7204C47.7341 29.6468 48.3661 31.2801 49.3772 31.4058C50.3883 31.5314 51.3574 30.0656 51.568 28.1392C51.7787 26.2127 51.1046 24.5794 50.1356 24.4538Z" fill="#F0B7AA"/>
<path fill-rule="evenodd" clip-rule="evenodd" d="M36.5277 66.7102C30.1659 65.9145 29.4076 68.7204 29.0284 71.8194C28.6492 74.9185 30.6715 75.6305 31.3035 73.1177C31.9354 70.6049 35.5587 71.6938 37.7074 71.2331C39.7718 70.7725 39.0556 67.1708 36.5277 66.7102Z" fill="#FBC9BE"/>
<path fill-rule="evenodd" clip-rule="evenodd" d="M51.6102 65.077C46.4281 68.888 40.614 70.6051 34.8842 72.029C33.3675 71.0657 32.9883 68.1761 32.8198 66.3753C36.2324 64.7839 45.3748 61.0985 48.7032 59.7165C54.6015 57.2875 55.1492 63.5694 51.6102 65.077Z" fill="#78C0D9"/>
<path fill-rule="evenodd" clip-rule="evenodd" d="M38.8022 27.8881C37.6647 30.9872 35.179 33.7093 39.055 34.2538C42.931 34.7982 39.8555 25.8779 38.8022 27.8881Z" fill="#F0B7AA"/>
<path fill-rule="evenodd" clip-rule="evenodd" d="M40.8669 27.8047C41.2461 27.8047 41.541 28.056 41.5832 28.4329C41.5832 28.8098 41.3304 29.1029 40.9512 29.1448C40.572 29.1448 40.2771 28.8936 40.235 28.5166C40.1928 28.1397 40.4878 27.8047 40.8669 27.8047Z" fill="#303030"/>
<path d="M42.2995 26.925C41.6676 26.1712 40.1509 26.0874 39.561 26.5481" stroke="#343F51" stroke-width="1.4397" stroke-miterlimit="22.9256" stroke-linecap="round" stroke-linejoin="round"/>
<path fill-rule="evenodd" clip-rule="evenodd" d="M95.7635 112.443C95.932 115.165 98.165 119.06 97.1538 120.818C95.5529 123.708 92.8565 121.363 87.0003 122.494C84.346 122.996 79.5852 122.745 78.7005 121.656C77.8158 120.567 78.869 119.73 81.0177 119.018C86.4526 117.259 88.6855 115.835 89.0226 110.726C89.1911 108.883 95.5107 107.92 95.7635 112.443Z" fill="#F0BBAF"/>
<path fill-rule="evenodd" clip-rule="evenodd" d="M86.4525 115.751C88.3905 116.337 90.7498 118.599 91.2133 120.776C92.6036 121.572 96.2269 120.902 97.575 120.902C98.9232 120.902 99.1339 124.001 98.0385 124.001H85.3992C80.4699 124.001 77.8578 123.164 77.8999 120.735C77.8999 119.562 79.0374 117.51 80.9333 117.594C82.8292 117.677 85.2307 116.547 86.4525 115.751Z" fill="#509AB4"/>
<path fill-rule="evenodd" clip-rule="evenodd" d="M99.3024 89.8693C100.271 101.679 98.0806 109.05 98.2912 115.248C96.5639 116.714 87.9691 116.337 86.6631 113.489C87.59 108.464 90.4127 92.3821 89.5701 89.283C88.896 86.8959 89.528 83.0011 89.3595 80.1115C88.7275 67.5896 100.187 69.6836 98.9653 81.2841C98.7125 83.6293 99.1338 88.1942 99.3024 89.8693Z" fill="#39B6E1"/>
<path fill-rule="evenodd" clip-rule="evenodd" d="M102.631 69.0555C100.145 73.2853 99.3867 84.4252 98.1649 88.1106C96.4376 93.3873 89.4438 94.6856 89.4438 87.0217C89.4017 78.3108 88.6855 70.3538 91.9295 58.9626C94.2889 50.8381 107.981 60.0096 102.631 69.0555Z" fill="#39B6E1"/>
<path fill-rule="evenodd" clip-rule="evenodd" d="M72.4651 49.6651C66.3983 47.6968 61.8902 50.0839 60.8791 53.0155C59.868 55.947 61.6796 56.4914 62.8171 54.1462C63.9968 51.801 71.5382 53.2667 74.0661 52.9736C76.5097 52.7223 74.8244 50.6702 72.4651 49.6651Z" fill="#F0BBAF"/>
<path fill-rule="evenodd" clip-rule="evenodd" d="M87 35.0077C88.6852 31.783 91.5501 27.4276 92.2664 25.9618C92.6455 25.1242 98.0804 28.6421 97.5749 31.5736C97.1957 33.7932 91.8872 35.6778 87 35.0077Z" fill="#E8AB9D"/>
<path fill-rule="evenodd" clip-rule="evenodd" d="M24.3513 113.029C27.8903 113.029 30.7973 115.877 30.7973 119.436C30.7973 122.954 27.9324 125.844 24.3513 125.844C20.8123 125.844 17.9053 122.996 17.9053 119.436C17.9053 115.877 20.8123 113.029 24.3513 113.029Z" fill="#343F51"/>
<path fill-rule="evenodd" clip-rule="evenodd" d="M24.3515 115.876C26.2895 115.876 27.8905 117.468 27.8905 119.394C27.8905 121.321 26.2895 122.912 24.3515 122.912C22.4135 122.912 20.8125 121.321 20.8125 119.394C20.8125 117.468 22.3713 115.876 24.3515 115.876Z" fill="#495870"/>
<path fill-rule="evenodd" clip-rule="evenodd" d="M57.972 55.7379H68.6733C69.4738 55.7379 70.1057 55.1097 70.1057 54.314C70.1057 53.5183 69.4738 52.8901 68.6733 52.8901H57.972C57.1715 52.8901 56.5396 53.5183 56.5396 54.314C56.5396 55.0679 57.1715 55.7379 57.972 55.7379Z" fill="#BAB6B6"/>
<path fill-rule="evenodd" clip-rule="evenodd" d="M59.194 103.271V83.5037C59.194 82.708 58.562 82.0798 57.7616 82.0798C56.9611 82.0798 56.3291 82.708 56.3291 83.5037V103.271C56.3291 104.066 56.9611 104.695 57.7616 104.695C58.5199 104.695 59.194 104.066 59.194 103.271Z" fill="#BAB6B6"/>
<path fill-rule="evenodd" clip-rule="evenodd" d="M54.0959 88.0266L55.9496 55.3189C56.0339 53.8531 57.2978 52.8062 58.7724 52.8062C60.247 52.8062 61.3424 54.1463 61.3002 55.6121L59.4465 88.3197C59.3622 89.7855 58.0983 90.8325 56.6237 90.8325C55.107 90.8325 54.0116 89.4923 54.0959 88.0266Z" fill="#1573AD"/>
<path fill-rule="evenodd" clip-rule="evenodd" d="M27.8063 78.6038H57.8035C58.5619 78.6038 59.1939 79.2319 59.1939 79.9858V88.1522C59.1939 88.906 58.5619 89.5342 57.8035 89.5342H27.8063C27.048 89.5342 26.416 88.906 26.416 88.1522V79.9858C26.4581 79.1901 27.048 78.6038 27.8063 78.6038Z" fill="#1573AD"/>
<path fill-rule="evenodd" clip-rule="evenodd" d="M32.3143 74.4579H57.7192C58.5197 74.4579 59.1517 73.8297 59.1517 73.034C59.1517 72.2383 58.5197 71.6101 57.7192 71.6101H32.3143C31.5138 71.6101 30.8818 72.2383 30.8818 73.034C30.8818 73.8297 31.5138 74.4579 32.3143 74.4579Z" fill="#BAB6B6"/>
<path fill-rule="evenodd" clip-rule="evenodd" d="M25.9525 91.1676H57.7192C58.5197 91.1676 59.1516 90.5394 59.1516 89.7437C59.1516 88.948 58.5197 88.3198 57.7192 88.3198H25.9525C25.152 88.3198 24.52 88.948 24.52 89.7437C24.52 90.4975 25.1941 91.1676 25.9525 91.1676Z" fill="#BAB6B6"/>
<path fill-rule="evenodd" clip-rule="evenodd" d="M24.3514 84.9276H57.7612C58.5617 84.9276 59.1937 84.2994 59.1937 83.5037C59.1937 82.708 58.5617 82.0798 57.7612 82.0798H24.3514C23.5509 82.0798 22.9189 82.708 22.9189 83.5037C22.9189 84.2994 23.5509 84.9276 24.3514 84.9276Z" fill="#BAB6B6"/>
<path fill-rule="evenodd" clip-rule="evenodd" d="M24.9412 114.034H34.8419C35.6424 114.034 36.2744 113.406 36.2744 112.61C36.2744 111.814 35.6424 111.186 34.8419 111.186H24.9412C24.1407 111.186 23.5087 111.814 23.5087 112.61C23.4666 113.406 24.1407 114.034 24.9412 114.034Z" fill="#BAB6B6"/>
<path fill-rule="evenodd" clip-rule="evenodd" d="M25.7838 117.97V83.5037C25.7838 82.708 25.1519 82.0798 24.3514 82.0798C23.5509 82.0798 22.9189 82.708 22.9189 83.5037V117.97C22.9189 118.766 23.5509 119.394 24.3514 119.394C25.1519 119.394 25.7838 118.766 25.7838 117.97Z" fill="#BAB6B6"/>
<path fill-rule="evenodd" clip-rule="evenodd" d="M39.4344 119.394H57.7192C58.5197 119.394 59.1517 118.766 59.1517 117.97C59.1517 117.174 58.5197 116.546 57.7192 116.546H39.4344C38.6339 116.546 38.002 117.174 38.002 117.97C38.002 118.766 38.6339 119.394 39.4344 119.394Z" fill="#BAB6B6"/>
<path d="M31.4295 111.186H11.0381V114.076H31.4295V111.186Z" fill="#BAB6B6"/>
<path fill-rule="evenodd" clip-rule="evenodd" d="M25.6997 118.431L27.2164 112.987C27.722 111.144 20.981 111.144 21.4866 112.987L22.9612 118.389C23.3403 119.73 25.3626 119.688 25.6997 118.431Z" fill="#D9D5D5"/>
<path fill-rule="evenodd" clip-rule="evenodd" d="M33.6625 113.531L38.2969 118.892C38.8025 119.478 39.7294 119.562 40.3192 119.059C40.909 118.557 40.9933 117.635 40.4877 117.049L35.8533 111.688C35.3478 111.102 34.4209 111.018 33.8311 111.521C33.2412 112.023 33.157 112.945 33.6625 113.531Z" fill="#BAB6B6"/>
<path d="M57.7614 104.318V124.169M57.7614 104.318L64.5866 122.954M57.7614 104.318L70.5692 119.52M57.7614 104.318L75.0351 114.243M57.7614 104.318L77.3944 107.752M57.7614 104.318L77.3944 100.884M57.7614 104.318L75.0351 94.3924M57.7614 104.318L70.5692 89.1156M57.7614 104.318L64.5866 85.6815M57.7614 104.318V84.467M57.7614 104.318L50.9362 85.6815M57.7614 104.318L44.9536 89.1156M57.7614 104.318L40.4878 94.3924M57.7614 104.318L38.1284 100.884M57.7614 104.318L38.1284 107.752M57.7614 104.318L40.4878 114.243M57.7614 104.318L44.9536 119.52M57.7614 104.318L50.9362 122.954" stroke="#343F51" stroke-width="1.1999" stroke-miterlimit="22.9256"/>
<path fill-rule="evenodd" clip-rule="evenodd" d="M57.7616 82.8337C69.6847 82.8337 79.3748 92.466 79.3748 104.318C79.3748 116.17 69.6847 125.802 57.7616 125.802C45.8386 125.802 36.1484 116.17 36.1484 104.318C36.1484 92.466 45.7964 82.8337 57.7616 82.8337ZM57.7616 85.7653C47.4395 85.7653 39.0555 94.0993 39.0555 104.36C39.0555 114.62 47.4395 122.954 57.7616 122.954C68.0837 122.954 76.4677 114.62 76.4677 104.36C76.4256 94.0574 68.0837 85.7653 57.7616 85.7653Z" fill="#343F51"/>
<path fill-rule="evenodd" clip-rule="evenodd" d="M57.7613 87.8174C66.9459 87.8174 74.403 95.23 74.403 104.36C74.403 113.489 66.9459 120.902 57.7613 120.902C48.5768 120.902 41.1196 113.489 41.1196 104.36C41.1196 95.1881 48.5768 87.8174 57.7613 87.8174ZM57.7613 89.4507C49.5037 89.4507 42.8049 96.1095 42.8049 104.318C42.8049 112.526 49.5037 119.185 57.7613 119.185C66.019 119.185 72.7178 112.526 72.7178 104.318C72.7178 96.1095 66.019 89.4507 57.7613 89.4507Z" fill="#495870"/>
<path fill-rule="evenodd" clip-rule="evenodd" d="M57.7612 100.674C59.7835 100.674 61.4688 102.307 61.4688 104.359C61.4688 106.37 59.8256 108.045 57.7612 108.045C55.7389 108.045 54.0537 106.412 54.0537 104.359C54.0537 102.307 55.6968 100.674 57.7612 100.674Z" fill="#343F51"/>
<path d="M105.538 51.1309C101.535 54.2718 95.0473 57.329 90.3286 57.9572" stroke="white" stroke-width="0.5669" stroke-miterlimit="22.9256" stroke-linecap="round" stroke-linejoin="round" stroke-dasharray="0.57 0.57"/>
<path d="M94.2466 27.1343C95.4262 26.6736 98.2069 23.407 98.4597 21.6062" stroke="white" stroke-width="0.5669" stroke-miterlimit="22.9256" stroke-linecap="round" stroke-linejoin="round" stroke-dasharray="0.57 0.57"/>
<path fill-rule="evenodd" clip-rule="evenodd" d="M109.541 111.102C110.299 113.74 113.29 117.049 112.7 118.975C111.731 122.116 108.614 120.399 103.137 122.744C100.651 123.791 95.9743 124.545 94.8368 123.666C93.6993 122.786 94.584 121.739 96.5642 120.609C101.536 117.761 103.389 115.876 102.631 110.809C102.336 109.008 108.319 106.747 109.541 111.102Z" fill="#F0BBAF"/>
<path fill-rule="evenodd" clip-rule="evenodd" d="M96.6485 16.7068L90.1182 18.8845L91.677 29.3962L97.9545 28.2236L96.6485 16.7068Z" fill="#E8AB9D"/>
<path fill-rule="evenodd" clip-rule="evenodd" d="M107.012 88.8225C110.678 100.088 110.931 108.129 111.815 113.782C110.467 115.583 101.999 117.175 100.103 114.662C99.9344 109.72 99.3446 93.136 97.8279 90.3301C96.6482 88.1524 95.8056 85.7234 95.0051 82.9594C91.5504 70.94 103.305 68.9298 104.779 80.5304C105.074 82.8756 106.507 87.2311 107.012 88.8225Z" fill="#21A1CD"/>
<path fill-rule="evenodd" clip-rule="evenodd" d="M104.232 50.8379C110.383 62.9829 106.254 63.4436 105.032 67.8828C103.726 72.6151 105.917 83.5456 105.706 87.3985C105.411 92.9684 99.0075 95.9837 96.9852 88.5711C94.7102 80.1534 91.0026 67.7571 90.6656 55.9053C90.3707 44.221 102.167 46.7757 104.232 50.8379Z" fill="#21A1CD"/>
<path fill-rule="evenodd" clip-rule="evenodd" d="M97.7012 25.5427C103.726 31.9502 100.819 41.2474 102.378 46.6917C103.347 50.0839 108.992 54.5231 107.391 66.8356C104.189 69.7253 92.5613 69.9347 87.969 68.7202C87.5056 63.0246 88.2218 56.9521 88.3903 53.8112C88.6852 48.1575 83.798 45.6029 84.2615 41.4568C84.5985 38.5672 87.8426 32.8297 88.2639 31.5733C90.3705 31.4058 95.3419 28.9349 97.7012 25.5427Z" fill="#39B6E1"/>
<path fill-rule="evenodd" clip-rule="evenodd" d="M97.9965 30.61C91.2134 27.8879 88.1379 40.4516 85.7364 46.6497C84.1355 50.7539 86.7897 53.4761 89.6125 49.7488C92.4352 46.0216 102.673 32.4946 97.9965 30.61Z" fill="#F0BBAF"/>
<path fill-rule="evenodd" clip-rule="evenodd" d="M86.5365 52.0108C82.9554 52.4715 77.2256 52.8484 72.2541 53.0997C71.7486 52.304 70.9902 51.3408 71.58 49.4562C75.6667 49.1631 82.3234 47.1529 85.4411 46.064C89.1908 44.7657 90.7075 51.969 86.5365 52.0108Z" fill="#F0BBAF"/>
<path fill-rule="evenodd" clip-rule="evenodd" d="M84.6412 5.4827C82.6189 8.24673 79.8804 17.0414 81.7341 19.8054C81.5235 23.1138 83.1666 24.2027 85.9472 23.9514C89.402 23.6583 95.7637 23.1557 95.7216 17.502C95.6795 14.403 102.125 7.45102 97.8281 4.35195C93.0673 0.875978 87.6325 1.42041 84.6412 5.4827Z" fill="#F0BBAF"/>
<path d="M84.9588 19.3169C84.3285 20.2751 82.4832 20.7121 82.0788 20.2338" stroke="#D99F92" stroke-width="0.9598" stroke-miterlimit="22.9256" stroke-linecap="round" stroke-linejoin="round"/>
<path fill-rule="evenodd" clip-rule="evenodd" d="M82.3657 12.2673C80.5541 14.6963 77.5628 16.4552 81.0596 17.7954C84.5986 19.1355 83.8824 10.7597 82.3657 12.2673Z" fill="#F0B7AA"/>
<path fill-rule="evenodd" clip-rule="evenodd" d="M83.7561 12.686C84.1353 12.686 84.4302 12.9373 84.4302 13.3142C84.4302 13.6911 84.1774 13.9843 83.7982 13.9843C83.419 13.9843 83.1241 13.733 83.1241 13.3561C83.082 13.0211 83.3769 12.7279 83.7561 12.686Z" fill="#303030"/>
<path d="M85.568 11.6392C84.936 10.8854 83.4614 10.8435 82.8716 11.2623" stroke="#754730" stroke-width="1.1999" stroke-miterlimit="22.9256" stroke-linecap="round" stroke-linejoin="round"/>
<path fill-rule="evenodd" clip-rule="evenodd" d="M87.4638 0.499161C76.7205 -0.50594 87.4217 13.6074 93.0251 14.1937C96.3113 18.2978 96.4799 24.831 95.9743 27.595C111.436 8.33057 99.0498 -2.51614 87.4638 0.499161Z" fill="#754730"/>
<path fill-rule="evenodd" clip-rule="evenodd" d="M93.362 11.7647C92.5615 11.639 91.7189 12.7698 91.4661 14.2774C91.2133 15.7851 91.6768 17.1252 92.4773 17.2508C93.2778 17.3765 94.1204 16.2457 94.3732 14.7381C94.5838 13.2304 94.1625 11.8903 93.362 11.7647Z" fill="#F0BBAF"/>
<path fill-rule="evenodd" clip-rule="evenodd" d="M88.8963 12.6858C82.703 8.83295 83.1243 1.16906 87.3374 0.540869C78.5321 -0.0873189 79.5011 9.04235 88.8963 12.6858Z" fill="#754730"/>
<path fill-rule="evenodd" clip-rule="evenodd" d="M101.03 116.295C103.432 116.463 106.76 118.389 107.434 120.148C108.993 120.567 111.774 118.766 113.08 118.389C114.386 118.054 115.06 121.153 114.006 121.447L101.831 124.713C97.0698 126.011 94.6683 125.634 94.0785 123.289C93.7836 122.075 95.2161 120.065 97.2805 119.436C99.2185 118.934 100.482 117.552 101.03 116.295Z" fill="#40A8CC"/>
<path fill-rule="evenodd" clip-rule="evenodd" d="M98.2493 30.2337C93.1093 28.1817 89.149 33.7935 86.7476 39.866C88.8541 40.8711 93.0672 43.0488 95.8057 44.1376C99.3868 38.5677 101.451 31.532 98.2493 30.2337Z" fill="#5FD4FC"/>
<path fill-rule="evenodd" clip-rule="evenodd" d="M96.9013 61.0151L92.9831 56.7852C92.8567 56.6177 92.6039 56.6177 92.4354 56.7434L92.3511 56.8271L89.6126 53.9793C89.3598 53.6862 89.0228 53.9793 89.2756 54.2725L91.8877 57.2459C91.7191 57.3716 91.7192 57.6228 91.8456 57.7903L95.7637 62.0202C95.8901 62.1877 96.1429 62.1877 96.3114 62.062L96.8591 61.5595C97.0277 61.392 97.0277 61.1407 96.9013 61.0151Z" fill="white"/>
<path fill-rule="evenodd" clip-rule="evenodd" d="M93.4466 57.9992C93.3623 57.9155 93.1938 57.8736 93.1096 57.9992C93.0253 58.083 92.9832 58.2505 93.1096 58.3342C93.1938 58.418 93.3623 58.4599 93.4466 58.3342C93.5309 58.2505 93.573 58.1249 93.4466 57.9992Z" fill="#E66E6E"/>
<path fill-rule="evenodd" clip-rule="evenodd" d="M89.9918 54.314L89.6126 53.9371C89.3598 53.6439 89.0228 53.9371 89.2756 54.2303L89.6126 54.6072L89.9918 54.314Z" fill="#E66E6E"/>
<path fill-rule="evenodd" clip-rule="evenodd" d="M96.9009 61.0145L96.6481 60.7632L95.5527 61.7683L95.8055 62.0196C95.9319 62.1871 96.1847 62.1871 96.3532 62.0614L96.9009 61.5589C97.0273 61.3914 97.0273 61.1401 96.9009 61.0145Z" fill="#E66E6E"/>
<path d="M94.126 58.5656L93.6294 59.0188L95.4245 60.9625L95.9211 60.5093L94.126 58.5656Z" fill="#343F51"/>
<path fill-rule="evenodd" clip-rule="evenodd" d="M91.6769 58.3765C93.4464 58.7115 95.3001 58.7115 97.1539 58.3765C97.4067 60.8892 97.3646 63.4439 97.1539 65.9566C95.258 66.1241 93.4464 66.1241 91.6769 65.9566C91.4241 63.8208 91.382 61.3918 91.6769 58.3765Z" fill="#5FD4FC"/>
<path fill-rule="evenodd" clip-rule="evenodd" d="M97.28 59.549C95.3419 59.8421 93.446 59.8421 91.5923 59.549C91.6344 59.1721 91.6765 58.7533 91.7187 58.3345C93.4882 58.6695 95.3419 58.6695 97.1957 58.3345C97.2378 58.7533 97.2378 59.1721 97.28 59.549Z" fill="#A1D9FC"/>
</svg>
