<svg width="16" height="16" viewBox="0 0 16 16" fill="none" xmlns="http://www.w3.org/2000/svg">
<circle cx="8" cy="8" r="8" fill="#007EA9"/>
<path d="M8.49974 3.36804C8.49974 3.0919 8.27588 2.86804 7.99974 2.86804C7.7236 2.86804 7.49974 3.0919 7.49974 3.36804H8.49974ZM7.49974 12.6312C7.49974 12.9073 7.7236 13.1312 7.99974 13.1312C8.27588 13.1312 8.49974 12.9073 8.49974 12.6312H7.49974ZM9.60919 4.80377C9.85399 4.67599 9.94886 4.37396 9.82108 4.12916C9.6933 3.88436 9.39126 3.78949 9.14646 3.91727L9.60919 4.80377ZM7.99974 4.69135L8.00043 4.19135L7.99905 4.19135L7.99974 4.69135ZM6.85302 3.91727C6.60822 3.78949 6.30619 3.88436 6.17841 4.12916C6.05063 4.37396 6.14549 4.67599 6.39029 4.80377L6.85302 3.91727ZM6.39094 11.1951C6.14596 11.3225 6.05065 11.6244 6.17807 11.8694C6.30549 12.1144 6.60738 12.2097 6.85237 12.0823L6.39094 11.1951ZM7.99974 11.3079V10.8079V11.3079ZM9.14711 12.0823C9.3921 12.2097 9.694 12.1144 9.82142 11.8694C9.94884 11.6244 9.85353 11.3225 9.60854 11.1951L9.14711 12.0823ZM12.8549 6.13104C13.1019 6.00755 13.202 5.70721 13.0785 5.46022C12.955 5.21324 12.6547 5.11312 12.4077 5.23662L12.8549 6.13104ZM3.14456 9.8682C2.89757 9.99169 2.79746 10.292 2.92095 10.539C3.04445 10.786 3.34478 10.8861 3.59177 10.7626L3.14456 9.8682ZM12.1112 7.66462C12.3601 7.78417 12.6588 7.6793 12.7783 7.43037C12.8979 7.18145 12.793 6.88275 12.5441 6.76319L12.1112 7.66462ZM11.4497 5.15641C11.4553 4.88032 11.236 4.65196 10.96 4.64634C10.6839 4.64072 10.4555 4.85998 10.4499 5.13606L11.4497 5.15641ZM3.88833 8.33462C3.63941 8.21507 3.3407 8.31994 3.22115 8.56887C3.10159 8.81779 3.20647 9.11649 3.45539 9.23605L3.88833 8.33462ZM4.54981 10.8428C4.54419 11.1189 4.76345 11.3473 5.03953 11.3529C5.31562 11.3585 5.54398 11.1393 5.5496 10.8632L4.54981 10.8428ZM3.59177 5.23662C3.34478 5.11312 3.04445 5.21324 2.92095 5.46022C2.79746 5.70721 2.89757 6.00755 3.14456 6.13104L3.59177 5.23662ZM12.4077 10.7626C12.6547 10.8861 12.955 10.786 13.0785 10.539C13.202 10.292 13.1019 9.99169 12.8549 9.8682L12.4077 10.7626ZM3.45539 6.76319C3.20647 6.88275 3.10159 7.18145 3.22115 7.43037C3.3407 7.6793 3.63941 7.78417 3.88833 7.66462L3.45539 6.76319ZM5.5496 5.13606C5.54398 4.85998 5.31562 4.64072 5.03953 4.64634C4.76345 4.65196 4.54419 4.88032 4.54981 5.15641L5.5496 5.13606ZM12.5441 9.23605C12.793 9.11649 12.8979 8.81779 12.7783 8.56887C12.6588 8.31994 12.3601 8.21507 12.1112 8.33462L12.5441 9.23605ZM10.4499 10.8632C10.4555 11.1393 10.6839 11.3585 10.96 11.3529C11.236 11.3473 11.4553 11.1189 11.4497 10.8428L10.4499 10.8632ZM7.49974 3.36804V12.6312H8.49974V3.36804H7.49974ZM9.14646 3.91727C8.80474 4.09564 8.40818 4.19191 8.00043 4.19135L7.99905 5.19135C8.56253 5.19213 9.1191 5.05959 9.60919 4.80377L9.14646 3.91727ZM7.99905 4.19135C7.59131 4.19191 7.19474 4.09564 6.85302 3.91727L6.39029 4.80377C6.88039 5.05959 7.43696 5.19213 8.00043 5.19135L7.99905 4.19135ZM6.85237 12.0823C7.1948 11.9042 7.59165 11.8079 7.99974 11.8079V10.8079C7.43682 10.8079 6.88095 10.9403 6.39094 11.1951L6.85237 12.0823ZM7.99974 11.8079C8.40783 11.8079 8.80469 11.9042 9.14711 12.0823L9.60854 11.1951C9.11854 10.9403 8.56267 10.8079 7.99974 10.8079V11.8079ZM12.4077 5.23662L3.14456 9.8682L3.59177 10.7626L12.8549 6.13104L12.4077 5.23662ZM12.5441 6.76319C12.1939 6.59502 11.9129 6.35213 11.7237 6.06826L10.8916 6.62279C11.1879 7.0674 11.612 7.42488 12.1112 7.66462L12.5441 6.76319ZM11.7237 6.06826C11.5352 5.78534 11.4433 5.47043 11.4497 5.15641L10.4499 5.13606C10.4392 5.663 10.5947 6.17723 10.8916 6.62279L11.7237 6.06826ZM3.45539 9.23605C3.80555 9.40422 4.08659 9.64712 4.27575 9.93098L5.10791 9.37645C4.81163 8.93184 4.3875 8.57436 3.88833 8.33462L3.45539 9.23605ZM4.27575 9.93098C4.46428 10.2139 4.5562 10.5288 4.54981 10.8428L5.5496 10.8632C5.56032 10.3362 5.40482 9.82201 5.10791 9.37645L4.27575 9.93098ZM3.14456 6.13104L12.4077 10.7626L12.8549 9.8682L3.59177 5.23662L3.14456 6.13104ZM3.88833 7.66462C4.3875 7.42488 4.81163 7.0674 5.10791 6.62279L4.27575 6.06826C4.08659 6.35213 3.80555 6.59502 3.45539 6.76319L3.88833 7.66462ZM5.10791 6.62279C5.40482 6.17723 5.56032 5.663 5.5496 5.13606L4.54981 5.15641C4.5562 5.47043 4.46428 5.78534 4.27575 6.06826L5.10791 6.62279ZM12.1112 8.33462C11.612 8.57436 11.1879 8.93184 10.8916 9.37645L11.7237 9.93098C11.9129 9.64712 12.1939 9.40422 12.5441 9.23605L12.1112 8.33462ZM10.8916 9.37645C10.5947 9.82201 10.4392 10.3362 10.4499 10.8632L11.4497 10.8428C11.4433 10.5288 11.5352 10.2139 11.7237 9.93098L10.8916 9.37645Z" fill="white"/>
<rect width="1.28895" height="14.3216" rx="0.644475" transform="matrix(0.683911 -0.729566 0.589639 0.807667 3.61279 2.61462)" fill="#FAFAFA"/>
<path d="M3.97862 3.1511C3.75528 2.84517 3.78422 2.37314 4.04328 2.0968L12.5281 13.719C12.269 13.9954 11.878 13.9714 11.6546 13.6654L3.97862 3.1511Z" fill="#007EA9"/>
</svg>
