<svg width="246" height="519" viewBox="0 0 246 519" fill="none" xmlns="http://www.w3.org/2000/svg">
<path id="Human Body" d="M145.08 66.1403C156.025 43.2269 155.099 20.4455 149.607 12.452C144.702 5.31167 134.147 -0.144149 122.797 0.00312457C111.446 -0.144149 101.298 5.31167 96.3928 12.452C90.9015 20.4455 89.9746 43.2269 100.92 66.1403C101.111 66.5411 101.176 66.9976 101.053 67.4244C98.8727 74.9914 86.3648 83.6106 62.6115 86.1179C51.7085 87.3725 28.9374 96.0117 25.0767 120.531C20.259 151.129 -7.55012 254.263 1.97103 280.634C2.0051 280.729 2.02561 280.808 2.05392 280.904C3.59885 286.158 32.9412 300.26 29.4957 291.296C29.4208 291.102 29.2973 290.907 29.1591 290.751C20.2165 280.628 11.0201 263.774 35.422 278.593C35.9796 278.932 36.6961 279.004 37.3136 278.793C40.8528 277.587 43.8014 276.571 20.4183 248.705C20.3107 248.576 20.1789 248.461 20.0596 248.343C18.8918 247.193 18.048 243.225 22.9319 235.063C29.3664 224.308 36.8734 201.725 39.5544 188.282C42.0612 175.713 47.3805 152.803 59.8952 140.648C61.022 139.553 62.8142 140.292 62.9486 141.857C64.1684 156.064 65.6357 186.872 63.6994 221.346C63.6892 221.527 63.6571 221.698 63.5991 221.87C58.6162 236.624 50.1045 272.361 55.0004 300.085C55.0673 300.464 55.2447 300.805 55.49 301.101C58.6619 304.936 64.7185 317.589 66.365 341.528C68.5072 372.678 69.5796 353.941 66.3765 397.293C66.3691 397.393 66.3682 397.493 66.3761 397.593C67.124 407.036 71.4642 433.091 82.9875 463.05C85.8473 468.786 89.851 482.838 82.9875 493.162C76.7477 502.547 75.9443 509.089 76.387 511.816C76.462 512.278 76.764 512.655 77.1722 512.883C81.3264 515.203 92.0144 519.086 107.013 518.999C107.998 518.993 108.82 518.251 108.935 517.273C110.014 508.064 111.541 488.186 110.334 470.04C108.726 445.843 113.015 383.469 110.334 362.499C108.429 347.594 115.655 308.101 120.925 284.141C121.378 282.081 124.222 282.08 124.681 284.138C130.024 308.098 137.571 347.594 135.666 362.499C132.985 383.469 137.274 445.843 135.666 470.04C134.459 488.186 135.986 508.064 137.065 517.273C137.18 518.251 138.002 518.993 138.987 518.999C153.986 519.086 164.674 515.203 168.828 512.883C169.236 512.655 169.538 512.278 169.613 511.816C170.056 509.089 169.252 502.547 163.012 493.162C156.149 482.838 160.153 468.786 163.012 463.05C174.536 433.091 178.876 407.036 179.624 397.593C179.632 397.493 179.631 397.393 179.623 397.293C176.42 353.941 177.493 372.678 179.635 341.528C181.281 317.589 187.338 304.936 190.51 301.101C190.755 300.805 190.933 300.464 191 300.085C195.896 272.361 187.384 236.624 182.401 221.87C182.343 221.698 182.311 221.527 182.301 221.346C180.364 186.872 181.832 156.064 183.051 141.857C183.186 140.292 184.978 139.553 186.105 140.648C198.62 152.803 203.939 175.713 206.446 188.282C209.127 201.725 216.634 224.308 223.068 235.063C227.952 243.225 227.108 247.193 225.94 248.343C225.821 248.461 225.689 248.576 225.582 248.705C202.199 276.571 205.147 277.587 208.686 278.793C209.304 279.004 210.02 278.932 210.578 278.593C234.98 263.774 225.783 280.628 216.841 290.751C216.703 290.907 216.579 291.102 216.504 291.296C213.059 300.26 242.401 286.158 243.946 280.904C243.974 280.808 243.995 280.729 244.029 280.634C253.55 254.263 225.741 151.129 220.923 120.531C217.063 96.0117 194.291 87.3725 183.389 86.1179C159.635 83.6106 147.127 74.9914 144.947 67.4244C144.824 66.9976 144.889 66.5411 145.08 66.1403Z" fill="#F4D79F"/>
</svg>
