<svg width="25" height="27" viewBox="0 0 25 27" fill="none" xmlns="http://www.w3.org/2000/svg">
<path d="M12.0798 0.102042C11.6271 0.316772 11.6495 0.13106 11.6159 4.19932L11.588 7.79749L11.4259 8.27918C11.1018 9.24256 10.923 9.44568 8.68201 11.4305C7.5755 12.4113 6.59753 13.305 6.50812 13.4211C6.27899 13.7171 6.24546 14.1581 6.42988 14.4425C6.65901 14.8023 7.06137 14.93 7.46374 14.7733C7.6258 14.7095 10.8503 11.9006 11.6103 11.1635C11.7724 11.0068 12.0239 10.7108 12.158 10.5077C12.2977 10.3104 12.4151 10.1479 12.4262 10.1479C12.4318 10.1479 12.5101 10.2582 12.5939 10.3917C12.6777 10.5251 12.8677 10.7631 13.0074 10.9198C13.298 11.2506 17.2211 14.7385 17.3608 14.8023C17.5229 14.8662 17.8694 14.8546 18.0594 14.7675C18.2941 14.663 18.5735 14.3554 18.6853 14.0769C18.7523 13.9028 18.7579 13.8099 18.7132 13.63C18.6461 13.3689 18.7635 13.4849 16.1872 11.1983C15.2149 10.3336 14.3095 9.49211 14.181 9.32381C14.0525 9.15551 13.8625 8.83051 13.7619 8.60998C13.4154 7.83811 13.4042 7.66981 13.4042 4.0136C13.4042 0.873908 13.3986 0.705607 13.2924 0.467663C13.108 0.0382038 12.566 -0.124294 12.0798 0.102042Z" fill="#0B83A5"/>
<path d="M7.63139 3.79307C5.58603 4.3328 3.28361 7.25776 1.76356 11.2506C0.511758 14.5354 -0.0806133 18.0175 0.00880118 21.5808C0.0590969 23.6236 0.237926 24.7321 0.662645 25.6259C1.00913 26.3513 1.60709 26.8446 2.2274 26.9084C2.75271 26.9607 3.1886 26.7808 5.04954 25.7651L5.72015 25.3995L6.53047 25.3473C9.04526 25.1848 10.1685 24.4652 10.895 22.5558C11.275 21.5576 11.4483 20.2808 11.5097 18.0987C11.5321 17.1585 11.5712 16.2648 11.588 16.1197C11.6215 15.8934 11.4706 13.926 11.4203 13.8738C11.4147 13.8622 10.7888 14.3787 10.0456 15.0229C9.29673 15.667 8.56465 16.259 8.41377 16.3344C7.53639 16.7987 6.41312 16.7233 5.58044 16.1371C5.21161 15.876 4.79807 15.3304 4.63041 14.8662C4.44041 14.3671 4.41805 13.688 4.56335 13.1831C4.78689 12.4345 4.9769 12.2082 6.61989 10.7515C9.65439 8.05865 9.57615 8.1457 9.73822 7.53053C9.81087 7.27517 9.82763 6.89795 9.82763 5.69662C9.82763 3.96137 9.88352 4.13548 9.24085 3.88012C8.81054 3.71182 8.08405 3.677 7.63139 3.79307Z" fill="#0B83A5"/>
<path d="M16.109 3.78727C15.9525 3.82789 15.6899 3.93816 15.5222 4.03682L15.2204 4.21092V7.50732L15.3713 7.83811C15.4496 8.01802 15.6284 8.29079 15.7569 8.43588C15.8911 8.58677 16.8187 9.43408 17.8191 10.322C18.8194 11.2041 19.7415 12.0515 19.87 12.1965C20.8312 13.2818 20.7697 15.0054 19.7247 15.9572C18.9759 16.6478 17.8135 16.8858 16.9305 16.5376C16.5784 16.3983 16.5561 16.3809 14.9243 14.9764C14.2034 14.3555 13.611 13.8622 13.5998 13.8738C13.5886 13.8796 13.5439 14.309 13.4936 14.8139C13.3372 16.4621 13.3874 19.4045 13.6054 20.8264C13.8457 22.4223 14.4492 23.7978 15.1701 24.4013C15.9693 25.0629 16.7517 25.3183 18.2438 25.4111C19.1714 25.4634 19.4565 25.5504 20.1662 25.9857C21.4683 26.7866 22.2898 27.0883 22.8598 26.9781C24.011 26.7517 24.609 25.7593 24.894 23.612C25.0169 22.6951 25.0393 19.6599 24.9275 18.563C24.5251 14.5528 23.413 10.9024 21.6862 7.91356C20.6133 6.05644 19.1547 4.5069 18.0146 3.99619C17.3887 3.71763 16.6902 3.64218 16.109 3.78727Z" fill="#0B83A5"/>
</svg>
