<svg width="25" height="25" viewBox="0 0 25 25" fill="none" xmlns="http://www.w3.org/2000/svg">
<path d="M0 3C0 1.34315 1.34315 0 3 0H22C23.6569 0 25 1.34315 25 3V22C25 23.6569 23.6569 25 22 25H3C1.34315 25 0 23.6569 0 22V3Z" fill="#0B83A5"/>
<path d="M9.338 15.153C8.454 15.153 7.655 14.9547 6.941 14.558C6.227 14.15 5.666 13.5833 5.258 12.858C4.85 12.1213 4.646 11.2713 4.646 10.308C4.646 9.356 4.85567 8.51167 5.275 7.775C5.69433 7.03833 6.26667 6.47167 6.992 6.075C7.71733 5.67833 8.52767 5.48 9.423 5.48C10.3183 5.48 11.1287 5.67833 11.854 6.075C12.5793 6.47167 13.1517 7.03833 13.571 7.775C13.9903 8.51167 14.2 9.356 14.2 10.308C14.2 11.26 13.9847 12.1043 13.554 12.841C13.1233 13.5777 12.534 14.15 11.786 14.558C11.0493 14.9547 10.2333 15.153 9.338 15.153ZM9.338 13.47C9.83667 13.47 10.3013 13.351 10.732 13.113C11.174 12.875 11.531 12.518 11.803 12.042C12.075 11.566 12.211 10.988 12.211 10.308C12.211 9.628 12.0807 9.05567 11.82 8.591C11.5593 8.115 11.2137 7.758 10.783 7.52C10.3523 7.282 9.88767 7.163 9.389 7.163C8.89033 7.163 8.42567 7.282 7.995 7.52C7.57567 7.758 7.24133 8.115 6.992 8.591C6.74267 9.05567 6.618 9.628 6.618 10.308C6.618 11.3167 6.873 12.0987 7.383 12.654C7.90433 13.198 8.556 13.47 9.338 13.47Z" fill="white"/>
<path d="M15.353 18.295C16.057 17.6863 16.6107 17.1877 17.014 16.799C17.4247 16.403 17.7657 15.9923 18.037 15.567C18.3083 15.1417 18.444 14.7163 18.444 14.291C18.444 13.851 18.3377 13.5063 18.125 13.257C17.9197 13.0077 17.5933 12.883 17.146 12.883C16.7133 12.883 16.376 13.0223 16.134 13.301C15.8993 13.5723 15.7747 13.939 15.76 14.401H14.55C14.572 13.565 14.8213 12.927 15.298 12.487C15.782 12.0397 16.3943 11.816 17.135 11.816C17.9343 11.816 18.5577 12.036 19.005 12.476C19.4597 12.916 19.687 13.5027 19.687 14.236C19.687 14.764 19.5513 15.2737 19.28 15.765C19.016 16.249 18.697 16.6853 18.323 17.074C17.9563 17.4553 17.487 17.899 16.915 18.405L16.42 18.845H19.907V19.89H14.561V18.977L15.353 18.295Z" fill="white"/>
</svg>
