<svg width="25" height="29" viewBox="0 0 25 29" fill="none" xmlns="http://www.w3.org/2000/svg">
<path d="M22.5932 0.0834766C22.4207 0.216382 20.7616 2.45266 20.7058 2.62024C20.6348 2.82826 20.7312 3.09985 20.9088 3.20386C21.0001 3.26165 21.203 3.29054 21.4872 3.29054H21.9184V25.7111H21.4872C20.9798 25.7111 20.787 25.7978 20.7058 26.0636C20.6652 26.2023 20.6703 26.2832 20.721 26.4219C20.8377 26.7108 22.5324 28.9066 22.6947 28.9702C22.9535 29.0742 23.0803 28.9586 23.9885 27.7625C24.988 26.445 25.0591 26.3236 24.9627 26.0578C24.8663 25.792 24.6836 25.7111 24.1762 25.7111H23.745V3.29054H24.1762C24.4604 3.29054 24.6633 3.26165 24.7546 3.20386C24.9221 3.10563 25.0388 2.83404 24.988 2.65491C24.9424 2.49889 23.1767 0.141262 23.0397 0.0603626C22.8977 -0.0263148 22.7201 -0.0205363 22.5932 0.0834766Z" fill="#0B83A5"/>
<path d="M0.131916 0.378181C0.00507372 0.522644 0 0.563093 0 1.12939V1.72457L1.53226 1.75924L1.65403 1.92104C1.82146 2.1464 1.81132 2.3891 1.62866 2.6029L1.48152 2.77048H0V3.81061H0.53274C1.03504 3.81061 1.07563 3.82217 1.19232 3.95507C1.36483 4.14576 1.36483 4.4578 1.19232 4.64849C1.07563 4.7814 1.03504 4.79295 0.53274 4.79295H0V5.83308H1.48152L1.62866 6.00066C1.78595 6.17979 1.81639 6.38782 1.71999 6.59584C1.61851 6.80387 1.3699 6.87321 0.659582 6.87321H0V7.85555H0.502297C0.969079 7.85555 1.01982 7.86711 1.16188 8.0058C1.38512 8.2196 1.38512 8.53164 1.16188 8.74544C1.01982 8.88413 0.969079 8.89568 0.502297 8.89568H0V9.93581H0.761057C1.50689 9.93581 1.53226 9.94159 1.64896 10.0803C1.82146 10.271 1.82146 10.5657 1.64388 10.7679C1.51197 10.9182 1.50182 10.9182 0.755983 10.9182H0V11.9583H0.53274C1.03504 11.9583 1.07563 11.9698 1.19232 12.1027C1.35975 12.2877 1.35975 12.5881 1.1974 12.8077C1.0807 12.958 1.05533 12.9695 0.537813 12.9869L0 13.01V13.9808H1.48152L1.62866 14.1483C1.82654 14.3795 1.82654 14.6222 1.62866 14.8533L1.48152 15.0209H0V15.9917L0.537813 16.0148C1.05533 16.0321 1.0807 16.0437 1.1974 16.1939C1.35975 16.4135 1.35975 16.714 1.19232 16.8989C1.07563 17.0318 1.03504 17.0434 0.53274 17.0434H0V18.0835H0.755983C1.50182 18.0835 1.51197 18.0835 1.64388 18.2337C1.82146 18.436 1.82146 18.7307 1.64896 18.9214C1.53226 19.0601 1.50689 19.0658 0.761057 19.0658H0V20.106H0.502297C0.969079 20.106 1.01982 20.1175 1.16188 20.2562C1.3699 20.4527 1.38005 20.7705 1.18725 20.9785C1.07055 21.1056 1.00459 21.1172 0.527666 21.1345L0 21.1577V22.1284H0.659582C1.3699 22.1284 1.61851 22.1978 1.71999 22.4058C1.81639 22.6138 1.78595 22.8219 1.62866 23.001L1.48152 23.1686H0V24.2087H0.53274C1.03504 24.2087 1.07563 24.2203 1.19232 24.3532C1.36483 24.5439 1.36483 24.8559 1.19232 25.0466C1.07563 25.1795 1.03504 25.191 0.53274 25.191H0V26.2312H1.48152L1.62866 26.3987C1.81132 26.6126 1.82146 26.8552 1.65403 27.0806L1.53226 27.2424L0 27.2771V27.8723C0 28.4386 0.00507372 28.479 0.131916 28.6235L0.268907 28.7737H2.8362L3.12033 28.4963V0.505308L2.8362 0.22794H0.268907L0.131916 0.378181Z" fill="#0B83A5"/>
<path d="M11.7253 0.34351C11.1875 0.505308 10.741 0.811568 10.2996 1.32008C9.68064 2.03083 9.41681 2.78781 9.41681 3.81061C9.42188 4.85074 9.74153 5.67128 10.4163 6.3936C11.01 7.02345 11.7051 7.33549 12.5524 7.33549C13.354 7.33549 14.0542 7.02345 14.6326 6.40515C15.3277 5.67128 15.6423 4.85652 15.6473 3.81061C15.6473 3.11719 15.5661 2.73581 15.282 2.10595C15.0537 1.59744 14.4601 0.909803 14.0187 0.643992C13.3439 0.239497 12.4712 0.123927 11.7253 0.34351Z" fill="#0B83A5"/>
<path d="M8.2803 8.4623C7.3924 8.68188 6.58568 9.39842 6.16456 10.3461C5.84492 11.0626 5.83477 11.1609 5.83477 13.8652C5.83477 15.5698 5.85506 16.3788 5.89565 16.5349C5.97176 16.8238 6.2914 17.2398 6.56538 17.4074C6.72774 17.5056 6.85966 17.5345 7.15393 17.5345C7.60549 17.5345 7.84396 17.4132 8.13823 17.0434C8.50354 16.5811 8.49339 16.6331 8.51369 14.1252C8.51876 12.8828 8.53906 11.8138 8.5492 11.7445C8.57965 11.6058 8.80796 11.4382 8.9754 11.4382C9.03121 11.4382 9.14283 11.5076 9.22908 11.5885L9.38637 11.7329L9.41173 27.6469L9.54872 27.9416C9.81256 28.5079 10.3047 28.8142 10.8577 28.7564C11.3245 28.7101 11.7101 28.4154 11.9384 27.9358C12.0501 27.7105 12.0501 27.6585 12.0754 24.0527L12.1008 20.4007L12.2175 20.2678C12.3748 20.0886 12.6894 20.0886 12.8466 20.2678L12.9633 20.4007L12.9887 24.0527C13.0141 27.6585 13.0141 27.7105 13.1257 27.9358C13.6483 29.0453 15.003 29.0511 15.5154 27.9416L15.6524 27.6469L15.6778 11.7329L15.8351 11.5885C15.9213 11.5076 16.0329 11.4382 16.0887 11.4382C16.2562 11.4382 16.4845 11.6058 16.5149 11.7445C16.5302 11.8138 16.5454 12.8828 16.5504 14.1252C16.5657 16.6446 16.5657 16.6273 16.936 17.0607C17.2405 17.419 17.4688 17.5345 17.9102 17.5345C18.1994 17.5345 18.3364 17.5056 18.4937 17.4074C18.7626 17.2456 18.996 16.9567 19.1228 16.6389C19.2243 16.3904 19.2294 16.269 19.2294 13.8999C19.2294 11.1609 19.2192 11.0626 18.8996 10.3461C18.4734 9.38686 17.6667 8.6761 16.7686 8.4623C16.2663 8.34095 8.76737 8.34095 8.2803 8.4623Z" fill="#0B83A5"/>
</svg>
