<svg width="27" height="25" viewBox="0 0 27 25" fill="none" xmlns="http://www.w3.org/2000/svg">
<path d="M19.5 1.1498e-05C18.3358 -0.00207136 17.1873 0.278854 16.1457 0.820441C15.1041 1.36203 14.1982 2.14933 13.5 3.11973C12.5545 1.80924 11.2372 0.841668 9.73471 0.353921C8.23219 -0.133825 6.62048 -0.117043 5.12762 0.401893C3.63477 0.920828 2.33637 1.91564 1.41616 3.24556C0.495954 4.57547 0.000531866 6.17315 0 7.81251C0.00796277 9.05515 0.216265 10.2876 0.616211 11.4583H5.96484L7.66797 8.79721C7.75928 8.65452 7.883 8.53752 8.02815 8.4566C8.17329 8.37568 8.33537 8.33334 8.5 8.33334C8.66463 8.33334 8.82671 8.37568 8.97185 8.4566C9.117 8.53752 9.24072 8.65452 9.33203 8.79721L12.5 13.7471L13.668 11.9222C13.7593 11.7795 13.883 11.6625 14.0281 11.5816C14.1733 11.5007 14.3354 11.4583 14.5 11.4583H17.5C17.7652 11.4583 18.0196 11.5681 18.2071 11.7634C18.3946 11.9588 18.5 12.2237 18.5 12.5C18.5 12.7763 18.3946 13.0412 18.2071 13.2366C18.0196 13.4319 17.7652 13.5417 17.5 13.5417H15.0352L13.332 16.2028C13.2407 16.3455 13.117 16.4625 12.9719 16.5434C12.8267 16.6243 12.6646 16.6667 12.5 16.6667C12.3354 16.6667 12.1733 16.6243 12.0281 16.5434C11.883 16.4625 11.7593 16.3455 11.668 16.2028L8.5 11.2529L7.33203 13.0778C7.24072 13.2205 7.117 13.3375 6.97185 13.4184C6.82671 13.4993 6.66463 13.5417 6.5 13.5417H1.49799C4.82935 20.0274 12.5947 24.6241 13.0114 24.8672C13.1606 24.9543 13.3289 25 13.5 25C13.6711 25 13.8394 24.9543 13.9886 24.8672C16.284 23.4668 18.4382 21.8295 20.4189 19.98C24.7858 15.8861 27 11.7923 27 7.81251C26.9977 5.74122 26.2068 3.75545 24.8008 2.29083C23.3948 0.826213 21.4884 0.0023591 19.5 1.1498e-05Z" fill="#0B83A5"/>
</svg>
