<svg width="27" height="25" viewBox="0 0 27 25" fill="none" xmlns="http://www.w3.org/2000/svg">
<path d="M13.5 8.20786C13.2209 8.20815 12.9487 8.29082 12.7208 8.44451C12.493 8.59821 12.3205 8.8154 12.2272 9.06628H14.773C14.6796 8.8154 14.5071 8.59823 14.2792 8.44455C14.0513 8.29086 13.7791 8.20818 13.5 8.20786Z" fill="#0B83A5"/>
<path d="M18.4019 5.39573C18.3764 5.44762 18.3402 5.4941 18.2956 5.53244C18.2509 5.57077 18.1986 5.60019 18.1419 5.61896C18.0851 5.63772 18.025 5.64545 17.965 5.64169C17.905 5.63793 17.8465 5.62275 17.7928 5.59706C17.7391 5.57136 17.6913 5.53567 17.6523 5.49208C17.6133 5.44849 17.5838 5.39789 17.5656 5.34327C17.5475 5.28864 17.5409 5.2311 17.5465 5.17403C17.552 5.11696 17.5694 5.06152 17.5977 5.01099L18.0766 4.09998C16.9854 3.99697 15.6354 3.92907 13.95 3.91851V5.20336C13.95 5.31719 13.9026 5.42637 13.8183 5.50686C13.7339 5.58735 13.6194 5.63257 13.5001 5.63257C13.3807 5.63257 13.2663 5.58735 13.1819 5.50686C13.0975 5.42637 13.0501 5.31719 13.0501 5.20336V3.91851C11.3647 3.92907 10.0147 3.99688 8.92381 4.09981L9.40276 5.01099C9.45625 5.11276 9.46516 5.23063 9.42754 5.33868C9.38991 5.44672 9.30884 5.53608 9.20214 5.5871C9.09544 5.63812 8.97187 5.64662 8.8586 5.61073C8.74533 5.57484 8.65165 5.49751 8.59816 5.39573L7.97233 4.20518C6.98799 4.32076 6.0177 4.52695 5.07502 4.82089L6.38895 8.4847C6.44988 8.65412 6.56468 8.80119 6.71737 8.90544C6.87006 9.00969 7.05303 9.06591 7.2408 9.06629H11.2957C11.3537 8.79762 11.4655 8.54216 11.625 8.31392L10.4821 7.22371C10.4392 7.18408 10.4051 7.13672 10.3817 7.08439C10.3582 7.03206 10.3459 6.9758 10.3454 6.91889C10.345 6.86198 10.3564 6.80555 10.379 6.75288C10.4016 6.70022 10.435 6.65237 10.4772 6.61213C10.5194 6.57189 10.5696 6.54005 10.6248 6.51847C10.68 6.49689 10.7392 6.48601 10.7988 6.48644C10.8585 6.48688 10.9175 6.49862 10.9723 6.52101C11.0272 6.54339 11.0768 6.57595 11.1184 6.6168L12.2613 7.70701C12.568 7.51281 12.92 7.39349 13.2863 7.35954C13.6527 7.32559 14.0222 7.37805 14.3623 7.51232C14.7024 7.64658 15.0027 7.85853 15.2367 8.12951C15.4707 8.40048 15.6314 8.72218 15.7045 9.06629H19.7592C19.947 9.06593 20.1301 9.0097 20.283 8.90542C20.4358 8.80114 20.5507 8.65399 20.6117 8.48449L21.9295 4.82381C20.9855 4.52847 20.0136 4.32139 19.0275 4.20548L18.4019 5.39573Z" fill="#0B83A5"/>
<path d="M26.2339 2.09156C25.0496 1.31039 21.8201 0 13.5 0C5.17878 0 1.95029 1.31039 0.766221 2.09156C0.503752 2.26658 0.295176 2.50543 0.162141 2.78329C0.0291072 3.06116 -0.0235362 3.36793 0.00967545 3.67175L2.08321 23.4487C2.12644 23.8743 2.33458 24.2691 2.66691 24.556C2.99923 24.843 3.43183 25.0013 3.88006 25H23.1201C23.5682 25.0012 24.0008 24.8429 24.3331 24.556C24.6654 24.2692 24.8735 23.8744 24.9169 23.4489L26.9903 3.67197C27.0236 3.36812 26.971 3.06131 26.838 2.7834C26.7049 2.50549 26.4964 2.26661 26.2339 2.09156ZM22.7812 5.10151L21.4623 8.76352C21.3405 9.10209 21.1109 9.39595 20.8056 9.60411C20.5003 9.81227 20.1344 9.92435 19.7592 9.92471H7.2408C6.8655 9.92437 6.49966 9.81232 6.19431 9.60418C5.88895 9.39605 5.6593 9.10221 5.53737 8.76365L4.21894 5.10245C4.14231 4.88526 4.1592 4.64794 4.2659 4.44262C4.3726 4.23731 4.56037 4.08078 4.78798 4.00744C5.89416 3.66431 7.03477 3.43192 8.19138 3.314C8.19678 3.31353 8.20195 3.31233 8.20735 3.31203C9.96465 3.12642 11.732 3.04135 13.5 3.05729C15.2682 3.04131 17.0359 3.12636 18.7935 3.31199C18.7985 3.31199 18.8032 3.31336 18.8082 3.31379C19.9642 3.43159 21.1043 3.66373 22.21 4.00645C22.3239 4.04271 22.4291 4.10017 22.5196 4.17551C22.61 4.25084 22.6839 4.34255 22.7369 4.44532C22.7895 4.54644 22.8205 4.65652 22.8281 4.76917C22.8357 4.88181 22.8197 4.99478 22.7812 5.10151Z" fill="#0B83A5"/>
<path d="M8.04892 13C6.04892 13 5.67222 14.5588 6.04892 15.5C6.71558 17.1667 8.24891 20.6 9.04889 21C9.84887 21.4 10.3822 20.8333 10.5489 20.5C11.5001 19 10.0489 13 8.04892 13Z" fill="white"/>
<path d="M18.7177 13C20.7177 13 21.0944 14.5588 20.7177 15.5C20.051 17.1667 18.5177 20.6 17.7177 21C16.9177 21.4 16.3844 20.8333 16.2177 20.5C15.2665 19 16.7177 13 18.7177 13Z" fill="white"/>
</svg>
